<?xml version="1.0" encoding="utf-8"?>
<!-- Generator: Adobe Illustrator 22.1.0, SVG Export Plug-In . SVG Version: 6.00 Build 0)  -->
<svg version="1.1" id="Calque_1" xmlns="http://www.w3.org/2000/svg" xmlns:xlink="http://www.w3.org/1999/xlink" x="0px" y="0px"
	 viewBox="0 0 90 90" style="enable-background:new 0 0 90 90;" xml:space="preserve">
<style type="text/css">
	.st0{fill:#95C500;}
</style>
<g>
	<path class="st0" d="M29.695,47.8389c-0.1042-5.565-0.2089-11.13-0.3125-16.6949c-0.0258-1.3849,0.3208-2.6593,1.0446-3.8517
		c0.6058-0.9979,1.3467-1.986,1.6379-3.0821c0.2849-1.0723,0.1503-2.2808,0.0686-3.4201c-0.1326-1.8495,0.7583-3.0608,2.2323-3.9765
		c2.0422-1.2688,4.32-1.8649,6.6532-2.25c5.0533-0.834,10.0824-0.7156,15.0519,0.5915c1.6808,0.4421,3.2974,1.0627,4.6806,2.1715
		c0.9853,0.7898,1.5589,1.7562,1.5083,3.0679c-0.0428,1.1076-0.0331,2.2191,0.0079,3.3269c0.0141,0.3815,0.1299,0.7899,0.3079,1.129
		c0.4867,0.9269,1.0135,1.8342,1.5576,2.7291c0.6285,1.0336,0.8907,2.1535,0.8649,3.3469
		c-0.1412,6.5327-0.2895,13.0653-0.4332,19.5979c-0.1016,4.6173-0.2174,9.2343-0.2914,13.8521
		c-0.0337,2.1033-0.6063,3.9266-2.3412,5.2607c-0.1395,0.1073-0.2134,0.3311-0.2652,0.5155
		c-0.1849,0.659-0.3781,1.3183-0.5064,1.9894c-0.0784,0.41-0.2987,0.6095-0.6498,0.7801c-2.4437,1.1881-5.0588,1.7579-7.7275,2.0653
		c-4.9781,0.5734-9.947,0.4867-14.8594-0.5783c-1.3884-0.301-2.7233-0.8465-4.0861-1.2691
		c-0.4182-0.1296-0.6129-0.4047-0.6618-0.8248c-0.0255-0.219-0.0913-0.4332-0.1385-0.6497c-0.2303-1.055-0.5048-2.0166-1.404-2.8159
		c-1.0132-0.9006-1.4653-2.209-1.5004-3.5917c-0.1391-5.4838-0.2612-10.968-0.3879-16.452c-0.0075-0.3223-0.001-0.645-0.001-0.9674
		C29.728,47.8387,29.7115,47.8388,29.695,47.8389z M37.196,67.0398c0.0165-0.3638,0.0316-0.5424,0.0316-0.7211
		c0.0004-9.818,0.0003-19.636-0.0022-29.454c-0.0003-1.3161-0.0051-1.3197-1.2754-1.7257c-0.8544-0.2731-1.7127-0.534-2.63-0.8193
		c0,0.3155-0.0015,0.5354,0.0002,0.7553c0.0777,9.7571,0.1558,19.5143,0.2332,29.2714c0.0124,1.5655,0.0072,1.5764,1.4962,2.0727
		C35.7272,66.6448,36.4221,66.8179,37.196,67.0398z M35.1137,21.8779c1.6118-2.4592,4.0755-3.4235,6.7534-3.9762
		c3.0463-0.6287,6.1239-0.6675,9.1994-0.2496c3.2658,0.4438,6.2985,1.3875,8.3364,4.2479c1.7436-0.9521,1.889-2.3601,0.3769-3.5749
		c-0.2345-0.1884-0.478-0.3872-0.7505-0.5032c-1.1074-0.4713-2.1953-1.0324-3.3489-1.3437
		c-5.006-1.3509-10.0685-1.3862-15.1439-0.4184c-1.9454,0.3709-3.8451,0.9149-5.499,2.0637
		C33.2377,19.3736,33.2564,20.5874,35.1137,21.8779z M44.0984,31.8854c0.0246,0,0.0492,0,0.0738,0.0001
		c0-0.6249-0.0058-1.2498,0.0021-1.8746c0.0049-0.3902-0.137-0.6032-0.5633-0.5992c-2.8008,0.0265-5.4785-0.558-8.0443-1.6639
		c-0.4113-0.1773-0.6291-0.079-0.7856,0.3283c-0.4475,1.1647-0.8965,2.3295-1.3818,3.4786
		c-0.1801,0.4266-0.0543,0.6109,0.3326,0.7834c3.1261,1.3937,6.4136,1.9647,9.8174,1.9658c0.3767,0.0001,0.5566-0.16,0.5514-0.5441
		C44.0922,33.1351,44.0984,32.5102,44.0984,31.8854z M52.7729,18.7357c0.0788,0.0607,0.1567,0.1227,0.2366,0.1818
		c1.4141,1.0466,1.2698,2.779-0.3003,3.542c-0.234,0.1137-0.4852,0.1952-0.7333,0.2766c-2.6294,0.8623-5.3617,1.0969-8.0965,1.2684
		c-1.1051,0.0693-2.2172-0.0482-3.2539-0.521c-1.0851-0.4948-1.5543-1.256-1.3989-2.2718c0.1638-1.0702,0.9214-1.9143,1.995-2.0789
		c0.6479-0.0993,1.3276-0.1205,1.9782-0.0469c1.3632,0.1543,2.7134,0.3944,4.0703-0.0437c0.8624-0.2784,1.7364-0.5207,2.5648-0.7672
		c-0.1559-0.0225-0.3724-0.0722-0.5907-0.0826c-2.4431-0.1159-4.8782-0.0704-7.2812,0.4477
		c-1.7488,0.3771-3.4215,0.9589-4.8242,2.1108c-0.5409,0.4442-0.9876,1.0033-1.5039,1.5377
		c5.7842,3.1377,18.0699,2.9084,23.0791,0.006C57.2884,20.1707,55.1326,19.2739,52.7729,18.7357z M60.7963,22.9064
		c-0.9386,0.4748-1.8328,1.0205-2.7934,1.3962c-3.3084,1.294-6.7798,1.7124-10.3055,1.7478
		c-3.8125,0.0383-7.5675-0.3582-11.151-1.7517c-0.9786-0.3806-1.889-0.9367-2.8262-1.41c-0.1758,0.4796,0.1771,0.717,0.4967,0.9655
		c1.8506,1.4395,3.9836,2.2557,6.2397,2.7745c4.1002,0.9429,8.234,0.9487,12.3698,0.3027c2.6449-0.4131,5.1694-1.1995,7.4318-2.7054
		C60.7959,23.8681,60.9582,23.4628,60.7963,22.9064z M60.0729,70.6059c-8.5541,2.8839-17.0909,2.8678-25.6133,0.009
		c-0.0292,0.9174,0.3563,1.4852,1.2887,1.6299c0.2551,0.0396,0.4962,0.1633,0.7476,0.2346
		c4.4332,1.2568,8.9625,1.5197,13.5351,1.2711c3.0895-0.168,6.1146-0.6781,9.0424-1.7335
		C59.8121,71.7507,60.0493,71.2966,60.0729,70.6059z M45.8485,31.914c-0.0246,0-0.0492,0-0.0737,0
		c0,0.6233,0.0079,1.2468-0.0028,1.8699c-0.007,0.4056,0.1742,0.6096,0.5784,0.5831c1.5831-0.1037,3.1654-0.2188,4.7487-0.3196
		c0.5463-0.0348,0.664-0.3356,0.5842-0.8173c-0.1837-1.1098-0.3633-2.2205-0.5225-3.334c-0.0748-0.5228-0.3433-0.6214-0.8377-0.5794
		c-1.2982,0.1104-2.6011,0.178-3.9034,0.221c-0.4229,0.014-0.5812,0.1629-0.5739,0.567
		C45.8565,30.7077,45.8485,31.3109,45.8485,31.914z M43.3793,23.5363c1.5603-0.1614,2.8955-0.2226,4.2005-0.4544
		c1.5404-0.2737,3.0719-0.6354,4.5744-1.0722c1.0925-0.3176,1.3714-1.3152,0.6364-2.1113c-0.2897-0.3138-0.7879-0.6306-1.18-0.6174
		c-1.1144,0.0374-2.267,0.0997-3.3233,0.4199c-1.4005,0.4246-2.7664,0.6137-4.2191,0.4417
		c-0.9489-0.1124-1.9277-0.1536-2.8739-0.0504c-0.796,0.0869-1.2553,0.8018-1.2856,1.6082
		c-0.023,0.6133,0.2988,1.0937,1.0996,1.3332C41.8484,23.2849,42.7284,23.4032,43.3793,23.5363z"/>
	<path class="st0" d="M50.4593,19.7685c0.3714,0.0725,0.7871,0.066,1.1003,0.2419c0.2598,0.1459,0.5295,0.4967,0.551,0.7755
		c0.0179,0.2329-0.2759,0.6555-0.5033,0.7136c-1.1406,0.2915-2.2977,0.5429-3.4635,0.7019
		c-0.6506,0.0887-1.0211-0.4485-1.1942-1.0006c-0.051-0.1628,0.2157-0.5744,0.4143-0.6411
		c1.0006-0.3364,2.0269-0.5964,3.0442-0.8832C50.4251,19.7071,50.4422,19.7378,50.4593,19.7685z M51.194,20.7858
		c-1.1976-0.2624-2.3405-0.0575-3.4369,0.4845C48.9575,21.5679,50.0612,21.0967,51.194,20.7858z"/>
	<path class="st0" d="M42.9496,22.7681c-1.1961,0.0151-1.7342-0.2872-1.9755-1.0061c-0.1809-0.5389,0.0228-0.9698,0.5486-1.1602
		c1.031-0.3734,2.9968,0.137,3.724,0.9668c0.3289,0.3753,0.2902,0.6055-0.1732,0.7521c-0.4787,0.1515-0.9719,0.2613-1.4637,0.366
		C43.3356,22.7452,43.0513,22.7563,42.9496,22.7681z M44.4029,21.8478c-0.4478-0.4906-1.9354-0.6995-2.6524-0.4054
		C41.9277,22.2084,42.2044,22.2527,44.4029,21.8478z"/>
</g>
</svg>
