<?xml version="1.0" encoding="utf-8"?>
<!-- Generator: Adobe Illustrator 22.1.0, SVG Export Plug-In . SVG Version: 6.00 Build 0)  -->
<svg version="1.1" id="Calque_1" xmlns="http://www.w3.org/2000/svg" xmlns:xlink="http://www.w3.org/1999/xlink" x="0px" y="0px"
	 viewBox="0 0 90 90" style="enable-background:new 0 0 90 90;" xml:space="preserve">
<style type="text/css">
	.st0{fill:#FFFFFF;}
</style>
<g>
	<g>
		<g>
			<g>
				<g>
					<g>
						<path class="st0" d="M35.1147,11.9428c-0.2229,0.0001,0.052,0.0537,0.2864,0.1437L35.1147,11.9428z"/>
						<path class="st0" d="M35.401,12.0865l0.2025,0.1019C35.5543,12.1512,35.4813,12.1175,35.401,12.0865z"/>
						<path class="st0" d="M35.9885,13.6444c-0.0272-0.2314-0.0163-0.4829-0.0082-0.7155c0.0074-0.2019,0.0117-0.371-0.0279-0.4655
							l-0.0483-0.0051l0.0276,0.0183C35.8678,12.7706,35.8772,13.5251,35.9885,13.6444z"/>
						<path class="st0" d="M36.0766,12.9179c-0.019-0.0216-0.038-0.0415-0.0571-0.0577l0.0803,0.4228L36.0766,12.9179z"/>
						<polygon class="st0" points="36.138,12.6197 36.1148,12.6847 36.1576,13.3422 						"/>
						<path class="st0" d="M35.9039,15.2832l-0.0037-0.4865c0.0916-0.4532,0.0996,0.3036,0.1612,0.0008
							c0.015-0.6069-0.1611-0.2134-0.1152-0.9712c-0.0767,0.0587-0.0307,1.2144-0.1456,1.0891
							C35.747,15.5519,35.8695,14.9482,35.9039,15.2832z"/>
						<path class="st0" d="M35.7881,44.5616c-0.0052,0.0274-0.0086,0.0456-0.0129,0.0684
							C35.7885,44.6034,35.7984,44.5757,35.7881,44.5616z"/>
						<path class="st0" d="M35.6651,52.5782c-0.0115,0.1152-0.0222,0.2227-0.0327,0.327c0.0129-0.0325,0.0251-0.0739,0.0354-0.1289
							L35.6651,52.5782z"/>
						<path class="st0" d="M35.6953,39.5378c0.014-0.1186,0.0263-0.2222,0.0374-0.3159
							C35.7146,39.2816,35.7,39.3755,35.6953,39.5378z"/>
						<path class="st0" d="M32.881,69.9436c0.0075,0.0196,0.0178,0.0363,0.0327,0.0431c0,0,0.0019-0.0085,0.0033-0.0144
							l-0.0282-0.0896L32.881,69.9436z"/>
						<path class="st0" d="M35.6171,61.5573c0.001,0.1257,0.002,0.2475,0.0029,0.3619
							C35.6274,61.7091,35.6251,61.6073,35.6171,61.5573z"/>
						<path class="st0" d="M35.7603,36.6462c-0.0014,0.0442-0.0026,0.0824-0.0038,0.1207c0.0043-0.0399,0.0098-0.0917,0.0159-0.1488
							l-0.0119,0.0222L35.7603,36.6462z"/>
						<path class="st0" d="M35.8917,49.9652c-0.0111,0.1084-0.02,0.2066-0.0217,0.2901
							C35.8823,50.1563,35.8883,50.0597,35.8917,49.9652z"/>
						<path class="st0" d="M35.5807,22.7119c-0.0143,0.1371-0.0099,0.2514,0.0014,0.3535
							C35.6021,22.9783,35.6082,22.8669,35.5807,22.7119z"/>
						<path class="st0" d="M35.5191,25.5792l-0.0002-0.0168C35.5043,25.5789,35.5071,25.5873,35.5191,25.5792z"/>
						<path class="st0" d="M35.4611,27.4115l-0.0022-0.0324C35.4482,27.3998,35.4459,27.4111,35.4611,27.4115z"/>
						<path class="st0" d="M35.5821,23.0655c-0.0528,0.2362-0.2046,0.3034-0.048,0.6138l0.0237-0.0605
							c-0.0423,0.183,0.0152,0.4564,0.0149,0.6695c0.0163-0.0214,0.0296-0.0462,0.042-0.0763
							c0.0067-0.1063,0.0155-0.2467,0.0292-0.4663C35.6851,23.4875,35.611,23.3172,35.5821,23.0655z"/>
						<path class="st0" d="M35.7586,44.5301C35.7896,44.5036,35.779,44.3108,35.7586,44.5301L35.7586,44.5301z"/>
						<path class="st0" d="M35.699,42.0569l-0.0114,0.2432C35.6956,42.2222,35.7034,42.1454,35.699,42.0569z"/>
						<path class="st0" d="M35.9815,32.7468l-0.0078,0.0441C35.9904,32.8048,35.9887,32.7688,35.9815,32.7468z"/>
						<path class="st0" d="M35.6804,42.5239l0.0072-0.2238C35.68,42.3689,35.6738,42.4401,35.6804,42.5239z"/>
						<path class="st0" d="M35.8203,35.5403c-0.0019,0.0135-0.0039,0.0277-0.0054,0.0382
							C35.8175,35.5705,35.8194,35.5561,35.8203,35.5403z"/>
						<path class="st0" d="M35.0177,31.7087c0.0062,0.1886-0.0416,0.2963-0.062,0.473c0.092,0.4014,0.037-0.8187,0.1094-0.2389
							c0.0067-0.1758-0.0017-0.3154-0.0117-0.445l-0.1129,0.2466C34.9658,32.093,34.9848,31.5136,35.0177,31.7087z"/>
						<path class="st0" d="M33.1928,67.6273l-0.0126,0.0795c0.0491-0.0528,0.0616-0.0025,0.0995-0.3083
							c-0.0603-0.2644-0.1847,0.1386-0.2441-0.3222c0.0043,0.0886-0.0049,0.2205-0.0199,0.3446
							C33.0875,67.236,33.146,67.4239,33.1928,67.6273z"/>
						<path class="st0" d="M33.0157,67.421c0,0-0.0036,0.0078-0.006,0.0128c-0.0106,0.0192-0.0198,0.0413-0.0282,0.0659
							c-0.0034,0.0658-0.0097,0.1297-0.0191,0.1815C32.9828,67.6322,33.0022,67.5333,33.0157,67.421z"/>
						<path class="st0" d="M34.7108,37.9187c-0.0068,0.0766-0.0129,0.1453-0.0186,0.2085
							C34.7164,38.0264,34.7185,37.9653,34.7108,37.9187z"/>
						<path class="st0" d="M34.3252,60.9468c-0.0091-0.0888-0.0182-0.1774-0.0258-0.2516
							C34.3014,60.8334,34.3118,60.9027,34.3252,60.9468z"/>
						<path class="st0" d="M32.9052,72.0442c-0.0085,0.0737-0.0166,0.1443-0.0254,0.2206
							c-0.0004,0.0462-0.0007,0.0854-0.0011,0.1403L32.9052,72.0442z"/>
						<path class="st0" d="M32.5382,57.268c0.1099,0.1628-0.0043-0.1214,0.0764-0.4331L32.5649,56.54
							C32.5351,56.8071,32.5438,57.0555,32.5382,57.268z"/>
						<path class="st0" d="M35.062,31.4788l-0.0104-0.0035c0.0006,0.0076,0.0011,0.013,0.0019,0.0226L35.062,31.4788z"/>
						<path class="st0" d="M32.8774,48.6092c0.0079-0.0504,0.0147-0.0942,0.0219-0.1404
							C32.8914,48.4969,32.8838,48.5407,32.8774,48.6092z"/>
						<path class="st0" d="M32.8924,69.1533l-0.0538,1.1141l0.0424-0.3239C32.83,69.7862,32.9561,69.3108,32.8924,69.1533z"/>
						<path class="st0" d="M32.2697,62.018l-0.0749,0.0963c0.104,1.1148-0.1656,2.378,0.0088,3.2691
							c-0.3056,1.34,0.1854,0.8951-0.0894,2.1238l0.0371-0.0402c-0.1106,1.9687-0.2248,3.9992-0.337,5.9967
							c-0.0478,1.0005-0.0952,1.9921-0.1417,2.9659c-0.0399,1.2604-0.0791,2.4952-0.1173,3.7012
							c0.2432-0.0363,0.4688-0.0701,0.6936-0.1037l-0.0448,0.0562c1.0014-0.1273,1.9995-0.2543,2.9856-0.3797
							c0.1478-5.7387,0.2924-11.3494,0.4394-17.0559c-0.0314-0.5686-0.1499-0.2292-0.1929-0.7199
							c0.0099-0.2124,0.0162-0.6928,0.0775-0.6937c0.023,0.4125,0.0832,0.182,0.1035,0.3231
							c0.0112-0.6842,0.1047-1.5662,0.0456-2.1777l-0.0921,0.5089c-0.0271-0.2382,0.0049-0.6106,0.0145-0.8254
							c0.0381,0.0918,0.1324-0.2183,0.1469-0.0321c-0.1634-1.2932,0.1103-1.0028,0.0606-2.089
							c-0.1624-0.2204-0.265-1.5814-0.3617-2.4782l0.0557-0.4684c-0.0171,0.6241,0.1228-0.0083,0.0948,0.765
							c0.065-0.6445,0.0083-1.2453,0.051-1.8552c-0.0452,0.1176-0.0995,0.0858-0.1122-0.16
							c0.0327-0.3747,0.1178-0.4053,0.1373-0.8335l0.0418,0.4243c0.0704-0.2834-0.0064-0.5307-0.0098-0.7956
							c0.0724-0.0841,0.1017-0.7237,0.1769-0.6085c-0.0809-0.5793-0.0217-0.782-0.0665-1.4046
							c-0.0906,0.644-0.0881-0.1683-0.1484-0.0973l0.0091,0.7286c0.0732-1.0251,0.0039,0.3339,0.1255,0.26
							c-0.0677,0.4813-0.1802-0.6674-0.1823,0.1414c-0.0361-0.9671,0.0227-1.1703-0.051-2.1601
							c0.0072,0.5966-0.075-0.1159-0.1198,0.2034c0.015-0.7564,0.0467-0.1867,0.1297-0.4186
							c0.0072-0.4116,0.0791-0.5613,0.0005-0.9424c0.0533-0.6666,0.0873,0.1024,0.1447-0.2338
							c0.0762,0.2491-0.1494,1.8548,0.1184,1.6794c-0.0061,0.3481,0.0836,0.7757,0.0653,1.2775
							c0.0458-0.4371,0.1484-1.0614,0.1023-1.6046l-0.1476-0.0311c0.007-0.4113-0.0916-0.4987-0.0708-0.7948
							c0.0388,0.1585,0.1086-0.1239,0.105-0.4553c-0.0235,0.0936-0.022,0.2258-0.0469,0.189
							c0.0047-0.613-0.0943-0.7005-0.1034-1.4305c-0.054,0.6007-0.1016,0.7237-0.1805,1.285c-0.1001-0.154-0.005-0.397-0.009-0.7286
							c0.0129,0.05,0.0139,0.1191,0.037,0.0223l-0.0409-0.3538c0.0642-0.7494,0.1481,0.0974,0.2142-0.5195
							c0.0981-0.4252-0.0337-0.5867,0.0241-0.9135c-0.0099,0.0224-0.0204,0.046-0.028,0.0632
							c0.005-0.072,0.0086-0.1235,0.0114-0.163l-0.0073,0.0053c-0.005-0.3982,0.0144-0.8254-0.0604-0.9401
							c0.0363-0.0412-0.0012-0.3487-0.0219-0.479c-0.0254-0.2229-0.1035-0.7563,0.0299-1.0841l0.0001,0.0247
							c0.0277-0.4956,0.0768-0.881,0.116-0.773l0.0517-0.7995l0.0988,0.0885c-0.0086-0.7297-0.0695-0.6587-0.1609-1.1613
							c0.0734-0.5207,0.0486-1.435,0.0199-1.7811c0.0055-0.0574,0.0081-0.1454,0.0065-0.2904l-0.0475,0.3032
							c0.019-0.5688-0.0362-0.5012-0.0269-0.8765c-0.0114,0.0778-0.0175,0.0886,0.0038-0.1207
							c0.0038-0.0633,0.008-0.1318,0.0131-0.2154c0.0103,0.0192,0.0064,0.1034-0.001,0.1873l0.0356-0.0677
							c0.1191-0.4524-0.043-0.6995,0.0071-1.1846c0.0015,0.0478,0.0038,0.1257,0.0053,0.1745
							c0.0342-0.2726,0.1875-0.6614,0.103-0.7769c0.0128-0.0629-0.0023-0.1596-0.0217-0.2539l0.0204-0.2008
							c-0.0084,0.0806-0.015,0.1438-0.0206,0.198c-0.0258-0.1257-0.0587-0.2451-0.0367-0.2605l0.0361-0.698
							c0.018-0.1322,0.01-0.3122-0.0004-0.4581l0.045-0.1176c0.0002-0.2548,0.0252-0.2561,0.036-0.2256
							c0.1683-0.8801-0.0394-1.3683,0.1114-2.3202c-0.0653-0.1839-0.1072,0.2099-0.1456,0.2392
							c-0.05-0.1503-0.0841-0.6977-0.1152-0.9722c0.1077-0.4225,0.2267-1.725,0.3608-1.512
							c0.0311-0.7866-0.0923,0.2431-0.1304-0.1522l0.0078-0.0902c-0.0232,0.2714-0.0765,0.4827-0.1341,0.6341
							c-0.0768,0.0577-0.0809-0.6379-0.0538-0.8499l0.1035,0.1518c-0.0189-0.7268-0.1839-0.5795-0.2797-1.0342
							c0.0574-0.5768,0.146-0.2417,0.2452-0.3613l-0.0111-0.6079l0.0806,0.0021c-0.0113-0.3949-0.0841-0.4886-0.0384-1.0339
							c0.0657,0.3966,0.0961-0.8173,0.1842-0.269c0.0348-0.3023-0.1187-0.3942-0.0074-0.5463
							c-0.0805-0.2128-0.0498,0.271-0.0808,0.4235c-0.1266,0.1206-0.042-0.6678-0.0648-1.0324
							c0.0647-0.029,0.069,0.2448,0.1226-0.1826c-0.0461-0.0891-0.0767-0.3627-0.0113-0.6043
							c-0.0805-0.0021-0.0037-0.4865,0.0074-0.7293c-0.0228,0.2732-0.0918,0.6663-0.1569,0.4859
							c-0.0268-0.2133-0.0382-0.397-0.015-0.8814l-0.0462,0.3326c-0.1073-0.4264,0.1034-0.6967,0.0806-1.2741
							c0.0422,0.2441,0.0383,0.3962,0.0917,0.6095c-0.0306-0.2734-0.0762-0.7914-0.1028-1.2169l0.13-0.483
							c-0.0574-0.062,0.0193-0.5464-0.0611-0.5485c0.0696-0.6032,0.0842,0.4886,0.1417,0.5506
							c0.0728-0.7576-0.1185-0.611,0.0233-1.3357l0.0689,0.2437c0.0116-0.2416-0.0189-0.7288,0.0195-0.7582
							c-0.027-0.0007-0.0194,0.1214-0.0233,0.2729c-0.1573-0.1532-0.0838-1.123-0.2526-1.037l-0.0194,0.3343
							c-0.019-0.5138-0.1224-0.8819-0.0536-1.2748c0.0614-0.3019,0.1072,0.2154,0.1457,0.3963
							c0.0231-0.4827-0.1725-0.397-0.1416-0.9733c-0.0346,0.3025-0.0923,0.2431-0.1304,0.0601
							c-0.0194,0.3333-0.0691,1.029,0.0039,0.9084l0.0192-0.1204c0.0422,0.0315,0.0535,0.214,0.0728,0.305
							c-0.0117,0.456-0.0806,0.2104-0.1152,0.301c-0.046,0.758,0.1647,0.066,0.1415,0.7604l-0.0345,0.0899
							c0.0344,0.3354,0.027,0.8513,0.1267,0.9454c-0.1154,0.3012,0.0225,0.788-0.0501,1.1195
							c-0.2377,0.0574,0.0463-1.1804-0.0725-1.5784c-0.0578,0.3627-0.1074-0.2116-0.1572-0.3655l0.0725,1.1528
							c-0.0346,0.0909-0.161,0.4246-0.0804,0.6358l0.0077-0.0902c0.015,0.4567,0.115,0.3364,0.0726,0.7302
							c-0.0231,0.0605-0.0576-0.0616-0.0728-0.0924c-0.031,0.3634,0.0458,0.3043,0.0611,0.5481
							c-0.0305,0.3634-0.0921-0.1846-0.1261,0.1186c0.0804,0.4243-0.0387,0.6667-0.0426,1.0324
							c0.138-0.1521,0.1454,1.4578,0.2835,0.6719l0.0689,0.8797c-0.0767,0.2718-0.1721-0.6086-0.2912-0.3686l0.0229-0.6985
							c-0.1696,0.1113,0.0713,1.4658-0.1267,1.9244c-0.0168,0.3727,0.0089,0.2819-0.0922,0.9863l0.152-0.1173
							c-0.0436,0.3655-0.1278,0.4821-0.1555,0.4982c0.004,0.2152-0.0047,0.4084-0.0162,0.6076
							c-0.0206-0.053-0.0387-0.1281-0.0432-0.2583c-0.0897,0.2738-0.0608,0.3546-0.0193,0.4521
							c0.0337,0.1499,0.0228,0.3761,0.0156,0.6054l-0.05-0.208c0.0088,0.1404,0.0205,0.3126,0.0469,0.3288
							c-0.0019,0.0952-0.0009,0.1856,0.0061,0.2722c0.0275-0.0608,0.1182-0.21,0.1653-0.5374
							c-0.0805,0.8478-0.0654,1.5145-0.2071,2.2396c-0.0423-0.0284-0.0881-0.3337-0.0958-0.2424
							c-0.031,0.3634,0.034,0.7603,0.0994,0.7289c0.0004,0.0835,0.0008,0.146,0.001,0.2012
							c-0.0388,0.0684-0.0806,0.1529-0.0915,0.3255c-0.0145,0.0394-0.028,0.1046-0.036,0.229
							c0.115,0.1248,0.0379,0.8209,0.0878,0.9736c0.0164-0.1642,0.0206-0.3657,0.0219-0.5704
							c0.0712,0.2949,0.1547,0.5591,0.0854,0.7838c-0.0611-0.5457-0.1378,0.5767-0.1495-0.2435
							c-0.1646,0.5722,0.0996,0.3033,0.0307,0.9115l-0.0692,0.3927c-0.0844-0.0623-0.0266-0.6389-0.0612-0.5481l0.0038,0.2738
							c-0.0575-0.2752,0.0115-1.3062-0.0687-1.9438l-0.0807,1.2739c0.0611,1.6091-0.1082,3.61,0.0451,4.9782l-0.0009-0.058
							c0.0077,0.024,0.0235,0.0358,0.0557,0.0559l-0.0231,0.0609l0.0579,0.2714c-0.0883,0.3047-0.1191,0.8782-0.1956,1.3651
							c0.061-0.3053,0.061-0.3053,0.1262-0.334c0.0845,0.0633,0.1198,0.1114,0.0763,0.5663
							c-0.0611,0.0034-0.0524-0.2778-0.1095,0.057c0.0344-0.1727,0.0735-0.0171,0.0761,0.1818
							c-0.0461,0.2556-0.0656,0.6828-0.1271,0.6867c-0.0135-0.1191,0.0099-0.2144,0.0211-0.2945
							c-0.0133-0.1191-0.0675,0.4811-0.1086,0.1273l0.0056,0.4638c-0.0581,0.2691-0.0758-0.1818-0.1115-0.075
							c0.0218,0.7717,0.1522,1.17,0.1758,1.8685c-0.0316-0.0336-0.1679-0.0446-0.1285-0.0361
							c-0.0549,0.5355,0.1187,1.1547,0.114,1.7656c-0.0381-0.0908-0.016-0.3187-0.0309-0.504
							c-0.0999,1.8667-0.142,3.3962-0.3171,5.1449l0.1283,0.4593l-0.105,0.4554c-0.137,1.8415-0.083,3.259-0.0861,5.0132
							c-0.0053,0.5464-0.1061,0.3252-0.1522,0.5812c-0.0467,1.1977,0.1039,1.4944,0.106,2.637
							c-0.039-0.1585-0.1527-0.4292-0.1712,0.0622c0.0381,0.0927,0.1001,0.1542,0.0672,0.4639l-0.0389-0.1588
							c-0.0702,0.282-0.0178,0.5573-0.0598,1.1442c-0.0239,1.0378,0.0499,2.0307,0.1826,2.8882
							c-0.0379,0.9172-0.1483-0.0991-0.1832,0.0743c0.0681-0.6458-0.0132-0.4504-0.0579-0.5921
							c0.0308,0.3435,0.0445,0.7582-0.0602,0.9319c-0.0062,0.4772-0.0162,0.6927,0.039,1.166
							c-0.0278-0.2381,0.0314-0.4403,0.071-0.2166c-0.0449,0.3892-0.0323,1.3837-0.1559,1.3254
							c-0.057,2.2617-0.1207,4.7881-0.1818,7.2085c0.0539,0.4099,0.0329-0.3091,0.0726-0.0837
							c0.0687,0.5955-0.0556,0.4677-0.001,0.9445l-0.0632-0.1977c-0.0284,0.7062,0.0785,1.4601,0.1239,2.1462
							c-0.0747-0.1155-0.0788,0.5607-0.1104-0.0091c0.0044,0.3349-0.3536,0.7324-0.2891,0.9926l0.3334-0.3688
							c0.0313,0.0195-0.0004,0.4882,0.0223,0.4419c-0.0714,0.2908-0.1558,0.6477-0.1607,0.8499
							c-0.0844,0.0965-0.0537-0.4116-0.0448-0.6896c-0.1355-0.0452-0.1116,0.9361-0.2265,0.5293
							c0.0071,0.5973,0.0722-0.0831,0.1136,0.2748l-0.0426,0.5199l0.0562-0.4008c0.0297,0.4357,0.1298,0.5874,0.0387,1.1654
							l0.1179,0.6051c-0.0543,0.0148-0.0633,0.1709-0.0599,0.2477c0.0042,0.0475,0.018,0.1186,0.0042,0.1672
							c-0.022-0.0379-0.0441-0.0705-0.0663-0.0977c0.0002,0.0444-0.0027,0.0773-0.0085,0.0989
							c-0.0524-0.0013-0.096-0.0119-0.1392-0.0305c-0.0107-0.0865,0.0711-0.0042,0.0436-0.0554l-0.0174-0.0188l-0.0018,0.0016
							c-0.0272-0.0064-0.0493-0.0136-0.0663-0.0214c0.0399,0.0564-0.0168,0.1123,0.078,0.1369
							c-0.013,0.0304-0.0337,0.0607-0.0645,0.0898c-0.0661,0.0338-0.1824,0.0718-0.2936,0.1052
							c-0.089,0.0248-0.1819,0.0506-0.2953,0.0822c-0.0872,0.0211-0.1979,0.0401-0.3275,0.0551
							c-0.0109-0.0069-0.0167-0.0138-0.0126-0.0214c0.0261-0.0657,0.0427-0.0712,0.056-0.0614
							c0.0972-0.0471,0.2329-0.0837,0.2282-0.1512c-0.0344-0.0012-0.0662,0.0034-0.1023,0.0132
							c-0.0132-0.0794-0.0791-0.1205-0.137-0.2209c-0.0301-0.0232-0.0534-0.1748-0.0702-0.2799
							c-0.0164-0.115-0.0241-0.2355-0.0155-0.374c0.0769-0.8112-0.0214-0.7687,0.0066-1.5937
							c0.0601,0.265,0.1004-0.5733,0.1745-0.7218l0.06,0.3286c-0.0115-0.2516,0.0265-0.4911,0.0752-0.4147
							c-0.0981,0.0424-0.0448-1.0734-0.0667-1.6435l-0.0862,0.0958c-0.0087-0.4456-0.0344-1.0632,0.0065-1.5333
							c0.0031-0.7017-0.0762-0.5455-0.1429-1.0891c0.0867-0.2951,0.1727-0.2587,0.2582-0.1556
							c-0.0498,0.1858-0.0387,0.5044-0.077,0.8119c0.0334,0.8887,0.1774,1.5849,0.1003,2.4666
							c0.1826,0.3918,0.002-0.5971,0.09-1.0234c0.0114,0.0132,0.0139,0.0444,0.0145,0.0773
							c0.0036-0.0374,0.0066-0.0686,0.0103-0.1074c0.011,0.3179,0.0209,0.8354,0.1188,0.9256
							c0.0019-0.5309-0.1822-0.3925-0.0692-1.0474c-0.035-0.4905,0.1382-0.8815,0.1645-1.1761
							c-0.0607-0.3282-0.2195-0.3488-0.1551-1.1474l0.0966,0.3551c0.0404-0.905-0.1452-0.4317-0.1049-1.2696
							c-0.0257,0.2942-0.0974-0.2895-0.1239,0.2707c-0.0478-0.2779-0.0334-0.8887,0.0179-1.3424
							c-0.012-0.1193-0.0368-0.0265-0.0737-0.0498c-0.0986,0.5008,0.0417,0.7997-0.087,1.2086l0.1053,0.3554
							c-0.0632,0.4668-0.1618,0.5103-0.197,0.2213c-0.0006,0.1324,0.0111,0.2489-0.0139,0.3445
							c-0.1841,0.0725,0.088-0.5599-0.0584-0.7288l-0.001,0.3316c-0.1233,0.1385-0.0705-0.7774-0.0443-1.2038
							c0.0754-0.4804,0.1141-0.9213,0.2004-0.9505l0.0092,0.6497c0.0821-0.3333-0.0051-0.8294,0.0142-1.2064
							c0.0127-0.0244,0.0229-0.0603,0.0309-0.1041c-0.0083,0.019-0.0165,0.0297-0.0248,0.0294
							c0.0076-0.0799,0.021-0.1508,0.0439-0.2109c0.0183-0.3308-0.0132-0.8188,0.027-1.1258l-0.0775,0.0351l0.0409,0.0435
							c-0.0158,0.3029-0.0797,0.7119-0.1267,0.4803c-0.0239-0.6856,0.1281-0.8174,0.201-0.9773
							c0.1098,0.1621-0.0292,0.6671-0.0041,1.0163c0.1238-0.2045,0.0413-0.6946,0.1471-1.3975
							c0.1144,0.2866-0.0364,0.8187,0.0735,0.9788c0.0455-0.5679-0.0378-0.7204,0.0194-1.3176
							c0.0553,0.079,0.0362,0.6623,0.1129,0.6272l0.0522-0.3826c-0.0324,0.9437,0.1639-0.1586,0.1637,0.5784
							c0.0664-0.3449-0.0825-0.489,0.0182-0.9794c-0.0607,0.1352-0.1775,0.5255-0.2069,0.051l0.0596-0.5328
							c0.0704-0.2208,0.1108,0.5628,0.177,0.2171l-0.0194-0.5611c-0.0384,0.0173-0.0686,0.2844-0.1133,0.1141
							c0.0542-0.3214-0.1229-0.5361-0.1627-0.9191c0.0158-0.3029,0.0337-0.5432,0.0822-0.6486
							c-0.0792-0.7684-0.0345-1.7365-0.1107-2.4449c0.0553,0.4835,0.1295-0.0135,0.1985-0.2984
							c-0.0074,0.5534,0.1105,0.5625,0.1879,0.5274c0.0015-0.3371-0.1108-0.5625-0.1576-0.3941
							c0.072-0.56-0.0656-0.3914,0.0348-0.8817c0.0543-0.3183,0.1098,0.1649,0.1589,0.0565
							c0.0309-0.607-0.1365-0.1713-0.0809-0.8296c0.0142,0.0368,0.0165,0.097,0.0406,0.0458
							c0.0399-0.3551,0.0005-0.7404-0.0548-0.8195c0.1698-0.3721,0.0284-1.0685,0.1747-0.9878
							c-0.0039-0.8626-0.0872,0.1248-0.1322-0.0473c-0.0515-0.3551,0.0304-1.0049,0.0627-1.2072
							c-0.0056,0.2124,0.0271,0.4093-0.0048,0.6131l0.1116-0.1772c0.1192-1.0682-0.2066-0.6892-0.0729-1.72
							c0.0318,0.5353,0.0712,0.1804,0.1334,0.448c-0.0192-0.1614,0.0441-0.9705-0.0561-0.4835
							c0.0251-0.3886,0.0551-0.6574,0.0853-0.9245c-0.0254-0.3468-0.0384-0.7224-0.0979-0.9262
							c0.0337-0.5437,0.1244-0.9433,0.1807-1.2013c-0.0269-1.1475,0.1457-2.1986,0.1166-3.4073l-0.01,0.0887
							c0.0587-0.9346-0.1556,0.408-0.1109-0.5635c0.1219,0.1353,0.1104-0.5784,0.1911-0.8897
							c0.1155-1.1892-0.0063-2.0646,0.1255-3.1588c0.0263,0.01,0.0551,0.0824,0.0493,0.2949
							c0.0754-0.8365,0.0783-1.5133,0.1169-2.2688l0.0142,0.0334c0.1541-1.2068,0.0764-2.3123,0.0986-3.5679
							c0.0118,0.1024,0.0586,0.1309,0.0723,0.2103c0.0553-0.6305,0.1164-1.6399,0.019-2.0885
							c0.1569-0.745-0.0172-0.4984,0.1449-1.4584c0.0247-0.0546,0.0169,0.0968,0.0191,0.1611
							c0.062-0.4726,0.0631-0.8097,0.0983-1.2889c-0.0364-1.0623-0.1892-1.3312-0.0882-2.56
							c0.1758-0.0556,0.0111,0.7582,0.1476,0.7913c-0.0203-0.2465-0.0467-0.4606,0.0087-0.7978
							c0.0591,0.2062,0.0408,0.0459,0.098,0.1889c0.0282-0.1285-0.0059-0.3916-0.0451-0.6219s-0.0752-0.4248-0.0752-0.4248
							c-0.0329-0.0155-0.0548,0.0727-0.0602,0.3159c-0.0943-0.2917,0.0421-1.2092,0.0244-1.8071
							c-0.0111,0.1936-0.0706,0.8012-0.1428,0.5694c0.0703-0.7983-0.0848-1.0708-0.1302-1.6328
							c0.1093-0.7332,0.1226,0.5494,0.2497,0.416c0.0494-0.1216,0.1588-0.4133,0.1931-0.1021
							c0.0538-0.661-0.03-1.1421-0.0315-1.7338l0.0335,0.0177c0.0206-0.8253-0.0922-1.7116,0.0059-2.401l-0.0547,0.3655
							c-0.0148-0.1363,0.0127-0.5518-0.0476-0.7839c0.056,0.0271,0.1299-0.5085,0.1676-0.2862
							c-0.1671-0.3746-0.0318-1.88-0.1873-2.2986c0.055-0.2184,0.1215-0.039,0.1603,0.0297
							c-0.0377,0.5199-0.0813,0.6949-0.02,0.9714c0.0157-0.4331,0.0759-0.7483,0.1147-0.68
							c-0.0952-0.4385-0.0965-1.472-0.2009-1.6947c0.0703-0.3141,0.1137-0.6146,0.2037-0.4999
							c-0.0029-1.331-0.3196,0.6442-0.255-0.8559c0.1205-0.6798,0.0961,0.6728,0.1671-0.2693l0.0076,0.1748
							c0.2724-0.671-0.1538-0.4852-0.1132-1.2565c0.1372-0.0975,0.0722,0.5415,0.1897,0.0132
							c-0.0038-0.7075-0.1874-1.0251-0.1152-1.7294l0.0517,0.1131c0.0207-0.4539,0.0604-1.3278,0.081-1.7793
							c0.0271-0.0202,0.0206,0.0451,0.0241,0.1313c0.0853-0.8305-0.0532-0.3508,0.0672-1.0282l-0.0561-0.1982
							c-0.0603,0.3404-0.153,0.9997-0.0955,1.4356c-0.0575-0.4359-0.1966,0.6711-0.3006,0.4515l0.0418,0.0878
							c-0.2424,1.122-0.3281,2.5777-0.4618,4.0086c0.0977,0.9104-0.1194,1.537-0.0666,2.5119
							c0.1487,0.1579,0.0235,0.1831,0.0196,1.0177c-0.0008-0.4421-0.1159-0.0574-0.1485,0.2207
							c0.0332,0.1644,0.0395,0.363,0.0453,0.5621c-0.0602,0.166-0.2293,1.2117-0.1402,1.6002
							c-0.0711,0.505-0.0448-0.1207-0.0723-0.2328c-0.0882,0.2031,0.0449,0.4157-0.0156,0.5821c0,0-0.0165-0.0088-0.022-0.0622
							c-0.0264,0.7764-0.0864,1.2381-0.1399,2.0452c0.1495,0.0729,0.0239,0.7964,0.0632,1.1579
							c-0.0443-0.1186-0.0762,0.4521-0.1146,0.68l0.0949,0.4375c0.0781,0.4324-0.0928,0.593-0.0641,1.1489l0.033-0.1326
							c0.0285,0.4074-0.1077,1.4678-0.2063,1.8619c0.1401,3.75-0.4106,5.7743-0.4958,9.7161
							c0.0351,0.2581,0.085-0.1843,0.1444,0.0195c0.0007,0.4007-0.0095,0.4918-0.0227,0.8557
							c0.0544-0.32,0.0015-0.2704,0.0421-0.2276l-0.0194-0.5596c0.0123-0.0265,0.0143,0.0351,0.0383-0.0171
							c-0.0061-0.1881-0.0273-0.4097-0.0092-0.65c0.0249,0.3467,0.1332,0.448,0.0706,0.9186
							c-0.014-0.0369-0.0162-0.0982-0.0207-0.2227c-0.0254,0.3893,0.0277,0.4109-0.0144,0.7024
							c-0.0401,0.3568-0.0016,0.2703-0.0525,0.3144l-0.1074,1.1094c0.111,0.5604-0.0457,1.2384-0.0658,1.4175
							c-0.0956-0.1253,0-0.7378-0.0874-1.0154l-0.0905,0.3978l0.0796,0.0273l-0.0461,0.57l-0.0141-0.0327
							c0.0286,0.0688,0.057,0.1402,0.023,0.2849c-0.0122,0.0242-0.0366,0.079-0.0386,0.0152l0.0272,0.4097
							c-0.0734-0.2406-0.04,0.3565-0.1336,0.2932c-0.1043,1.3267,0.0585,1.6956-0.1221,2.8595
							c0.0534-0.188,0.1363,0.3771,0.1035,0.7359c-0.0323,0.2066-0.0563,0.2581-0.0875,0.1248l0.0295,0.4735
							c-0.1751,0.5843-0.1027,1.1648-0.1904,2.0281l-0.0406-0.0466c0.0367,0.3227,0.0621,0.6698,0.0262,1.1511l-0.081-0.0914
							c-0.0844,0.5867,0.1591,0.4574,0.0775,1.1058c0.0913,0.0003,0.1553-0.4076,0.2444-0.4675
							c-0.0991,0.1496-0.1423,0.8475-0.0695,0.6876c0.0099,0.6501-0.0213,0.4494-0.0456,0.504l0.0395,0.3831
							c-0.0236,0.4553-0.1256,0.1407-0.1707-0.0297c0.0802,0.4289-0.0084,0.8891-0.0442,1.3707l-0.0327-0.1972l-0.0433,0.634
							c0.0537,0.4168,0.0346,0.9966-0.0254,1.5294l-0.1044-0.3742c-0.0784,0.3725,0.0334,0.1948,0.0496,0.2949
							c0.0336,0.5952-0.0532,0.719-0.1341,1.0295C32.4855,60.2693,32.1239,61.1971,32.2697,62.018z M35.9186,32.9717l-0.0202,0.0874
							C35.8828,32.86,35.8663,32.7463,35.9186,32.9717z M35.7501,38.1885c-0.0308-0.6297,0.0209-0.4289,0.0553-0.4756
							c-0.0487,0.6178-0.0193,0.963-0.0727,1.5091c0.0262-0.0873,0.0588-0.1034,0.0796-0.1311
							c-0.0114,0.2179-0.0434,0.4355-0.1063,0.5085C35.5923,39.3261,35.8269,37.9182,35.7501,38.1885z M35.4591,26.4259
							l0.0249,0.0744l-0.0001,0.0035L35.4591,26.4259z M35.4858,29.5386c-0.0271,0.0436-0.0432,0.1201-0.0553,0.2136
							C35.4641,29.6955,35.4921,29.6405,35.4858,29.5386z M35.1779,35.7253c-0.0539,0.1418-0.0471,0.4684-0.0416,0.7059
							C35.1446,36.3202,35.1652,36.1215,35.1779,35.7253z M34.2262,74.7796c-0.0146-0.1881-0.0559-0.542-0.1008-0.2208
							c0.0392,0.1557-0.0432,0.4525,0.0192,0.5846c-0.0035,0.017-0.0044,0.021-0.0066,0.0319
							C34.1838,74.9887,34.2223,74.8351,34.2262,74.7796z M32.7155,67.3664c0.0479,0.0358,0.0957,0.1761,0.1369,0.089
							l-0.0062,0.0524c0.0187-0.0459,0.0343-0.0846,0.0436-0.048c0.0161-0.1489,0.0346-0.3053,0.0247-0.4111
							C32.7557,66.9917,32.7432,66.6748,32.7155,67.3664z"/>
						<path class="st0" d="M33.1194,73.5232c0.0014-0.0715,0.0025-0.1257,0.0033-0.1709
							C33.1219,73.3988,33.1208,73.4517,33.1194,73.5232z"/>
						<path class="st0" d="M32.9128,67.0791c-0.0096-0.0138-0.0331,0.1617-0.0603,0.3763
							C32.8743,67.4125,32.8949,67.3081,32.9128,67.0791z"/>
						<path class="st0" d="M36.264,16.3199l0.0115,0.1823l0.0578-0.3627c-0.0381-0.6086-0.1071-0.6407-0.1839-0.7922
							c0.0613,0.5459,0.015,0.8782,0.0189,1.5773L36.264,16.3199z"/>
						<path class="st0" d="M35.7196,16.6144c-0.023,0.0606-0.0808,0.2113-0.0884,0.3023l0.0465,0.0915L35.7196,16.6144z"/>
						<path class="st0" d="M35.2992,23.7999l0.0577-0.5753C35.3187,23.0414,35.2262,23.708,35.2992,23.7999z"/>
						<path class="st0" d="M36.2136,21.2638l-0.0461-0.3042c-0.05,0.271-0.054,0.6366,0.0035,0.6977
							C36.148,21.2925,36.2057,21.5678,36.2136,21.2638z"/>
						<path class="st0" d="M35.2489,25.3483c0.0921,0.1822-0.0578,0.5757,0.0305,0.6967
							C35.2565,25.8929,35.345,25.3791,35.2489,25.3483z"/>
						<path class="st0" d="M36.1781,24.967c0.0961-0.1805,0.0231-0.4855,0.0541-0.8499
							C36.2243,24.421,36.1168,24.8436,36.1781,24.967z"/>
						<path class="st0" d="M35.4435,28.446c-0.0683-0.0312-0.0572-0.2742-0.034-0.5471c0.0191,0.092,0.0496,0.1529,0.0573,0.2749
							c-0.042-0.4564-0.0304-0.4872-0.0533-0.852c-0.0578,0.3627-0.1035,0.909-0.1879,0.8482
							C35.2832,28.4419,35.371,28.7793,35.4435,28.446z"/>
						<path class="st0" d="M36.1666,25.8449c0.0347-0.3032,0.1033-0.4837,0.1073-0.8479c-0.0498,0.0619-0.1229,0.1812-0.1226,0.6068
							L36.0747,25.45C36.0054,25.8432,36.1855,25.2979,36.1666,25.8449z"/>
						<path class="st0" d="M35.2137,30.1118l0.0419-0.1822c-0.0535-0.4267-0.0072-0.9716-0.1032-1.214
							C35.1446,29.2292,35.1715,29.8678,35.2137,30.1118z"/>
						<path class="st0" d="M35.9785,27.3309l0.1111,0.0605c0.0266-0.4239-0.0386,0.0297-0.0614-0.1228
							c0.0193-0.1207,0.0343-0.3025,0.0152-0.3921C36.0476,27.36,35.9517,26.9054,35.9785,27.3309z"/>
						<path class="st0" d="M36.0666,28.7278l0.0342,0.545l0.1341-0.4219C36.2084,28.2127,36.1657,28.8187,36.0666,28.7278z"/>
						<path class="st0" d="M35.9742,29.3945l-0.0232,0.0602l0.1455,0.8204C36.0393,29.7872,36.0506,29.7578,35.9742,29.3945z"/>
						<path class="st0" d="M34.9872,39.2684c0.0459,0.0929,0.1183-0.3835,0.0593-0.1805
							C35.0089,38.9952,34.93,39.6314,34.9872,39.2684z"/>
						<path class="st0" d="M35.94,37.3408c-0.0425,0.2312,0.0066,0.9947,0.0312,1.3288C35.958,38.2719,36.0068,37.287,35.94,37.3408
							z"/>
						<path class="st0" d="M35.9808,38.8059c-0.0019-0.0275-0.0055-0.0779-0.0096-0.1363
							C35.973,38.7307,35.9758,38.7746,35.9808,38.8059z"/>
						<path class="st0" d="M35.868,52.8346c0.0006,0.0359,0.0032,0.0712,0.0102,0.1018
							C35.8746,52.9007,35.8717,52.8714,35.868,52.8346z"/>
						<path class="st0" d="M35.8484,52.4993c0.022-0.2259,0.0042-0.6758-0.046-0.7548c0.0155,0.3567,0.0223,0.6721,0.0655,1.0901
							C35.8662,52.6779,35.9078,52.487,35.8484,52.4993z"/>
						<path class="st0" d="M35.7405,55.719c-0.0264-0.1682-0.0047-0.3972-0.0532-0.3407
							C35.6638,55.4723,35.705,55.8296,35.7405,55.719z"/>
						<path class="st0" d="M33.7732,77.3752c-0.0333,0.3091-0.0186,0.4914,0.054,0.4097
							C33.835,77.4379,33.7882,77.6266,33.7732,77.3752z"/>
						<path class="st0" d="M33.8318,78.1831l-0.0361,0.0409c-0.0202,0.0892-0.0384,0.1009-0.0563,0.0993
							c0.0149-0.0045,0.0297-0.0041,0.0449-0.0188L33.8318,78.1831z"/>
						<path class="st0" d="M33.1627,78.4622c0.0026-0.0117,0.0062-0.0245,0.0111-0.0324
							C33.1648,78.4408,33.1532,78.4522,33.1627,78.4622z"/>
						<path class="st0" d="M33.2337,78.4173c-0.0181,0.0038-0.0403,0.0084-0.0599,0.0125L33.2337,78.4173z"/>
						<path class="st0" d="M33.376,78.4209l0.019-0.0404c-0.0376,0.0086-0.1001,0.0229-0.1612,0.0369
							C33.2906,78.4072,33.3517,78.404,33.376,78.4209z"/>
						<path class="st0" d="M33.101,78.4577c-0.0151,0.0381-0.0128,0.0739,0.0071,0.1073c0.081-0.064-0.0515-0.0486,0.0494-0.1774
							C33.1472,78.4098,33.1283,78.4332,33.101,78.4577z"/>
						<path class="st0" d="M33.0634,78.1463c0.0512-0.3872-0.0937-0.9545,0.0421-1.1695c-0.02-1.1033-0.2219,0.2452-0.2169-1.016
							c-0.1154,1.1875,0.2185,0.6154,0.1037,1.6688C33.0923,77.1224,33.0402,77.9747,33.0634,78.1463z"/>
						<path class="st0" d="M32.8425,78.3249c0.0608,0.0658,0.0873-0.4274,0.0514-0.583
							C32.8809,77.8851,32.7817,78.1289,32.8425,78.3249z"/>
						<polygon class="st0" points="33.0971,75.9928 33.1601,75.6584 33.1231,75.5684 						"/>
						<path class="st0" d="M33.1762,74.7175l0.0597,0.3306C33.2118,74.939,33.2382,74.4482,33.1762,74.7175z"/>
						<path class="st0" d="M33.3428,72.944c0.0379-0.3071-0.1203-0.5936-0.1107,0.059l0.0128-0.148
							C33.2697,72.8943,33.3444,72.5465,33.3428,72.944z"/>
						<path class="st0" d="M33.249,68.8206c-0.0127,0.2122-0.0015,0.4638,0.0355,0.4211l-0.0101-0.5832L33.249,68.8206z"/>
						<path class="st0" d="M32.8321,68.8891c-0.1115,0.1911-0.0146,0.5458-0.065,0.9308
							C32.8056,69.3818,32.8175,69.4348,32.8321,68.8891z"/>
						<path class="st0" d="M33.4238,68.1623c0.036,0.1587-0.0017,0.4006-0.0148,0.5462
							C33.4709,68.6397,33.4726,68.2391,33.4238,68.1623z"/>
						<path class="st0" d="M33.4274,67.2335c0.0498-0.1882,0.0561,0.0441,0.0906-0.098c0.0639-0.406,0.0757-0.8345,0.0284-1.0685
							c-0.0486,0.1056-0.1743,0.2472-0.2191,0.0766c0.0091,0.6526,0.1866,0.9936,0.0259,1.3046l0.1572,0.5513
							C33.5615,67.4802,33.4013,67.5942,33.4274,67.2335z"/>
						<path class="st0" d="M33.0297,68.5351l0.0749-0.3461c-0.0615,0.0673-0.0606-0.1976-0.0719-0.3836
							C32.8971,67.8912,33.0303,68.3358,33.0297,68.5351z"/>
						<polygon class="st0" points="33.5001,63.6202 33.5008,62.879 33.4833,63.1194 						"/>
						<polygon class="st0" points="33.5622,63.1476 33.6011,63.1298 33.555,62.5612 						"/>
						<polygon class="st0" points="33.6398,62.3745 33.6301,62.4618 33.6449,62.8985 						"/>
						<path class="st0" d="M33.7303,60.8332l-0.061,0.1335c0.0067,0.1879-0.0714,0.5603,0.0052,0.5276
							C33.6559,61.3306,33.6814,60.9421,33.7303,60.8332z"/>
						<path class="st0" d="M32.5349,55.6646c0.0311,0.1353,0.0669,0.0567,0.1034-0.0222l-0.0856-0.2164
							C32.5549,55.4893,32.5589,55.6141,32.5349,55.6646z"/>
						<path class="st0" d="M32.7261,54.7781l-0.0848-0.5535c-0.0432,0.6317,0.0379,0.7235,0.0314,1.2754
							c0.044-0.2323-0.0194-0.562,0.0225-0.856L32.7261,54.7781z"/>
						<path class="st0" d="M33.2714,43.7875c0.0673,0.0525,0.0628-0.0721,0.0907,0.3377c-0.0195-0.5609,0.0159-1.0406,0.0324-1.6817
							c-0.0483,0.1069-0.1038-0.3742-0.0954-0.1272l0.0116,0.7158l-0.0429-0.1092C33.1936,43.4222,33.3316,43.2536,33.2714,43.7875z
							"/>
						<path class="st0" d="M35.216,15.094c0.0309,0.0679,0.065-0.0169,0.099-0.1018C35.2955,14.5641,35.2196,15.1802,35.216,15.094z
							"/>
					</g>
				</g>
			</g>
		</g>
	</g>
	<g>
		<g>
			<g>
				<g>
					<g>
						<path class="st0" d="M68.715,16.3163c-0.1289-0.1874-0.0138,0.075,0.0481,0.3246L68.715,16.3163z"/>
						<path class="st0" d="M68.763,16.6409l0.0338,0.2297C68.7988,16.8075,68.784,16.7264,68.763,16.6409z"/>
						<path class="st0" d="M69.1395,18.7687c-0.1687-0.4726-0.194-1.0717-0.3619-1.354
							C68.8161,17.9182,68.9988,18.671,69.1395,18.7687z"/>
						<polygon class="st0" points="69.0568,18.024 68.9868,17.9746 69.1641,18.3829 						"/>
						<polygon class="st0" points="69.0464,17.7082 69.038,17.7738 69.234,18.4288 						"/>
						<path class="st0" d="M69.4375,20.4226l-0.1165-0.4844c-0.016-0.4729,0.1675,0.2801,0.1572-0.036
							c-0.1262-0.6088-0.2064-0.1762-0.3376-0.9425c-0.0611,0.076,0.2519,1.2182,0.111,1.1194
							C69.347,20.7263,69.3263,20.0963,69.4375,20.4226z"/>
						<path class="st0" d="M69.1779,47.7782c-0.0263,0.0119-0.0441,0.0198-0.066,0.0297
							C69.1427,47.804,69.1718,47.7952,69.1779,47.7782z"/>
						<path class="st0" d="M61.4266,50.9304c-0.1231,0.0041-0.2385,0.008-0.3504,0.0117c0.0359,0.0085,0.0813,0.015,0.141,0.0178
							L61.4266,50.9304z"/>
						<path class="st0" d="M73.1201,44.386c0.0967-0.0763,0.1814-0.1431,0.258-0.2035
							C73.3222,44.214,73.2424,44.2713,73.1201,44.386z"/>
						<path class="st0" d="M35.7074,37.1676c0.0078,0.0199,0.0184,0.0368,0.0334,0.0436c0,0,0.0018-0.0087,0.0031-0.0148
							l-0.0296-0.0913L35.7074,37.1676z"/>
						<path class="st0" d="M52.2838,48.6816c-0.1074-0.063-0.2115-0.124-0.309-0.1812
							C52.1493,48.6132,52.237,48.6628,52.2838,48.6816z"/>
						<path class="st0" d="M74.2549,41.7632c0.0089,0.0444,0.0166,0.0828,0.0243,0.1212c-0.0051-0.0407-0.0117-0.0936-0.0191-0.152
							l-0.0064,0.0248L74.2549,41.7632z"/>
						<path class="st0" d="M64.184,50.4746c-0.1155,0.0294-0.2162,0.0551-0.3013,0.0768
							C63.9871,50.5299,64.087,50.5031,64.184,50.4746z"/>
						<path class="st0" d="M70.8466,27.9058c0.0179,0.14,0.0487,0.253,0.0834,0.3523
							C70.9292,28.1666,70.9093,28.0541,70.8466,27.9058z"/>
						<path class="st0" d="M71.4519,30.7798l-0.0041-0.0167C71.4375,30.7827,71.4421,30.7905,71.4519,30.7798z"/>
						<path class="st0" d="M71.8206,32.6205l-0.0096-0.0319C71.8054,32.6118,71.8058,32.6236,71.8206,32.6205z"/>
						<path class="st0" d="M70.93,28.2581c0.0034,0.2476-0.1288,0.3492,0.0957,0.6232l0.009-0.0657
							c0.0013,0.1922,0.1207,0.4518,0.1699,0.6643c0.0109-0.025,0.0182-0.0528,0.0232-0.0856
							c-0.0182-0.1076-0.0422-0.2496-0.0798-0.4717C71.1282,28.6556,71.0165,28.5026,70.93,28.2581z"/>
						<path class="st0" d="M69.1879,47.7351C69.2281,47.7446,69.3859,47.6199,69.1879,47.7351L69.1879,47.7351z"/>
						<path class="st0" d="M71.1941,46.1355l-0.2002,0.1527C71.0609,46.2429,71.1267,46.1976,71.1941,46.1355z"/>
						<path class="st0" d="M73.5654,37.8236l0.0026,0.0457C73.5876,37.8793,73.5776,37.8438,73.5654,37.8236z"/>
						<path class="st0" d="M70.8083,46.4269l0.1856-0.1387C70.9334,46.3267,70.8719,46.3678,70.8083,46.4269z"/>
						<path class="st0" d="M74.0567,40.6466c0.0013,0.0139,0.0026,0.0285,0.0036,0.0393
							C74.061,40.6773,74.0595,40.6625,74.0567,40.6466z"/>
						<path class="st0" d="M49.2,17.8825c-0.1838-0.0773-0.2661-0.1698-0.424-0.2701c-0.4226-0.0988,0.7636,0.4053,0.1795,0.209
							c0.1662,0.0842,0.3031,0.1394,0.4323,0.1867l-0.1899-0.2117C48.8542,17.6651,49.4001,17.9391,49.2,17.8825z"/>
						<path class="st0" d="M35.9827,34.7905l-0.0113,0.0817c0.0483-0.0549,0.0615-0.0036,0.0946-0.3174
							c-0.0645-0.2697-0.1825,0.1452-0.2491-0.3257c0.0057,0.0906-0.0014,0.2258-0.0145,0.3532
							C35.8713,34.3916,35.9328,34.5831,35.9827,34.7905z"/>
						<path class="st0" d="M35.8024,34.5823c0,0-0.0035,0.008-0.0058,0.0132c-0.0103,0.0199-0.0191,0.0427-0.0272,0.0679
							c-0.0023,0.0674-0.0077,0.133-0.0163,0.1862C35.7728,34.7992,35.7907,34.6976,35.8024,34.5823z"/>
						<path class="st0" d="M43.8834,14.021c-0.0545-0.0627-0.1034-0.1191-0.1484-0.1708
							C43.7961,13.9436,43.842,13.9914,43.8834,14.021z"/>
						<path class="st0" d="M53.5185,47.9206c0.0791,0.0376,0.1581,0.0751,0.224,0.1065
							C53.6262,47.9583,53.5628,47.9318,53.5185,47.9206z"/>
						<path class="st0" d="M35.7646,39.318c-0.0073,0.0754-0.0144,0.148-0.022,0.2263c0.0004,0.0473,0.0007,0.0874,0.0011,0.1437
							L35.7646,39.318z"/>
						<path class="st0" d="M35.1654,24.1948c0.1124,0.1648-0.0062-0.1243,0.0696-0.4448l-0.0543-0.3011
							C35.1551,23.7229,35.1677,23.9771,35.1654,24.1948z"/>
						<path class="st0" d="M49.4028,18.0241c0,0,0.003-0.0061,0.0077-0.008c-0.0077-0.0027-0.0131-0.0046-0.0226-0.008
							L49.4028,18.0241z"/>
						<path class="st0" d="M35.3685,15.323c0.0071-0.0517,0.0132-0.0966,0.0197-0.1441
							C35.3807,15.2078,35.3738,15.2528,35.3685,15.323z"/>
						<path class="st0" d="M35.7064,36.3582l-0.0363,1.1417l0.0373-0.3324C35.6539,37.0073,35.7725,36.5184,35.7064,36.3582z"/>
						<path class="st0" d="M34.9716,29.063l-0.0734,0.0999c0.1215,1.1397-0.1282,2.4377,0.0602,3.3471
							c-0.2845,1.3774,0.1995,0.9133-0.0561,2.1762l0.0365-0.0418c-0.0821,2.0839-0.1669,4.2353-0.2502,6.3487
							c-0.0319,1.0584-0.0635,2.1067-0.0945,3.135c-0.0158,1.2518-0.0312,2.4767-0.0462,3.6722l-0.0505,0.0304
							c-0.0188,0.6553-0.0375,1.3094-0.0559,1.9542l0.9392-0.8205l0.4721-0.412c0.1517-0.1213,0.2934-0.2141,0.4408-0.3228
							l0.4386-0.3154l0.2196-0.158c0.0702-0.0501,0.0844-0.0514,0.1293-0.0795l0.4507-0.2622
							c0.3011-0.1732,0.6199-0.3144,0.9275-0.4746l0.9607-0.3978c1.3006-0.4791,2.6723-0.7253,4.0454-0.756
							c2.7627-0.0949,5.4945,0.8495,7.8872,2.3523c0.4978,0.2616,0.2702-0.0129,0.712,0.2015
							c0.1767,0.1173,0.5848,0.3683,0.5518,0.4199c-0.3658-0.1918-0.2013-0.0235-0.3327-0.0784
							c0.577,0.3587,1.3675,0.9822,1.9945,1.1919l-0.4503-0.3285c0.2416,0.0911,0.5849,0.2984,0.7881,0.4101
							c-0.1077-0.0034,0.1671,0.2098-0.0267,0.1473c1.3652,0.3672,0.9802,0.5079,2.1434,0.783
							c0.2744-0.1005,1.733,0.094,2.6826-0.0454c0.1646,0.0273,0.3298,0.0436,0.4955,0.0495
							c-0.6612,0.0039,0.0126,0.1342-0.813,0.0925c0.6888,0.094,1.3322,0.0026,1.9783-0.04c-0.13-0.0291-0.102-0.0873,0.1535-0.1326
							c0.3976-0.0136,0.4427,0.0558,0.8932-0.0128l-0.4354,0.1287c0.3097,0.0106,0.5548-0.1163,0.8294-0.1745
							c0.103,0.0504,0.7702-0.0986,0.6721,0.0059c0.5746-0.241,0.7949-0.2614,1.4019-0.5263
							c-0.6674,0.1594,0.1359-0.1449,0.0425-0.176c-0.2346,0.1009-0.4763,0.1842-0.719,0.2659
							c1.0505-0.2709-0.3322,0.1143-0.2225,0.2057c-0.503,0.0949,0.6136-0.3924-0.1962-0.1271
							c0.9522-0.352,1.1779-0.3668,2.0936-0.8509c-0.5633,0.262,0.0791-0.118-0.2414-0.0224
							c0.7201-0.3087,0.1955-0.037,0.4499-0.0607c0.3932-0.1692,0.5597-0.1889,0.8787-0.4341
							c0.6354-0.2818-0.0504,0.1319,0.2836,0.0134c-0.1864,0.2118-1.8045,0.7213-1.5351,0.8778
							c-0.3393,0.1395-0.7276,0.3943-1.2409,0.5524c0.4548-0.1078,1.1202-0.2541,1.6259-0.542l-0.0315-0.1477
							c0.4014-0.1694,0.4361-0.3066,0.7233-0.4272c-0.1316,0.1094,0.1665,0.0391,0.4753-0.1251
							c-0.0976,0.0266-0.2222,0.089-0.1989,0.05c0.5676-0.3056,0.6067-0.4249,1.2504-0.8308
							c-0.5596,0.2851-0.7042,0.2924-1.2482,0.5112c0.0924-0.1649,0.3566-0.2052,0.6548-0.3768
							c-0.0387,0.0364-0.1008,0.0725-0.0016,0.0434c0.1007-0.0703,0.1987-0.1447,0.2952-0.2211
							c0.6961-0.3508-0.0099,0.1797,0.5728-0.0994c0.4284-0.1547,0.4932-0.3632,0.8102-0.5011
							c-0.025,0.0047-0.0514,0.0096-0.0707,0.0132c0.0649-0.038,0.1112-0.0653,0.1467-0.0861l-0.0087-0.0028
							c0.3352-0.2433,0.7103-0.4832,0.7579-0.6183c0.0559,0.0034,0.2882-0.2185,0.3831-0.316
							c0.1667-0.163,0.5509-0.5609,0.8934-0.679l-0.0196,0.0165c0.4131-0.3048,0.7419-0.5362,0.6845-0.432l0.6517-0.5167
							l-0.0007,0.1347c0.5502-0.5245,0.4538-0.5192,0.7605-0.9499c0.218-0.1634,0.4862-0.4228,0.7255-0.6785
							c0.1325-0.1503,0.2615-0.2966,0.376-0.4266c0.1334-0.1557,0.269-0.2807,0.1772-0.4176
							c-0.0109-0.0786-0.0355-0.2023-0.0826-0.4027l0.0435,0.4142c-0.041-0.1891-0.0702-0.3237-0.0936-0.4317
							c-0.0227-0.0753-0.0396-0.1312-0.0553-0.1834c-0.0335-0.0985-0.0625-0.1726-0.1015-0.3609
							c0.0069,0.0802,0.0035,0.0924-0.0243-0.1212c-0.011-0.064-0.0228-0.1333-0.0373-0.2178
							c0.0145,0.0168,0.0303,0.1017,0.0425,0.1871l0.0189-0.0756c0.011-0.4783-0.2042-0.6879-0.268-1.1831
							c0.0125,0.0473,0.0329,0.1245,0.0457,0.1728c-0.03-0.2797,0.0291-0.7024-0.0799-0.7983
							c-0.0021-0.0656-0.0393-0.1586-0.08-0.2483L73.87,39.395c0.0106,0.0824,0.0188,0.1469,0.0259,0.2022
							c-0.0543-0.1195-0.114-0.2311-0.0962-0.2515l-0.1269-0.7044c-0.0132-0.1359-0.0627-0.3137-0.1067-0.4569l0.0166-0.1276
							c-0.0589-0.2542-0.0349-0.2612-0.0173-0.2332c-0.0403-0.9162-0.3559-1.3558-0.4299-2.3396
							c-0.1063-0.1686-0.0557,0.2338-0.0863,0.2717c-0.0836-0.1385-0.2438-0.6767-0.3378-0.9435
							c0.0068-0.446-0.1795-1.7722,0.0005-1.5903c-0.1523-0.7917-0.0335,0.2635-0.1623-0.1222l-0.0133-0.0917
							c0.0404,0.276,0.0376,0.4989,0.0165,0.663c-0.0614,0.075-0.2268-0.6179-0.2496-0.8354l0.1361,0.1279
							c-0.1871-0.7207-0.3135-0.5361-0.5123-0.9678c-0.078-0.5884,0.0861-0.2743,0.1549-0.4162L71.93,30.9757l0.079-0.0163
							c-0.1026-0.3913-0.1952-0.4682-0.2773-1.0225c0.156,0.3806-0.0961-0.8371,0.1169-0.3103
							c-0.0363-0.3094-0.207-0.3661-0.1339-0.5432c-0.1278-0.1939,0.0144,0.2817,0.0196,0.4408
							c-0.0953,0.1491-0.1959-0.6565-0.3027-1.015c0.0562-0.0437,0.124,0.2285,0.077-0.2101
							c-0.0656-0.0784-0.1588-0.3443-0.1512-0.6002c-0.0788,0.0163-0.1165-0.4844-0.162-0.7291
							c0.0412,0.2776,0.0652,0.6855-0.04,0.5204c-0.0756-0.2067-0.1294-0.3873-0.2191-0.8757l0.0322,0.3423
							c-0.2034-0.4008-0.061-0.7184-0.2171-1.2892c0.0977,0.2339,0.1292,0.3864,0.2307,0.5871
							c-0.0933-0.2657-0.2578-0.772-0.3825-1.1904l0.0145-0.5114c-0.0703-0.0488-0.108-0.5494-0.1868-0.5331
							c-0.0723-0.6175,0.1954,0.4681,0.2658,0.5169c-0.1049-0.7722-0.2572-0.5825-0.2873-1.3376l0.1236,0.2274
							c-0.0448-0.2436-0.1875-0.7226-0.1569-0.7607c-0.0265,0.0055,0.0093,0.1255,0.0407,0.2775
							c-0.1887-0.117-0.3422-1.101-0.4866-0.9768l0.0587,0.3379c-0.1377-0.5081-0.3238-0.8518-0.348-1.2593
							c-0.0103-0.3151,0.1544,0.1904,0.2338,0.3621c-0.0895-0.4867-0.26-0.3566-0.3637-0.9386
							c0.0365,0.3096-0.0335,0.2635-0.113,0.0897c0.0585,0.3369,0.1715,1.0421,0.2146,0.9052l-0.0092-0.1245
							c0.0484,0.0218,0.1018,0.2013,0.1417,0.2877c0.0944,0.4575-0.0297,0.2283-0.0423,0.3265
							c0.1311,0.7665,0.1757,0.0283,0.3142,0.7262l-0.0128,0.0975c0.1113,0.3267,0.2238,0.843,0.3427,0.9141
							c-0.0425,0.3267,0.2048,0.7809,0.211,1.1281c-0.2181,0.1114-0.2288-1.188-0.4369-1.5578
							c0.0279,0.375-0.1537-0.1866-0.2379-0.3287l0.3381,1.1333c-0.0126,0.0985-0.0583,0.4601,0.0692,0.6524l-0.0134-0.0917
							c0.1206,0.4521,0.19,0.3093,0.2401,0.7118c-0.0085,0.0656-0.0704-0.0483-0.0924-0.0755
							c0.0542,0.3696,0.1152,0.2931,0.1867,0.5327c0.0546,0.3695-0.1325-0.1632-0.0953,0.1471
							c0.1767,0.4049,0.117,0.6738,0.1981,1.0394c0.0991-0.1832,0.4799,1.421,0.4319,0.6056l0.2712,0.8617
							c-0.0117,0.2885-0.3088-0.5678-0.3691-0.3013l-0.1398-0.7019c-0.1393,0.1496,0.4096,1.4458,0.3231,1.9483
							c0.0701,0.3756,0.0741,0.2791,0.139,1.0047l0.1208-0.1516c0.0424,0.3745-0.0126,0.51-0.0358,0.5324
							c0.0539,0.2137,0.0902,0.4084,0.1252,0.6097c-0.0324-0.0482-0.0674-0.119-0.102-0.2478
							c-0.0238,0.2936,0.0231,0.3675,0.0861,0.4553c0.0676,0.1418,0.1095,0.37,0.1557,0.6003l-0.097-0.1961
							c0.0412,0.138,0.0925,0.3071,0.122,0.3173c0.0202,0.0954,0.0422,0.1853,0.0691,0.2701
							c0.0126-0.0669,0.0664-0.2364,0.0362-0.5737c0.1184,0.864,0.2878,1.5255,0.318,2.281
							c-0.0478-0.0187-0.1632-0.3128-0.1495-0.22c0.0542,0.3696,0.2096,0.7506,0.266,0.7044
							c0.0198,0.0831,0.0346,0.1455,0.0477,0.2005c-0.0219,0.0771-0.043,0.1708-0.0136,0.3455
							c-0.005,0.0426-0.003,0.1107,0.0181,0.2366c0.141,0.0983,0.2274,0.8102,0.3114,0.9511
							c-0.0221-0.1675-0.0648-0.3694-0.111-0.5739c0.1378,0.278,0.2803,0.5224,0.265,0.7624
							c-0.1861-0.5303-0.0004,0.6066-0.2021-0.2088c-0.0275,0.6083,0.1673,0.2798,0.2414,0.9022l0.0238,0.4075
							c-0.0967-0.0429-0.1741-0.6312-0.1868-0.5327l0.0672,0.2723c-0.1198-0.2614-0.2919-1.3055-0.518-1.9232l0.217,1.289
							c0.4328,1.591,0.7323,3.6253,1.1991,4.9552l-0.0143-0.0576c0.0131,0.0221,0.0312,0.0304,0.0672,0.043l-0.0083,0.066
							l0.1193,0.2575c-0.0098,0.1517,0.0239,0.4344,0.0195,0.5222c-0.0022,0.0314,0.0094,0.066-0.0044,0.093l-0.0835,0.0662
							c-0.0498,0.0363-0.101,0.0715-0.2155,0.1666c0.139-0.1054,0.1641-0.1129,0.1903-0.1195
							c0.0274-0.0077,0.0443-0.0022,0.0787,0.0082c0.0464,0.0752,0.0783,0.1005-0.28,0.4205
							c-0.0468-0.0395,0.1545-0.2397-0.1194-0.0331c0.1449-0.1032,0.0655,0.0376-0.0711,0.186
							c-0.2123,0.1553-0.531,0.4482-0.5783,0.4061c0.0757-0.0945,0.1615-0.1448,0.2255-0.1955
							c0.0761-0.0935-0.3914,0.2956-0.1675,0.0149l-0.3282,0.3327c-0.2359,0.1461,0.0786-0.1816-0.0241-0.1327
							c-0.5411,0.5544-0.7522,0.9194-1.2694,1.4034c0.0049-0.0464-0.0759-0.1568-0.0566-0.1214
							c-0.4445,0.3081-0.8156,0.8411-1.3138,1.2108c0.0506-0.0851,0.2481-0.2062,0.3842-0.3366
							c-1.5434,1.0852-2.8788,1.8883-4.5205,2.504l-0.3626,0.3065l-0.457,0.0915c-1.7439,0.5577-3.0904,0.9757-4.823,1.0621
							c-0.5384,0.0247-0.3223-0.0905-0.5714-0.1385c-1.1591-0.0671-1.4611,0.0134-2.5683-0.2048
							c0.1634-0.005,0.4431-0.0573-0.0165-0.1833c-0.0955,0.0117-0.1697,0.0545-0.4517-0.0621l0.1597,0.006
							c-0.2429-0.145-0.5208-0.1545-1.0343-0.4149c-0.4746-0.1751-0.9071-0.4187-1.3541-0.593
							c-0.4272-0.2221-0.8313-0.4116-1.2548-0.5882c-0.7987-0.5241,0.1682-0.0718,0.0331-0.1936
							c0.5437,0.4065,0.3974,0.2255,0.5486,0.2643c-0.2941-0.1441-0.6974-0.3689-0.7916-0.5482
							c-0.4275-0.2643-0.6182-0.3905-1.0712-0.5976c0.2281,0.1043,0.3808,0.265,0.1603,0.1789
							c-0.3087-0.2806-1.2746-0.6926-1.166-0.7795c-2.1193-1.0831-4.7867-1.8544-7.3917-1.7586
							c-0.4342,0.0681,0.3319,0.0222,0.0934,0.0696c-0.6278,0.0853-0.5027-0.0392-1.0007,0.084l0.2015-0.092
							c-0.3759,0.0388-0.7606,0.1109-1.1358,0.1967c-0.3635,0.1205-0.7371,0.2444-1.0752,0.3564
							c0.0968-0.1078-0.5959,0.078-0.0211-0.1085c-0.3398,0.0875-0.8519-0.0897-1.1015,0.0575l0.4846,0.185
							c-0.0094,0.0363-0.4878,0.1686-0.4336,0.1739c-0.3192,0.021-0.6923,0.1181-0.8939,0.195
							c-0.1282-0.0318,0.378-0.2345,0.6593-0.3311c-0.0094-0.1613-0.9669,0.2995-0.6121,0.0137
							c-0.5894,0.2682,0.1114,0.0296-0.2251,0.2237c-0.1762,0.0634-0.3555,0.121-0.5247,0.2014
							c0.1342-0.0545,0.2731-0.0979,0.4133-0.1373c-0.4165,0.2171-0.4999,0.4022-1.0922,0.6077l-0.4861,0.4413
							c-0.0381-0.0394-0.1995,0.0478-0.2458,0.0848c-0.0407,0.0338-0.0962,0.09-0.1479,0.1097
							c0.0208-0.0416,0.0373-0.0803,0.0493-0.116c-0.1091,0.0755-0.1405,0.0819-0.1625,0.05
							c0.0808-0.1738,0.0541-0.0133,0.0903-0.1476c-0.0139-0.0022-0.0231-0.008-0.0275-0.0174
							c-0.0277,0.0931-0.1203,0.2229-0.0795,0.234c-0.0526,0.0851-0.1119,0.1772-0.1841,0.2715
							c-0.0942,0.1487-0.0777,0.0389-0.1045-0.0098c-0.0148-0.0737-0.0198-0.2027-0.0119-0.3853
							c0.1112-0.2573,0.0884,0.1673,0.1964-0.0214c0.0133-0.084,0.003-0.1287-0.0188-0.1841
							c-0.0116-0.0013-0.0232-0.115-0.0373-0.193l-0.046-0.2274c-0.0645-0.2854-0.1345-0.5129-0.1198-0.8396
							c0.0641-0.832-0.0335-0.7867-0.0185-1.6319c0.0642,0.2703,0.0914-0.5887,0.1631-0.7421l0.0652,0.3354
							c-0.0155-0.2574,0.0188-0.5033,0.0687-0.426c-0.0974,0.0451-0.0617-1.0983-0.0925-1.6816l-0.0847,0.0996
							c-0.0157-0.4561-0.0512-1.088-0.0176-1.5701c-0.0079-0.7186-0.0848-0.5572-0.16-1.1127
							c0.0821-0.3037,0.1686-0.2679,0.2557-0.1638c-0.0469,0.1911-0.0307,0.5172-0.0642,0.8327
							c0.0474,0.9094,0.2023,1.6197,0.139,2.5238c0.1887,0.398-0.0074-0.6114,0.0739-1.0495
							c0.0116,0.0133,0.0146,0.0453,0.0157,0.0789c0.003-0.0384,0.0055-0.0705,0.0086-0.1101
							c0.016,0.3253,0.034,0.855,0.1333,0.9456c-0.0065-0.5436-0.1884-0.3987-0.0857-1.0713
							c-0.0427-0.5017,0.1244-0.905,0.146-1.207c-0.0658-0.335-0.225-0.3533-0.1731-1.1721l0.1022,0.3619
							c0.0262-0.9273-0.152-0.4395-0.1249-1.2982c-0.021,0.3017-0.1019-0.2947-0.1197,0.2793
							c-0.0522-0.2837-0.0474-0.9094-0.0032-1.3748c-0.0139-0.122-0.0372-0.0264-0.0745-0.0497
							c-0.0907,0.5145,0.0543,0.8181-0.068,1.239l0.1108,0.3621c-0.0559,0.479-0.1537,0.5253-0.1935,0.23
							c0.0015,0.1356,0.015,0.2547-0.0085,0.3529c-0.183,0.0774,0.0792-0.5748-0.0699-0.7452l0.0042,0.3395
							c-0.1211,0.144-0.0827-0.7948-0.0632-1.2318c0.0678-0.4932,0.0996-0.9453,0.1854-0.9767l0.0194,0.6651
							c0.0768-0.3426-0.0181-0.8491-0.0047-1.2355c0.0123-0.0252,0.022-0.0621,0.0292-0.1071
							c-0.008,0.0196-0.016,0.0307-0.0243,0.0305c0.0063-0.0819,0.0186-0.1547,0.0406-0.2167
							c0.0131-0.3391-0.026-0.8382,0.0093-1.1532l-0.0769,0.0373l0.0416,0.0438c-0.011,0.3105-0.0685,0.7303-0.1192,0.494
							c-0.0347-0.7016,0.1152-0.8392,0.1856-1.0042c0.1123,0.1641-0.0187,0.6835,0.0119,1.0407
							c0.1205-0.2115,0.0304-0.7119,0.1252-1.4335c0.1189,0.2915-0.0235,0.8389,0.0889,1.001
							c0.0366-0.5823-0.0492-0.737-0.0013-1.3494c0.0565,0.0799,0.0466,0.6776,0.1228,0.6403l0.0462-0.3927
							c-0.0176,0.9668,0.1614-0.1653,0.1728,0.5894c0.061-0.3543-0.0902-0.4993,0.0028-1.0031
							c-0.0586,0.1395-0.1692,0.5411-0.2061,0.0558l0.0513-0.5466c0.0669-0.2273,0.1197,0.5743,0.1804,0.2192l-0.0283-0.5741
							c-0.0381,0.0184-0.0641,0.2924-0.1115,0.1188c0.0491-0.33-0.1313-0.5468-0.1771-0.9382
							c0.011-0.3105,0.0252-0.5568,0.072-0.6655c-0.0913-0.7854-0.0618-1.7774-0.1491-2.5015
							c0.0629,0.4941,0.1293-0.0161,0.1937-0.3089c0.0013,0.5668,0.1194,0.574,0.1961,0.5368
							c-0.0038-0.3452-0.1197-0.574-0.1637-0.4008c0.0632-0.5747-0.0717-0.3996,0.0209-0.9034
							c0.0493-0.3268,0.1124,0.167,0.1598,0.0551c0.0214-0.6221-0.1392-0.173-0.094-0.848c0.0148,0.0374,0.018,0.0991,0.0413,0.0462
							c0.0343-0.3643-0.0112-0.7582-0.0677-0.8381c0.1639-0.384,0.0116-1.0945,0.1592-1.0144
							c-0.0174-0.8831-0.0852,0.1293-0.133-0.0461c-0.0571-0.3627,0.0146-1.0294,0.0437-1.2372
							c-0.0023,0.2176,0.0335,0.4186,0.0048,0.6278l0.1088-0.1834c0.1024-1.0958-0.2174-0.7021-0.0999-1.7599
							c0.0402,0.5475,0.0741,0.1835,0.1404,0.4564c-0.0218-0.1649,0.0288-0.9945-0.0636-0.4941
							c0.019-0.3983,0.0448-0.674,0.0708-0.9481c-0.0308-0.3547-0.0498-0.739-0.1124-0.9467
							c0.0251-0.5573,0.1096-0.9681,0.1618-1.2331c-0.045-1.1745,0.1112-2.2537,0.0631-3.4908l-0.0086,0.091
							c0.0387-0.7542-0.1434,0.1964-0.1236-0.4253c0.0782,0.0574,0.1668-0.0818,0.5895-0.2731
							c1.0132-0.5793,1.7157-1.1272,2.7464-1.3787c-0.0005,0.0258-0.0551,0.0748-0.2437,0.1501
							c0.7609-0.2206,1.3773-0.3588,2.0119-0.2958l-0.0284,0.0116c0.5123,0.0709,0.8836,0.2878,1.2509,0.552
							c0.3043,0.2405,0.7907,0.8513,1.2602,1.2841c-0.0868-0.068-0.1411-0.0555-0.2121-0.1057
							c0.441,0.5267,1.2533,1.2543,1.7018,1.4416c0.5562,0.5842,0.4351,0.2949,1.2054,0.973
							c0.0363,0.0514-0.0959-0.0392-0.1549-0.0731c0.3925,0.3172,0.7012,0.4967,1.1286,0.7696
							c0.492,0.2482,0.8251,0.3591,1.1658,0.4912c0.1701,0.0665,0.345,0.1331,0.5441,0.2227
							c0.2236,0.1044,0.4717,0.2203,0.7863,0.3672c0.0278,0.0042,0.0645,0.0098,0.1018,0.0155
							c0.0148,0.0365-0.0273,0.054-0.1217,0.0569c-0.1939-0.0509-0.3614-0.1305-0.5069-0.193
							c-0.1523-0.0669-0.2881-0.121-0.3234-0.0766c0.1156,0.042,0.2255,0.0819,0.3354,0.1219
							c0.136,0.0542,0.1736,0.075,0.4746,0.2215c0.0386,0.0073,0.0863,0.0163,0.1365,0.0258
							c-0.127,0.0097-0.1832,0.0036-0.1501,0.0234c-0.1125-0.0296-0.0312,0.0092-0.2241-0.0295
							c0.0537,0.0303,0.1243,0.0626,0.2055,0.0971c0.0822,0.0086,0.1721,0.0184,0.2717,0.0214
							c0.0638,0.0011,0.1158-0.0029,0.1756-0.0073c0.1175-0.0075,0.2361-0.0249,0.3429-0.0419
							c0.2142-0.0323,0.3774-0.0761,0.3754-0.0671c0.0152-0.0347-0.0798-0.0494-0.3438-0.0542
							c0.3142-0.086,1.3027-0.0027,1.9333-0.1309c-0.2064,0.0253-0.8566,0.0383-0.6193-0.0627
							c0.8494-0.0354,1.1081-0.2438,1.6655-0.423c0.7734-0.0735-0.5298,0.2558-0.3716,0.3412
							c0.1362,0.0255,0.4662,0.0547,0.1478,0.1668c0.7077-0.1085,1.1874-0.3243,1.7796-0.546l-0.0063,0.0377
							c0.8435-0.2872,1.6515-0.7868,2.3211-1.0963l-0.3642,0.1498c0.1154-0.09,0.5194-0.2771,0.6871-0.4705
							c0.006,0.0638,0.5194-0.198,0.3454-0.0333c0.0579-0.0896,0.1925-0.2117,0.355-0.3363
							c0.1636-0.1099,0.3442-0.2313,0.5275-0.3545c0.3917-0.2184,0.8185-0.4022,0.9918-0.5291
							c0.2222-0.0036,0.0717,0.1066,0.0214,0.1604c-0.476,0.1297-0.6426,0.18-0.8576,0.3299
							c0.3838-0.1457,0.6769-0.2092,0.6312-0.1469c0.165-0.1407,0.5069-0.2246,0.8142-0.3472
							c0.316-0.0911,0.6196-0.1489,0.7219-0.2212c0.3151,0.0247,0.6125,0.0789,0.5042,0.1663
							c1.3066-0.0465-0.6523-0.3233,0.8453-0.2595c0.6736,0.1509-0.6733,0.0661,0.2603,0.1789l-0.1737-0.0001
							c0.642,0.2988,0.4907-0.1159,1.2629,0.0148c0.0748,0.145-0.5473-0.0032-0.0429,0.1851
							c0.6917,0.1193,1.0496,0.0068,1.7202,0.268l-0.1237,0.0179c0.4407,0.1245,1.2603,0.4681,1.6787,0.6449
							c0.0092,0.0325-0.0497,0.0021-0.1327-0.0245c0.7431,0.3906,0.3542,0.0776,0.9257,0.4629l0.2003,0.0332
							c-0.27-0.2035-0.8587-0.5557-1.2944-0.6491c0.4382,0.097-0.5749-0.418-0.3341-0.4375l-0.0989,0.011
							c-1.0138-0.6028-2.4834-1.0513-3.9928-1.2252c-0.9497,0.107-1.6497-0.0944-2.649,0.2711
							c-0.1168,0.1805-0.1813,0.0682-1.0019,0.4183c0.438-0.1722-0.0064-0.1598-0.2754-0.0072
							c-0.1365,0.1231-0.3153,0.2416-0.4939,0.3601c-0.1931,0.0521-1.1202,0.4972-1.422,0.7491
							c-0.4662,0.1922,0.0818-0.0998,0.1624-0.1797c-0.2169,0.023-0.3285,0.2537-0.5074,0.2688c0,0,0.0001-0.0185,0.0445-0.0469
							c-0.6934,0.3236-1.1337,0.4602-1.9002,0.6663c-0.0195,0.1692-0.7415,0.2634-1.0812,0.3739
							c0.1041-0.0676-0.4522,0.0307-0.681,0.027c-0.1352,0.0605-0.2726,0.1136-0.4115,0.1644
							c-0.4164,0.1387-0.5953-0.0101-1.1396,0.053l0.1331,0.0243c-0.133,0.0207-0.3381,0.0199-0.5658,0.0063
							c-0.1113-0.012-0.2295-0.0247-0.3497-0.0377c-0.1202-0.0173-0.2441-0.0384-0.2759-0.0561
							c-0.0289-0.0257-0.1407-0.0914-0.2238-0.1464c-0.0837-0.0541-0.155-0.1048-0.2092-0.1471
							c-1.7449-0.703-2.9689-1.5523-4.07-2.5161c-0.544-0.4915-1.0573-1.0191-1.5522-1.623
							c-0.1222-0.155-0.2464-0.3126-0.3732-0.4735c-0.1728-0.1898-0.3502-0.3874-0.5463-0.5741
							c-0.2316-0.1468-0.4603-0.3279-0.7265-0.4391c-0.273-0.0891-0.5528-0.223-0.8503-0.2366
							c-0.3106,0.0023,0.2081,0.1075-0.0394,0.1409c-0.4649-0.06-0.564-0.0394-0.9765-0.0275
							c0.3653,0.0294,0.3049-0.0188,0.2596,0.0246c0.2076-0.0313,0.4201-0.0298,0.6376-0.0053
							c0.0294,0.0154-0.0417,0.0101,0.016,0.0401c0.2172,0.0002,0.475,0.0389,0.7414,0.1548
							c-0.402-0.1143-0.5269-0.0158-1.0491-0.1232c0.0417-0.0101,0.1105-0.006,0.2518,0.0037
							c-0.4413-0.0803-0.4585,0.0211-0.7849-0.0121c-0.3994-0.0093-0.2928,0.0435-0.3511-0.0073
							c-0.4103,0.0305-0.805,0.115-1.1985,0.2098c-0.5215,0.3182-1.2286,0.4943-1.4043,0.5786
							c0.0677-0.1541,0.6957-0.3665,0.9432-0.555c-0.147,0.0257-0.293,0.0554-0.4338,0.0947l0.0082,0.0846
							c-0.1894,0.0791-0.3862,0.1479-0.5688,0.2387l0.0238-0.0296c-0.0509,0.0614-0.1033,0.1233-0.2554,0.1699
							c-0.0287,0.0022-0.0923,0.01-0.0336-0.0253c-0.1248,0.0778-0.2439,0.1628-0.3624,0.2481
							c0.1794-0.1983-0.3446,0.1676-0.3386,0.0537c-0.311,0.1751-0.5569,0.3332-0.7646,0.4845
							c-0.1176,0.0884-0.2279,0.1714-0.3343,0.2514c-0.1522,0.1227-0.2983,0.2405-0.4421,0.3564
							c-0.0937,0.2933-0.0341,0.819-0.0595,0.9574c-0.0083,0.2244-0.0282,0.4719-0.0688,0.7706
							c0.0504-0.1935,0.1422,0.3838,0.1151,0.7517c-0.029,0.2121-0.0522,0.2652-0.0855,0.1293l0.0369,0.4843
							c-0.1659,0.6013-0.0844,1.1944-0.1585,2.0799l-0.0413-0.047c0.0417,0.3298,0.0726,0.6847,0.0443,1.1782l-0.0824-0.0922
							c-0.0752,0.6022,0.1663,0.4656,0.0949,1.1309c0.0913-0.0013,0.1489-0.42,0.2371-0.4829
							c-0.0967,0.1549-0.129,0.8703-0.0587,0.7053c0.0201,0.6654-0.0142,0.4605-0.0377,0.5168l0.0455,0.3916
							c-0.0164,0.4666-0.1234,0.1463-0.1711-0.0274c0.087,0.4378,0.0056,0.9105-0.0226,1.4043l-0.0358-0.2013l-0.0333,0.6499
							c0.0603,0.4258,0.0503,1.0198-0.0013,1.5664l-0.1103-0.3813c-0.0725,0.3827,0.0364,0.1989,0.0542,0.3011
							c0.043,0.6088-0.0419,0.7371-0.1179,1.0565C35.1599,27.2688,34.8129,28.225,34.9716,29.063z M73.5564,38.0622l0.0006,0.0918
							C73.4956,37.9589,73.4531,37.8493,73.5564,38.0622z M74.1277,43.4194c0.5297-0.6204,0.3719-0.4213,0.4455-0.4605
							c-0.0936,0.1745-0.2675,0.2993-0.3763,0.4306c-0.0951,0.0979-0.1829,0.1882-0.269,0.2768
							c-0.168,0.1717-0.3329,0.3334-0.5498,0.516c0.0817-0.0462,0.1168-0.0353,0.1517-0.0414
							c-0.1649,0.155-0.3503,0.2881-0.4473,0.2972C73.2118,44.1725,74.3765,43.2712,74.1277,43.4194z M71.59,31.6379l0.0415,0.0686
							l0.0007,0.0035L71.59,31.6379z M72.3383,34.7365c-0.0163,0.0496-0.0142,0.1296-0.0043,0.2257
							C72.3536,34.8979,72.3681,34.8367,72.3383,34.7365z M73.4741,40.9774c-0.0196,0.1538,0.0628,0.4779,0.1233,0.7136
							C73.5798,41.5784,73.5537,41.3755,73.4741,40.9774z M39.7491,45.2782c0.1812-0.0782,0.5224-0.2396,0.1883-0.1717
							c-0.1429,0.0908-0.4663,0.1156-0.5769,0.2201c-0.0182,0.0026-0.0225,0.0032-0.0341,0.0048
							C39.5282,45.3098,39.6928,45.2936,39.7491,45.2782z M35.5014,34.5317c0.0485,0.0359,0.0985,0.1786,0.1383,0.0887
							c-0.0016,0.0162-0.0036,0.036-0.0053,0.0537c0.018-0.0473,0.033-0.0872,0.0429-0.0499
							c0.0138-0.1527,0.0298-0.3132,0.0183-0.4213C35.5357,34.1473,35.5183,33.823,35.5014,34.5317z"/>
						<path class="st0" d="M36.002,40.8287c0.0003-0.0732,0.0005-0.1288,0.0007-0.175
							C36.0025,40.7013,36.0023,40.7555,36.002,40.8287z"/>
						<path class="st0" d="M35.6941,34.234c-0.0098-0.014-0.0305,0.1662-0.0544,0.3864
							C35.6609,34.576,35.6798,34.4688,35.6941,34.234z"/>
						<path class="st0" d="M70.0286,21.3745l0.0535,0.1792l-0.0279-0.375c-0.1783-0.5983-0.253-0.6147-0.3629-0.7482
							c0.1864,0.5306,0.2184,0.8725,0.3844,1.569L70.0286,21.3745z"/>
						<path class="st0" d="M69.5669,21.7923c-0.0083,0.0657-0.0297,0.2292-0.016,0.3217l0.0665,0.0807L69.5669,21.7923z"/>
						<path class="st0" d="M70.8249,29.0551l-0.0773-0.5869C70.668,28.2941,70.7325,28.98,70.8249,29.0551z"/>
						<path class="st0" d="M71.1268,26.3173l-0.1155-0.2929c0.0142,0.2817,0.0951,0.6472,0.1653,0.6951
							C71.0696,26.3608,71.1897,26.6222,71.1268,26.3173z"/>
						<path class="st0" d="M71.1353,30.611c0.132,0.1608,0.0773,0.5874,0.1913,0.688C71.2691,31.1524,71.236,30.6198,71.1353,30.611
							z"/>
						<path class="st0" d="M71.9515,30.019c0.0517-0.2019-0.0901-0.4895-0.1446-0.8601
							C71.8699,29.4639,71.8633,29.9098,71.9515,30.019z"/>
						<path class="st0" d="M72.0436,33.6564c-0.0738-0.0155-0.1194-0.2605-0.1601-0.5379c0.0399,0.0874,0.0838,0.1412,0.1196,0.2612
							c-0.1468-0.4456-0.1427-0.479-0.2496-0.8377c0.0279,0.375,0.1102,0.9303,0.0138,0.8888
							C71.8865,33.6888,72.0503,34.0053,72.0436,33.6564z"/>
						<path class="st0" d="M72.1441,30.8972c-0.0366-0.3104-0.0117-0.506-0.0923-0.8701c-0.0342,0.0731-0.0777,0.2087,0.0214,0.6332
							l-0.1103-0.136C71.9867,30.9322,72.0356,30.3474,72.1441,30.8972z"/>
						<path class="st0" d="M72.2063,35.3703l-0.0014-0.1912c-0.1511-0.4134-0.2325-0.9674-0.3822-1.1873
							C71.9342,34.5056,72.1087,35.1365,72.2063,35.3703z"/>
						<path class="st0" d="M72.3058,32.4223l0.1222,0.0351c-0.0724-0.4289-0.0307,0.0384-0.0882-0.1085
							c-0.0092-0.1248-0.0368-0.3096-0.0762-0.3946C72.3798,32.4355,72.1809,32.0039,72.3058,32.4223z"/>
						<path class="st0" d="M72.7157,33.7955l0.1597,0.5358l0.0327-0.4513C72.7342,33.2494,72.8333,33.8636,72.7157,33.7955z"/>
						<path class="st0" d="M72.7804,34.4815l-0.0086,0.0653l0.332,0.7852C72.935,34.8584,72.9392,34.8265,72.7804,34.4815z"/>
						<path class="st0" d="M72.8149,43.6917c-0.0326,0.1,0.3547-0.1935,0.1695-0.0882
							C73.0244,43.5123,72.5157,43.9095,72.8149,43.6917z"/>
						<path class="st0" d="M74.5927,42.4233c0.0087,0.0898,0.0361,0.227,0.0694,0.3912c-0.0034,0.0767,0.0817,0.184,0.0119,0.2534
							c-0.0604,0.0718-0.1239,0.1472-0.1887,0.2241c-0.1957,0.2349-0.4066,0.488-0.5366,0.644
							c0.1745-0.1899,0.4679-0.5091,0.7162-0.7793c0.0313-0.0451,0.0903-0.0815,0.0952-0.1307
							c-0.0113-0.0534-0.0223-0.1048-0.0327-0.1538c-0.0224-0.0961-0.0424-0.182-0.0595-0.255
							C74.6312,42.4752,74.6044,42.3989,74.5927,42.4233z"/>
						<path class="st0" d="M73.8578,44.046c0.0183-0.0222,0.0519-0.0628,0.0909-0.11
							C73.9062,43.9836,73.8767,44.0188,73.8578,44.046z"/>
						<path class="st0" d="M61.1819,51.1662c-0.0386,0.0055-0.0762,0.0128-0.1082,0.024
							C61.1116,51.1817,61.1428,51.1748,61.1819,51.1662z"/>
						<path class="st0" d="M61.539,51.1009c0.2451-0.0145,0.7168-0.1339,0.7891-0.1971c-0.3728,0.0877-0.7009,0.173-1.1463,0.2624
							C61.3499,51.1431,61.5617,51.1578,61.539,51.1009z"/>
						<path class="st0" d="M58.0563,51.0616c0.1847-0.0058,0.4292,0.043,0.3725-0.0121
							C58.3304,51.0152,57.9417,51.0131,58.0563,51.0616z"/>
						<path class="st0" d="M37.047,45.9849c-0.3067,0.1352-0.4618,0.2605-0.3501,0.2731
							C37.0189,46.0705,36.8181,46.1289,37.047,45.9849z"/>
						<path class="st0" d="M36.3369,46.4876l-0.0572-0.0069c-0.0951,0.035-0.0886,0.0119-0.1105,0.0045
							c0.0117,0.01,0.0251,0.0187,0.0404,0.0263C36.2361,46.5127,36.2957,46.4949,36.3369,46.4876z"/>
						<path class="st0" d="M36.0108,46.5391c0.0083-0.0096,0.0202-0.0235,0.0316-0.0367
							C36.0325,46.5098,36.0227,46.5116,36.0108,46.5391z"/>
						<path class="st0" d="M36.0469,46.4993l-0.0045,0.0031L36.0469,46.4993z"/>
						<path class="st0" d="M36.0231,46.5527l0.0394-0.0712c-0.0057,0.009-0.0106,0.0138-0.0156,0.0178
							C36.0469,46.4993,36.0441,46.5119,36.0231,46.5527z"/>
						<path class="st0" d="M36.0256,46.4558c-0.0368,0.0395-0.0741,0.0971-0.1118,0.1728c0.0527,0.0023,0.0586-0.138,0.1747-0.21
							C36.0673,46.4398,36.0464,46.4522,36.0256,46.4558z"/>
						<path class="st0" d="M36.0187,45.5633c0.0451-0.3973-0.1087-0.9757,0.0237-1.1982c-0.0373-1.1294-0.2181,0.2549-0.2328-1.0365
							c-0.0968,1.2179,0.2281,0.6263,0.1299,1.7069C36.0315,44.5145,35.9928,45.388,36.0187,45.5633z"/>
						<path class="st0" d="M35.8006,45.75c0.0618,0.0663,0.0805-0.4391,0.0423-0.5978
							C35.8321,45.2991,35.7367,45.5504,35.8006,45.75z"/>
						<polygon class="st0" points="36.0185,43.3578 36.0763,43.0142 36.0379,42.9227 						"/>
						<path class="st0" d="M36.0776,42.0506l0.0649,0.3375C36.1166,42.2768,36.1353,41.7738,36.0776,42.0506z"/>
						<path class="st0" d="M36.2163,40.2317c0.0331-0.3151-0.1296-0.6057-0.1097,0.0623l0.0105-0.1518
							C36.1424,40.1822,36.2116,39.8247,36.2163,40.2317z"/>
						<path class="st0" d="M36.0577,36.0114c-0.0093,0.2175,0.0058,0.4749,0.0422,0.4306l-0.0192-0.5969L36.0577,36.0114z"/>
						<path class="st0" d="M35.6419,36.0887c-0.1085,0.1976-0.006,0.5591-0.0504,0.9542
							C35.6232,36.5937,35.6359,36.6478,35.6419,36.0887z"/>
						<path class="st0" d="M36.2221,35.3343c0.0384,0.1619,0.0046,0.4102-0.0062,0.5595
							C36.2767,35.8223,36.2721,35.4121,36.2221,35.3343z"/>
						<path class="st0" d="M36.2111,34.3832c0.0469-0.1936,0.0568,0.0442,0.089-0.102c0.0575-0.4168,0.0626-0.8557,0.0116-1.0945
							c-0.0469,0.109-0.1704,0.2561-0.2179,0.0823c0.0193,0.668,0.2022,1.0142,0.0464,1.3354l0.1658,0.5617
							C36.349,34.6334,36.1907,34.753,36.2111,34.3832z"/>
						<path class="st0" d="M35.834,35.7228l0.0695-0.3557c-0.0604,0.07-0.0637-0.2013-0.078-0.3915
							C35.6913,35.0658,35.8314,35.5187,35.834,35.7228z"/>
						<polygon class="st0" points="36.227,30.6822 36.2161,29.9233 36.2023,30.1697 						"/>
						<polygon class="st0" points="36.2817,30.1973 36.3203,30.1784 36.2653,29.5969 						"/>
						<polygon class="st0" points="36.3471,29.4043 36.3388,29.4938 36.3605,29.9408 						"/>
						<path class="st0" d="M36.4134,27.8246l-0.0589,0.1378c0.0096,0.1923-0.0626,0.575,0.0135,0.5402
							C36.3468,28.3352,36.3663,27.9369,36.4134,27.8246z"/>
						<path class="st0" d="M35.1369,22.5531c0.0333,0.138,0.0678,0.0569,0.1031-0.0246l-0.089-0.2201
							C35.1541,22.3732,35.1601,22.501,35.1369,22.5531z"/>
						<path class="st0" d="M35.3142,21.6421l-0.0935-0.5652c-0.0333,0.6476,0.0493,0.7402,0.0514,1.3054
							c0.0403-0.2386-0.0282-0.5751,0.009-0.8768L35.3142,21.6421z"/>
						<path class="st0" d="M38.8963,11.6355c-0.0221,0.0867,0.0907,0.0176-0.2886,0.2367c0.529-0.279,1.0269-0.441,1.7165-0.5924
							c-0.1301-0.0231,0.3893-0.185,0.1184-0.1216c-0.2677,0.0476-0.5163,0.134-0.7646,0.2183l0.1013-0.077
							C39.2255,11.3943,39.4582,11.4776,38.8963,11.6355z"/>
						<path class="st0" d="M65.6832,15.2739c-0.0742,0.0138,0.0008,0.067,0.075,0.1199
							C66.1802,15.4833,65.5998,15.2527,65.6832,15.2739z"/>
					</g>
				</g>
			</g>
		</g>
	</g>
	<g>
		<g>
			<g>
				<g>
					<g>
						<path class="st0" d="M50.2962,22.5061c-0.1069-0.0664-0.0208,0.0361,0.0148,0.1404L50.2962,22.5061z"/>
						<path class="st0" d="M50.311,22.6465l0.0102,0.0994C50.3294,22.717,50.323,22.6823,50.311,22.6465z"/>
						<path class="st0" d="M50.4675,23.5581c-0.1175-0.1901-0.0831-0.4585-0.2186-0.5623
							C50.2368,23.2189,50.3403,23.5342,50.4675,23.5581z"/>
						<polygon class="st0" points="50.4604,23.232 50.3973,23.2197 50.5295,23.3793 						"/>
						<polygon class="st0" points="50.4814,23.0901 50.4668,23.1211 50.5929,23.39 						"/>
						<path class="st0" d="M50.5944,24.2659l-0.0656-0.2031c0.031-0.2124,0.1353,0.1029,0.1563-0.0392
							c-0.0627-0.2581-0.1833-0.05-0.2354-0.379c-0.0669,0.0434,0.125,0.5166-0.0024,0.4923
							C50.4765,24.417,50.5184,24.1339,50.5944,24.2659z"/>
						<path class="st0" d="M46.3915,29.8124C46.3938,29.818,46.4,29.8243,46.4,29.8243
							C46.4001,29.8116,46.3992,29.8024,46.3915,29.8124z"/>
						<path class="st0" d="M49.7171,30.0139c0.0485,0.0164,0.0838,0.0266,0.1723,0.0391c-0.0196-0.0138-0.0545-0.0279-0.0852-0.0395
							L49.7171,30.0139z"/>
						<path class="st0" d="M45.8734,28.3852c0.0066-0.0567,0.0118-0.1016,0.0164-0.1407
							C45.8757,28.2722,45.8674,28.3144,45.8734,28.3852z"/>
						<path class="st0" d="M56.3369,31.3913c-0.0061,0.0081-0.0108,0.0189-0.0117,0.0341l0.0048,0.0029l0.0276-0.0309
							L56.3369,31.3913z"/>
						<path class="st0" d="M51.3786,33.6967c0.0045,0.0553,0.0104,0.1094,0.0211,0.1573
							C51.3964,33.7621,51.389,33.7179,51.3786,33.6967z"/>
						<path class="st0" d="M45.7476,27.1258c0.0015,0.0194,0.0028,0.036,0.0041,0.0527c0.0018-0.0196,0.0039-0.0426,0.006-0.0661
							l-0.0103,0.0108L45.7476,27.1258z"/>
						<path class="st0" d="M48.5894,29.7573c0.0467,0.0123,0.089,0.0223,0.1255,0.025
							C48.6724,29.7689,48.6305,29.7618,48.5894,29.7573z"/>
						<path class="st0" d="M49.9243,25.6756c-0.059-0.0159-0.1094-0.0128-0.155-0.0028
							C49.806,25.6937,49.8544,25.7011,49.9243,25.6756z"/>
						<path class="st0" d="M48.6729,25.5805l0.0074,0C48.6742,25.5658,48.6703,25.5685,48.6729,25.5805z"/>
						<path class="st0" d="M47.8746,25.5012c0.0058-0.0007,0.0144-0.0018,0.0144-0.0018
							C47.8807,25.4885,47.8759,25.4861,47.8746,25.5012z"/>
						<path class="st0" d="M49.7693,25.6728c-0.0995-0.0554-0.1177-0.2075-0.2653-0.055l0.0247,0.0243
							c-0.077-0.0443-0.201,0.0098-0.2943,0.007c0.0081,0.0165,0.018,0.0301,0.0303,0.0428
							c0.0446,0.0076,0.104,0.0178,0.2021,0.0346C49.5768,25.7706,49.6569,25.6986,49.7693,25.6728z"/>
						<path class="st0" d="M46.3709,29.8411C46.3805,29.8115,46.3333,29.8231,46.3709,29.8411L46.3709,29.8411z"/>
						<path class="st0" d="M46.0429,29.4761l0.0022,0.0792C46.0487,29.5287,46.0537,29.5203,46.0429,29.4761z"/>
						<path class="st0" d="M45.8505,25.9877l-0.0175-0.0082C45.8459,25.9977,45.8523,25.9957,45.8505,25.9877z"/>
						<path class="st0" d="M46.0495,29.6177l-0.0044-0.0624C46.0411,29.5753,46.0387,29.597,46.0495,29.6177z"/>
						<path class="st0" d="M45.7345,26.6405c-0.001,0.0061-0.0028,0.0171-0.0028,0.0171S45.7346,26.6474,45.7345,26.6405z"/>
						<path class="st0" d="M56.328,26.1276c0.0148,0.0019-0.0225,0.0347-0.0305,0.0602c0.0983-0.0621-0.0074-0.0483,0.0841-0.0839
							c0,0-0.0154-0.0004-0.031,0.0002c-0.0311,0.018-0.0614,0.0405-0.0907,0.0673C56.302,26.178,56.2873,26.1335,56.328,26.1276z"
							/>
						<path class="st0" d="M57.3309,31.6417l-0.0346-0.0105c0.0223,0.0477,0,0.0614,0.1334,0.0913
							c0.117-0.0672-0.0575-0.1809,0.1457-0.2523c-0.0389,0.0066-0.0966,0.0009-0.1507-0.0109
							C57.5044,31.5263,57.421,31.5897,57.3309,31.6417z"/>
						<path class="st0" d="M57.4246,31.4594l-0.0055-0.0056l-0.0284-0.0264c-0.0288-0.0016-0.0567-0.0063-0.0793-0.0144
							C57.3326,31.432,57.3756,31.4488,57.4246,31.4594z"/>
						<path class="st0" d="M58.1739,26.3756c0.033,0.0064,0.0625,0.0122,0.0903,0.0176
							C58.2215,26.3696,58.1948,26.3678,58.1739,26.3756z"/>
						<path class="st0" d="M50.0592,33.5182c-0.0129-0.0362-0.0263-0.0739-0.0384-0.1078
							C50.0297,33.4705,50.0436,33.4999,50.0592,33.5182z"/>
						<path class="st0" d="M55.8134,31.536c-0.0073,0.0119-0.0111,0.0286-0.0134,0.0482c0.0024,0.0143,0.0045,0.0271,0.0073,0.0438
							L55.8134,31.536z"/>
						<path class="st0" d="M61.6183,30.7072c0.0279,0.1177,0.0036-0.0093,0.0659,0.0605c-0.0019-0.0208-0.0069-0.0417-0.0152-0.0627
							C61.6379,30.6855,61.6344,30.7045,61.6183,30.7072z"/>
						<polygon class="st0" points="56.3576,26.1 56.3477,26.1042 56.3505,26.104 						"/>
						<path class="st0" d="M61.2042,28.7046c0-0.0237,0-0.0436,0-0.0638C61.2008,28.6545,61.2,28.6746,61.2042,28.7046z"/>
						<path class="st0" d="M56.6673,31.3815l-0.4465-0.0232l0.1161,0.033C56.3751,31.3351,56.6042,31.4495,56.6673,31.3815z"/>
						<path class="st0" d="M59.8068,30.5729l-0.0409-0.0723c-0.4906,0.133-1.0396-0.1033-1.4334,0.0943
							c-0.582-0.2703-0.3958,0.2086-0.9295-0.0338l0.0169,0.036c-0.8773-0.0523-1.7799-0.1061-2.678-0.1597
							c0.0349,0.8543,0.0696,1.7013,0.1034,2.5285c0.0303,0.5755,0.0747,1.1379,0.1439,1.6752l-0.0499-0.0007l0.0108,0.3874
							l0.0056,0.181l-0.0032,0.0142l-0.0085,0.0438c-1.1629-0.1204-2.3107-0.2392-3.4662-0.3588l-0.0325-0.7374
							c-0.0599-0.2454-0.1611-0.0897-0.2287-0.3003c-0.0008-0.0931-0.0187-0.3027,0.0423-0.3072
							c0.0437,0.178,0.0921,0.0736,0.1195,0.1336c-0.0233-0.2986,0.0256-0.6888-0.0641-0.951l-0.0663,0.2277
							c-0.039-0.1019-0.0258-0.2661-0.0271-0.3602c0.0426,0.0374,0.1211-0.104,0.1449-0.0239
							c-0.228-0.5519,0.0595-0.4439-0.0447-0.9134c-0.0873-0.0567-0.1707-0.1782-0.2564-0.4471
							c-0.0898-0.342-0.1736-0.6848-0.2463-0.9093l0.0021-0.0286l-0.2403-0.0607c0.3129,0.0276,0.1983-0.0564,0.3758-0.0709
							c0.0104,0.0308,0.0192,0.0999,0.0244,0.2253c0.0005-0.0946,0.001-0.1738,0.0014-0.2504
							c-0.3715-0.0426-0.7453-0.0292-1.0927-0.0813c0.0819,0.0493,0.0313,0.1003-0.1098,0.1073
							c-0.1617-0.0369-0.1688-0.1222-0.3549-0.1466l0.1889-0.0367c-0.1189-0.0735-0.2329,0.0002-0.3492,0.0004
							c-0.0315-0.0732-0.3095-0.1099-0.2534-0.1835c-0.2597,0.0739-0.3442,0.0125-0.6202,0.0498
							c0.2754,0.0979-0.0802,0.0859-0.0536,0.1468l0.3198-0.0005c-0.4436-0.085,0.1466,0,0.1232-0.1221
							c0.2058,0.0731-0.3057,0.1718,0.0484,0.1834c-0.4263,0.0247-0.5109-0.0363-0.95,0.0256
							c0.2619-0.0002-0.0563,0.0735,0.0802,0.1218c-0.3302-0.0238-0.0783-0.0488-0.1737-0.1342
							c-0.1797-0.012-0.24-0.0854-0.4128-0.0115c-0.288-0.061,0.0513-0.0858-0.0917-0.147c0.1148-0.073,0.8014,0.1707,0.7444-0.0984
							c0.152,0.0102,0.346-0.0743,0.5644-0.0502c-0.1881-0.0508-0.4539-0.1603-0.6953-0.1208l-0.0246,0.1468
							c-0.1796-0.0118-0.2252,0.0855-0.3534,0.0613c0.0723-0.0368-0.0462-0.1097-0.1916-0.11
							c0.0392,0.0245,0.0973,0.0246,0.0793,0.049c-0.2682-0.0119-0.3138,0.0858-0.6343,0.0863
							c0.2591,0.0609,0.3095,0.1098,0.5495,0.195c-0.0749,0.098-0.1743,0.0003-0.3198,0.0005
							c0.0228-0.0122,0.0532-0.0124,0.0125-0.0367l-0.158,0.0366c-0.3235-0.0728,0.0537-0.1465-0.2117-0.2196
							c-0.1051-0.0527-0.1332-0.0429-0.1555-0.0279c-0.0285,0.0145-0.0636,0.0332-0.0866,0.0065
							c0.0008,0.0095,0.0016,0.0197,0.0022,0.0266c-0.0149-0.003-0.0248-0.0063-0.0313-0.0099l-0.0023,0.007
							c-0.0741,0.0057-0.1429-0.0029-0.2182,0.0273c-0.0101-0.0031-0.0225-0.0013-0.0383,0.0068
							c0.0317-0.0403-0.0175-0.0784-0.0438-0.1023c-0.0345-0.0349-0.1397-0.176-0.027-0.3146
							c0.0009,0.0053,0.0017,0.0107,0.0017,0.0107c-0.0051-0.2176,0.0183-0.3896,0.0645-0.3468l-0.0012-0.3517l0.1041,0.0282
							c-0.0566-0.3152-0.1125-0.2782-0.2365-0.4865c0.0387-0.2331-0.0462-0.6267-0.0975-0.7736
							c0.0017-0.0254-0.0015-0.0638-0.0127-0.1265l-0.0273,0.1363c-0.0186-0.2484-0.069-0.2134-0.0845-0.3769
							c-0.0062,0.0349-0.0116,0.0402-0.0041-0.0527c-0.0004-0.0275-0.0007-0.0568-0.0012-0.0947
							c0.0115,0.0073,0.0132,0.0441,0.0113,0.0813l0.0309-0.033c0.0886-0.2082-0.0888-0.2986-0.071-0.5139
							c0.0057,0.0199,0.0158,0.0533,0.0168,0.075c0.0132-0.1519,0.1537-0.1889,0.0611-0.2411
							c0.01-0.0135-0.0102-0.0413-0.0352-0.0745l0.0109-0.0474c-0.0029,0.0195-0.0069,0.0343-0.0113,0.0465
							c-0.0331-0.0434-0.0742-0.0972-0.052-0.0913l0.0007-0.1892c0.0126-0.0244-0.0065-0.0855-0.0249-0.1426l0.0782,0.0489
							c0.0626-0.001,0.0856,0.026,0.0885,0.0379c0.3307,0.1745,0.2393-0.0544,0.6565,0.1081c0.0854-0.0629-0.084-0.1094-0.094-0.148
							c0.0696-0.0481,0.3118-0.0756,0.4344-0.1035c0.1771,0.1123,0.7388,0.2462,0.6355,0.3775
							c0.3423,0.0402-0.0996-0.0949,0.0764-0.1282l0.0389,0.0089c-0.1172-0.0264-0.2058-0.0819-0.2678-0.1411
							c-0.0196-0.0772,0.2854-0.0732,0.3763-0.0437l-0.0742,0.1015c0.3198-0.0103,0.2675-0.1765,0.4737-0.2667
							c0.2484,0.0639,0.095,0.1484,0.1401,0.2487l0.2671-0.004l-0.0069,0.0803c0.1738-0.0066,0.2202-0.0781,0.4557-0.0262
							c-0.1786,0.0608,0.3509,0.1054,0.1042,0.1868c0.1298,0.0382,0.1815-0.1137,0.2398-0.0009
							c0.0992-0.0778-0.115-0.0529-0.1795-0.0855c-0.0434-0.1277,0.2956-0.0341,0.457-0.0525
							c0.0079,0.0648-0.1124,0.0659,0.0709,0.1244c0.0425-0.0449,0.1646-0.0722,0.2656-0.0042
							c-0.001-0.0809,0.2138,0.0021,0.3673,0.0201c-0.1678-0.0302-0.34-0.1041-0.2496-0.1662
							c0.0998-0.0238,0.1813-0.0331,0.4036-0.0032l-0.1584-0.0513c0.1406-0.1066,0.3348,0.1144,0.5968,0.0991
							c-0.0748,0.0422-0.1484,0.0359-0.2247,0.0885c0.1206-0.0239,0.3239-0.0642,0.4739-0.094l0.2009,0.0812l0.0431-0.0506
							c-0.0812-0.0856-0.0587-0.2663-0.1558-0.3259c-0.0055-0.2538,0.1717,0.2998,0.2582,0.4066
							c-0.0369-0.3808-0.2352-0.4039-0.1855-0.7231l0.1162,0.1617c-0.0282-0.1401-0.1398-0.4198-0.1044-0.4336
							c-0.0281-0.0011-0.0004,0.0675,0.0202,0.1532c-0.1953-0.1223-0.2544-0.5753-0.4041-0.4858l0.0234,0.1435
							c-0.0832-0.2079-0.2308-0.339-0.214-0.5199c0.021-0.1416,0.1314,0.0641,0.1917,0.1305
							c-0.0391-0.208-0.2177-0.1242-0.2613-0.3734c0.005,0.1353-0.0585,0.1245-0.1187,0.0571
							c0.0237,0.1445,0.0641,0.4483,0.1195,0.3799l0.0033-0.0552c0.0449,0.0029,0.0792,0.0766,0.1094,0.1101
							c0.0467,0.194-0.0514,0.108-0.0733,0.1544c0.047,0.3083,0.1682-0.0119,0.2298,0.2664l-0.0251,0.0333
							c0.0753,0.129,0.1309,0.3348,0.2597,0.4336c-0.0943,0.0591,0.1276,0.3717,0.0961,0.4755l-0.0136-0.0047
							c-0.0326-0.0261-0.0534-0.0464-0.0639-0.062c-0.1819-0.1832-0.0465-0.4476-0.2164-0.6561
							c-0.022,0.1155-0.144-0.1162-0.2096-0.159c0.0633,0.1176,0.1315,0.2554,0.2046,0.4133
							c-0.0289,0.0179-0.1525,0.0073-0.0286,0.1547l0-0.023c0.0146,0.0364,0.0315,0.0688,0.0487,0.0971
							c-0.0219,0.0357,0.0409,0.096-0.1037,0.0581c-0.0441-0.0254-0.039-0.0628-0.0471-0.0795
							c-0.1421-0.0339-0.0489,0.0497-0.1233,0.0649c-0.1455-0.0337-0.0137-0.0983-0.1346-0.135
							c-0.0786,0.0848-0.2252-0.0409-0.322-0.0437c0.1222,0.145-0.5696,0.1347-0.2475,0.2806l-0.3904,0.0584
							c-0.1133-0.0797,0.2794-0.1644,0.1831-0.286l0.3027,0.0308c-0.0331-0.1701-0.6465,0.054-0.832-0.1488
							c-0.162-0.0211-0.1241,0.0056-0.4252-0.1035l0.0401,0.153c-0.1569-0.0478-0.2017-0.1331-0.2067-0.1608
							c-0.0945,0.0015-0.1785-0.0095-0.2649-0.0233c0.0247-0.0199,0.059-0.0371,0.1164-0.04
							c-0.1133-0.0926-0.1508-0.0648-0.1966-0.0246c-0.0682,0.0318-0.1665,0.0184-0.2663,0.0084l0.0948-0.0474
							c-0.0621,0.0072-0.1384,0.0167-0.1475,0.0429c-0.0416-0.003-0.0812-0.003-0.1197,0.0029
							c0.0246,0.0281,0.0832,0.1203,0.2231,0.1711c-0.3654-0.0901-0.6585-0.0829-0.9656-0.2327
							c0.0156-0.0418,0.1527-0.0839,0.1133-0.0927c-0.1569-0.0351-0.3356,0.025-0.3267,0.0906
							c-0.0384-0.0006-0.0647-0.001-0.0882-0.0013c-0.0271-0.0395-0.061-0.0821-0.1358-0.0951
							c-0.0162-0.0149-0.0438-0.0291-0.0976-0.0386c-0.0316,0.0566-0.1222,0.0637-0.2137,0.0625
							c-0.1196-0.0035-0.253-0.0163-0.2917,0.0073c0.0924,0.0202,0.2282,0.0308,0.3206,0.0347
							c-0.1584,0.0655-0.286,0.1451-0.4132,0.0705c0.2911-0.0504-0.3752-0.1556,0.1031-0.1474
							c-0.4005-0.1847-0.1522,0.0947-0.5216,0.0097l-0.279-0.0832c-0.0348-0.0893,0.3732-0.0112,0.2934-0.0504l-0.1711-0.0038
							c0.0661-0.0267,0.2814-0.0138,0.5283-0.0022c0.1219,0.0038,0.2499,0.0077,0.3864,0.0119
							c0.1192-0.0004,0.1751-0.0112,0.2543-0.0286c-0.1326-0.0274-0.4802-0.0732-0.7954-0.1162
							c-0.3252,0.0014-0.6618-0.0161-1.0101-0.0403c0.0473,0.4456,0.0948,0.8927,0.1411,1.3294l0.0405,0.2962l0.0382,0.1849
							c0.0283,0.12,0.0628,0.2331,0.1062,0.3363l-0.0047-0.025c0.0093,0.0096,0.0257,0.0131,0.059,0.0185l-0.0189,0.0288
							l0.0754,0.1116c-0.0678,0.1411-0.0606,0.3927-0.1046,0.6115c0.0406-0.1385,0.0406-0.1385,0.1035-0.1577
							c0.0882,0.0187,0.1265,0.0359,0.1131,0.2374c-0.0605,0.0078-0.0704-0.1149-0.1051,0.036
							c0.0229-0.0784,0.0719-0.015,0.0876,0.0709c-0.0291,0.1155-0.0202,0.3026-0.0812,0.3106
							c-0.0213-0.0502-0.0042-0.0939,0.0016-0.1298c-0.0211-0.0502-0.0355,0.2154-0.0996,0.0663l0.0361,0.2003
							c-0.0401,0.1226-0.0874-0.0709-0.1158-0.021c0.0725,0.3321,0.2284,0.4912,0.2978,0.7913
							c-0.0337-0.0113-0.1699-0.002-0.1302-0.0024c-0.0241,0.1863,0.2066,0.6237,0.2477,0.9486
							c-0.043-0.0266-0.0408-0.1786-0.0702-0.2841c0.0111,0.2076,0.0218,0.4072,0.0318,0.5953
							c0.2335,0.0283,0.4593,0.0557,0.6824,0.0827l0.3354,0.042l0.2255,0.0349c0.2998,0.0485,0.5974,0.1062,0.9099,0.1871
							l0.2107-0.1226l0.1917,0.11c0.3982,0.0791,0.7536,0.1093,1.1054,0.1227c0.1737,0.0038,0.3494,0.0076,0.53,0.0115
							c0.1661,0.0012,0.18-0.0112,0.2938-0.012c0.1093,0.001-0.0045,0.0879-0.016,0.1303l-0.0055,0.009
							c-0.0035,0.0782,0.0333,0.0989,0.0778,0.151c0.0111,0.0131,0.0226,0.0251,0.0342,0.0438l0.0376,0.1269
							c0.0241,0.0893,0.0456,0.1899,0.0605,0.3143c-0.0468-0.0664-0.1739-0.1765-0.1676,0.0386
							c0.0427,0.0378,0.1076,0.0603,0.0904,0.1974l-0.0468-0.0665c-0.0558,0.1275,0.0103,0.2438-0.002,0.5021
							c0.0285,0.4533,0.152,0.8806,0.3275,1.2448c0.0084,0.4018-0.1529-0.0331-0.179,0.0447
							c0.0354-0.2857-0.0358-0.1952-0.0876-0.2538c0.0481,0.1474,0.0825,0.327-0.0131,0.4097
							c0.0179,0.2081,0.0187,0.3026,0.0976,0.5049c-0.0397-0.1018,0.0092-0.1938,0.0599-0.0991
							c-0.0252,0.1725,0.0374,0.6045-0.0888,0.5874c0.0249,0.3858,0.0503,0.78,0.0779,1.2062
							c0.9403,0.1046,1.9547,0.2174,2.9357,0.3266c0.1846-0.0447-0.1321-0.0395-0.0296-0.074
							c0.2673-0.0553,0.1993,0.0656,0.4132,0.0217l-0.0927,0.0585c0.3063,0.0437,0.6466-0.0462,0.9513-0.0763
							c-0.0578,0.0718,0.2377,0.0907-0.0147,0.1096c0.1654,0.005,0.245,0.3634,0.4474,0.3139
							c-0.1194-0.1216-0.1123-0.2294-0.1701-0.3443c0.0058-0.0154,0.0592-0.0126,0.1089-0.0089
							c0.0616,0.005,0.1408,0.0132,0.1226,0.0004c0.1853,0.0845,0.4665,0.1908,0.6161,0.2069
							c0.1112,0.0945-0.285,0.0335-0.4949,0.0088c-0.0329,0.1338,0.7717,0.1723,0.4794,0.2664
							c0.5034,0.0324-0.0972-0.081,0.1773-0.1019l0.4424,0.0777l-0.3558-0.085c0.2891-0.0047,0.3312-0.0854,0.6816-0.0149
							c0.0035-0.0328,0.0077-0.0728,0.0132-0.1236l-0.165-0.5542c0.1097,0.0298,0.0029-0.3006,0.0165-0.5062l0.0784,0.1675
							c-0.021-0.3117-0.0088-0.4244,0.0194-0.6267c0.1055,0.1883-0.0065,0.2899,0.0888,0.3846l0.0109-0.3707
							c-0.0618-0.0093-0.1198-0.1878-0.1444,0.0316c-0.128-0.2484-0.2253-0.2916-0.2428-0.7675
							c0.0927-0.2135,0.1051,0.218,0.2032,0.126c0.0174-0.4795-0.304-0.5678-0.3071-0.8475
							c0.0225-0.3579-0.0725-0.3321-0.0997-0.6924c0.0775,0.1105,0.0618-0.2564,0.1258-0.3264l0.0817,0.1382
							c-0.0282-0.1084-0.0063-0.2152,0.0473-0.1857c-0.0936,0.0491-0.1191-0.515-0.173-0.656l-0.0811,0.0199
							c-0.0335-0.1072-0.0971-0.3157-0.0829-0.4394c-0.0105-0.0601-0.0237-0.1073-0.0394-0.1484
							c0.044-0.0344-0.0083-0.0927,0.094-0.1543c0.1657,0.0803,0.1866,0.1685,0.2187,0.2595
							c-0.0761-0.0447-0.1429-0.0226-0.251-0.0519l-0.0053,0.0021c0.0451,0.159,0.1132,0.2958,0.1649,0.3901
							c0.0535,0.1263,0.0833,0.0788,0.0773,0.3243c0.104,0.0782,0.0946,0.0134,0.0665-0.095
							c-0.0287-0.1193-0.0666-0.1166-0.034-0.1601c0.0122,0.0054,0.0164,0.0106,0.0186,0.0155
							c0.0001-0.005,0.0008-0.0093,0.0051-0.0126c0.0271,0.048,0.0614,0.093,0.168,0.1792
							c-0.0181-0.1387-0.0651-0.0901-0.103-0.1162c-0.0372-0.0119-0.062-0.04-0.0205-0.0623
							c-0.0609-0.0925,0.0996-0.0273,0.1144-0.0114l-0.0203-0.0229c-0.0718-0.082-0.1703-0.219-0.0304-0.1854
							c0.0003,0.0372,0.0076,0.0746,0.0217,0.1123c0.0863,0.0055-0.0321-0.1646,0.1185-0.154
							c-0.0608-0.0155,0.0626-0.1072-0.0668-0.115c0.0187-0.0589,0.3256-0.059,0.5158-0.0198
							c0.0525-0.0151,0.0123-0.0375,0.0232-0.0749c-0.2078-0.0851-0.3736,0.0617-0.5061-0.0545
							c-0.0347,0.0388-0.0619,0.0779-0.0817,0.1172c-0.1275-0.0482-0.213-0.148-0.1275-0.1923
							c-0.0455,0.0033-0.0764,0.0188-0.1215-0.0038c-0.1165-0.1853,0.2252,0.0726,0.2413-0.0803l-0.1282,0.0083
							c-0.1095-0.1214,0.3153-0.0917,0.4971-0.0769c0.2093,0.0628,0.4019,0.0899,0.4131,0.1754l-0.285,0.0262
							c0.1446,0.0733,0.3637-0.0268,0.5287-0.0173c0.0105,0.012,0.026,0.0213,0.0451,0.0281
							c-0.0082-0.0078-0.0127-0.0157-0.0124-0.024c0.0349,0.0055,0.0657,0.017,0.0917,0.0383
							c0.1447,0.0097,0.3592-0.0346,0.4931-0.0024l-0.014-0.0765l-0.0198,0.042c-0.1325-0.0078-0.3107-0.061-0.2083-0.1141
							c0.301-0.0418,0.3561,0.1066,0.4249,0.1753c-0.073,0.1139-0.2919-0.0117-0.4455,0.0225
							c0.0874,0.1183,0.3038,0.0231,0.6101,0.1105c-0.1277,0.1218-0.3583-0.0149-0.4305,0.099
							c0.2482,0.0307,0.3165-0.0566,0.5773-0.015c-0.0356,0.0573-0.291,0.0535-0.277,0.1292l0.1668,0.0422
							c-0.4132-0.0077,0.0666,0.1596-0.2565,0.1787c0.15,0.0573,0.2159-0.0952,0.4291-0.0074
							c-0.0582-0.0572-0.2272-0.1636-0.0186-0.2054l0.2325,0.0457c0.0956,0.0645-0.2487,0.1254-0.0984,0.1826L58.8022,32
							c-0.0069-0.0379-0.1235-0.0611-0.048-0.1102c0.1399,0.0457,0.2373-0.1368,0.4059-0.1865
							c0.1325,0.0078,0.2376,0.0195,0.2829,0.0652c0.3383-0.0992,0.7619-0.0799,1.0739-0.1745
							c-0.213,0.0679,0.0036,0.1291,0.1272,0.1905c-0.2425,0.0071-0.2486,0.1251-0.2346,0.2015
							c0.1478-0.0073,0.2486-0.1254,0.1756-0.1677c0.2442,0.0573,0.1728-0.0757,0.386,0.0117
							c0.1386,0.046-0.0743,0.114-0.0276,0.1602c0.2656,0.0151,0.0775-0.1409,0.3652-0.1026
							c-0.0164,0.0152-0.0428,0.019-0.0208,0.0417c0.0775,0.0153,0.1586,0.0106,0.2249-0.0051
							c0.0996-0.0145,0.1844-0.0399,0.2046-0.0685c0.3009,0.1651,0.7319,0.01,0.7604,0.1608
							c0.6058-0.0181-0.1541-0.0875-0.0577-0.1363c0.1879-0.0596,0.6557,0.012,0.8356,0.0423
							c-0.1388-0.0018-0.2313,0.0359-0.399,0.0065l0.2383,0.1127c0.1519,0.0182,0.2619,0.0237,0.3371,0.0205
							c-0.1426-0.4365-0.3626-0.4889-0.4171-0.9971c0.1543,0.3789,0.1212,0.1536,0.2564,0.3826
							c-0.0616-0.1341-0.1784-0.7006-0.1774-0.3797c-0.0598-0.2657-0.089-0.4522-0.1197-0.6462
							c-0.116-0.288-0.1603-0.3443-0.2554-0.44c-0.0494-0.2334-0.0222-0.4227-0.0069-0.5442
							c-0.1986-0.4662-0.1906-0.9463-0.4005-1.4373l0.0037,0.0393c-0.0842-0.4014-0.0883,0.2101-0.1915-0.2027
							c0.1504,0.0721-0.0109-0.3847-0.0102-0.6506c-0.0302-0.14-0.0559-0.2591-0.0808-0.3746
							c-0.3459-0.0336-0.6734-0.0375-0.9786-0.0477c-0.1916-0.0004-0.3753-0.0084-0.5769-0.0623
							c0.0062-0.0262,0.0399-0.0553,0.1328-0.0505c-0.3623-0.0713-0.6594-0.0712-0.9886-0.1062l0.0156-0.0143
							c-0.5197-0.1481-1.0104-0.0656-1.5603-0.082c0.0457-0.0122,0.0614-0.059,0.0972-0.073
							c-0.2732-0.0523-0.7124-0.1086-0.916-0.0094c-0.3167-0.153-0.2201,0.0194-0.6308-0.1378
							c-0.0223-0.0244,0.0436-0.0173,0.072-0.0197c-0.1011-0.0298-0.1909-0.0447-0.2766-0.056
							c-0.0085-0.0046-0.0175-0.0059-0.0238-0.0139c-0.0216,0.0216-0.0558,0.049-0.0984,0.0755
							c-0.0352,0.013-0.0728,0.013-0.1013-0.0107c-0.0322-0.0418-0.0357-0.0117-0.0664-0.2472
							c0.0821-0.031,0.1093,0.048,0.1332,0.1326c0.0139,0.0361,0.0165,0.0392,0.0819,0.0151
							c-0.0155,0.0008-0.0328-0.0011-0.0419-0.0079c-0.0136-0.0288-0.028-0.1054-0.0217-0.177
							c0.0843,0.0735,0.0457,0.0103,0.12,0.0577c0.0216-0.1202-0.2693-0.4118-0.2528-0.4128
							c-0.0341,0.0007-0.044,0.0425-0.0177,0.1458c-0.1297-0.1017-0.1156-0.5167-0.2103-0.7638
							c0.0142,0.0837,0.035,0.3517-0.0654,0.2703c-0.0349-0.3505-0.2214-0.4307-0.3384-0.6566
							c0.0116-0.3317,0.1906,0.2036,0.2973,0.1197c0.0324-0.0619,0.1012-0.2084,0.175-0.0853
							c-0.0332-0.2892-0.1772-0.4727-0.2552-0.7207l0.0349,0.0001c-0.0434-0.1754-0.1213-0.35-0.1876-0.5195
							c-0.0331-0.0848-0.0633-0.1683-0.0849-0.25c-0.0191-0.0699-0.0348-0.1635-0.047-0.3081
							c0.0044,0.0861,0.0132,0.1935,0.0082,0.234c-0.0266-0.0274-0.0855-0.3622-0.177-0.4596
							c0.0568-0.0074,0.025-0.4154,0.0975-0.2963c-0.067-0.0433-0.1261-0.1706-0.1819-0.3288
							c-0.4258,0.0583-0.98,0.072-1.1067,0.1936c-0.0974-0.0438-0.0216-0.1194,0.0069-0.1615
							c0.3151,0.0097,0.435,0.0436,0.6425-0.0334c-0.2925,0.0082-0.5081-0.0345-0.4597-0.0771
							c-0.306,0.1195-0.6714,0.1713-0.791,0.2874c-0.1397-0.0543-0.2724-0.0825-0.2258-0.1781
							c-0.5806,0.0701,0.2931,0.2866-0.3638,0.2979c-0.3011-0.086,0.2899-0.13-0.1238-0.1533l0.076-0.0164
							c-0.303-0.2381-0.2059,0.1781-0.5439,0.1765c-0.0477-0.1321,0.2335-0.0994-0.0014-0.1901
							c-0.3085,0.0395-0.4402,0.239-0.7502,0.2024l0.0474-0.0574c-0.2023,0.0023-0.578,0.0067-0.7793,0.009
							c-0.0098-0.026,0.0189-0.0228,0.0564-0.0307c-0.3656-0.0432-0.1511,0.0708-0.4511-0.0152l-0.0843,0.066
							c0.1508,0.043,0.4419,0.1023,0.6299,0.0228c-0.188,0.0795,0.3002,0.1624,0.2083,0.2774l0.0367-0.0462
							c0.4987,0.1854,1.137,0.1974,1.7663,0.2586c0.3935-0.1435,0.6751,0.0416,1.0984-0.0604
							c0.0704-0.1566,0.073-0.0326,0.3353-0.0689c-0.1437,0.0222-0.0532,0.1192-0.0071,0.1393
							c0.0525-0.0351,0.1075-0.0519,0.1637-0.0656l0.0102,0.0173c-0.0168,0.0501-0.0383,0.1662-0.0458,0.2524
							c-0.0047,0.0996-0.0034,0.1301,0.0682,0.2162c-0.0016,0.2388-0.0645-0.066-0.0954-0.0566
							c-0.0701,0.0542,0.0947,0.1506,0.055,0.2225c0,0-0.0172-0.0001-0.0295-0.0213c0.0748,0.3316,0.0762,0.5386,0.1286,0.8891
							c0.1551-0.0023,0.1264,0.329,0.2116,0.472c-0.0585-0.04-0.0157,0.2065-0.0236,0.3106l0.1492,0.1627
							c0.1322,0.1643-0.0136,0.2693,0.0863,0.4963l0.0149-0.0629c0.0403,0.0823,0.0616,0.2423,0.0672,0.405
							c0.0064,0.1669-0.0096,0.3038-0.0133,0.4889c0.0845,0.2758,0.1577,0.5145,0.2236,0.7296
							c1.1698,0.0341,1.4849,0.1189,2.1116,0.2379c0.5712,0.1142,1.1669,0.2381,1.9361,0.2679
							c0.1157-0.0362-0.0752-0.0839,0.0183-0.1441c0.176-0.0025,0.2153,0.0072,0.3743,0.0187
							c-0.1369-0.0528-0.1187-0.0003-0.0971-0.0409l-0.2471,0.0219c-0.0108-0.0122,0.0164-0.0144-0.0049-0.0381
							c-0.083,0.007-0.1818,0.0291-0.2861,0.0121c0.1539-0.0264,0.2057-0.1348,0.4082-0.0746
							c-0.0172,0.0141-0.0442,0.0166-0.0992,0.0216c0.1693,0.0235,0.1823-0.0295,0.3075,0.0112
							c0.154,0.0383,0.1186,0.0004,0.1346,0.0509l0.48,0.102c0.2352-0.1148,0.5818,0.0435,0.5771,0.0556
							c0.0203,0.1029-0.3011,0.0053-0.4108,0.0953l0.1687,0.0885l0.0173-0.0794c0.0662,0.0131,0.2047,0.0323,0.1976,0.0391
							l-0.0062,0.015c0.0116-0.0306,0.0304-0.0605,0.0421-0.0315c0.0001,0.0112-0.001,0.0332-0.0096,0.0372l0.0682-0.0388
							c-0.0709,0.0777,0.0298,0.0276-0.0429,0.1179l0.0093,0.0069c0.0002,0.0474,0.0319,0.0414,0.0628,0.0829
							c0.0607,0.1562,0.1083,0.3121,0.109,0.5617c0.0231-0.0919,0.1879,0.119,0.2104,0.2758c0,0.0939-0.0153,0.1216-0.0654,0.075
							l0.0996,0.1875c-0.0807,0.2881,0.0764,0.5082,0.1219,0.888l-0.046-0.0083c0.0838,0.1232,0.1606,0.2599,0.1984,0.4678
							l-0.0917-0.0158c-0.0383,0.0898,0.1902,0.0234,0.1563,0.1087c0.1018,0.0293,0.1357-0.0266,0.2208-0.043
							c-0.0869,0.0343-0.0754,0.1335-0.0071,0.134c0.0768,0.1478,0.0204,0.0881-0.0036,0.0834l0.0875,0.1161
							c0.0196,0.0932-0.1466-0.089-0.2152-0.1457c0.046,0.0451,0.0701,0.0818,0.0805,0.1081
							c-0.0392,0.0054-0.1245-0.0315-0.1736-0.0436l-0.0112-0.0414l-0.0815-0.0195c-0.0008,0.0356-0.028,0.0538-0.063,0.058
							c-0.0174,0.0021-0.0366,0.0008-0.055-0.0035c-0.0515-0.0081-0.105-0.0165-0.1633-0.0257l0.1628-0.1142
							c-0.1557-0.0683-0.0843,0.0385-0.1271,0.0574c-0.2615,0.0492-0.3143-0.0344-0.449-0.1071
							C60.5696,30.7427,60.1693,30.4057,59.8068,30.5729z M45.734,25.9204l-0.0443-0.0218
							C45.7266,25.881,45.7408,25.8627,45.734,25.9204z M45.839,27.795c-0.0721-0.2696-0.0075-0.1879,0.0237-0.2118
							c-0.0078,0.2727,0.0442,0.4192,0.0271,0.6612c0.0203-0.0405,0.0517-0.0509,0.0705-0.065
							c0.003,0.0956-0.0145,0.1931-0.0722,0.2313C45.757,28.304,45.8976,27.6699,45.839,27.795z M48.3065,25.5108l-0.0345,0.0239
							l-0.0015-0.0001L48.3065,25.5108z M46.9411,25.501c-0.0171-0.0276-0.0494-0.0445-0.0895-0.0577
							C46.8739,25.4775,46.8959,25.5061,46.9411,25.501z M45.1079,26.7869c-0.0443,0.067-0.016,0.2078,0.0051,0.3101
							C45.1139,27.048,45.1213,26.9598,45.1079,26.7869z M54.6425,36.3409c-0.0838,0.0104-0.2426,0.0437-0.1064,0.0955
							c0.0794-0.0347,0.1771,0.0511,0.2745-0.0045c0.0096,0.0038,0.0135,0.0053,0.0204,0.0081
							C54.7061,36.3851,54.677,36.3472,54.6425,36.3409z M57.4539,31.158c-0.0166,0.0488-0.0789,0.1003-0.0415,0.1391
							l-0.0229-0.0048c0.0198,0.0175,0.0365,0.0321,0.0202,0.0423c0.065,0.0122,0.1332,0.0266,0.1798,0.014
							C57.6175,31.1884,57.7566,31.1677,57.4539,31.158z"/>
						<path class="st0" d="M56.1158,31.9895c-0.0022-0.01-0.0037-0.0168-0.0052-0.0235
							C56.112,31.9723,56.1135,31.9794,56.1158,31.9895z"/>
						<path class="st0" d="M57.5763,31.3476c0.0062-0.01-0.0703-0.0288-0.1639-0.0504
							C57.4309,31.3179,57.4763,31.3357,57.5763,31.3476z"/>
						<path class="st0" d="M51.0754,24.6124l0.0344,0.0736l0.0098-0.1662c-0.1145-0.2458-0.1855-0.2424-0.2792-0.2871
							c0.129,0.2139,0.1264,0.3645,0.2193,0.6567L51.0754,24.6124z"/>
						<path class="st0" d="M50.5853,24.8692c-0.0146,0.0311-0.0514,0.1084-0.0472,0.1484l0.0567,0.027L50.5853,24.8692z"/>
						<path class="st0" d="M49.4686,25.3821l0.2477,0.0642C49.7994,25.4105,49.5143,25.3104,49.4686,25.3821z"/>
						<path class="st0" d="M50.6702,26.337l0.1436-0.0418c-0.1779-0.0584-0.3619-0.0688-0.3835-0.0114
							C50.6266,26.2683,50.4918,26.3218,50.6702,26.337z"/>
						<path class="st0" d="M48.7941,25.3139c-0.0867,0.0897-0.2479-0.0644-0.3074,0.0222
							C48.555,25.3151,48.7735,25.4093,48.7941,25.3139z"/>
						<path class="st0" d="M48.8922,26.2447c0.0719,0.0979,0.211,0.0288,0.3683,0.0639
							C49.1279,26.2972,48.9508,26.1851,48.8922,26.2447z"/>
						<path class="st0" d="M47.4228,25.4716c0.0187-0.0677,0.1244-0.0538,0.2422-0.0275c-0.0417,0.0179-0.0706,0.0477-0.1247,0.0539
							c0.203-0.0365,0.2157-0.0246,0.3772-0.0431c-0.1546-0.0618-0.3905-0.1138-0.3576-0.1973
							C47.4365,25.3118,47.2822,25.3954,47.4228,25.4716z"/>
						<path class="st0" d="M48.5085,26.223c0.1303,0.0381,0.2042,0.1087,0.3634,0.1169c-0.0234-0.0504-0.0703-0.1247-0.2567-0.1293
							l0.0731-0.0746C48.5212,26.0623,48.7467,26.2483,48.5085,26.223z"/>
						<path class="st0" d="M46.7101,25.2229l0.0767,0.0439c0.1909-0.0483,0.4261,0.0042,0.5394-0.0887
							C47.1019,25.1644,46.8201,25.1838,46.7101,25.2229z"/>
						<path class="st0" d="M47.8715,26.0181l-0.0348,0.11c0.1837,0.0315-0.0101-0.0388,0.0583-0.0597
							c0.0514,0.0207,0.13,0.0377,0.1706,0.0198C47.8537,26.0866,48.0599,25.9963,47.8715,26.0181z"/>
						<path class="st0" d="M47.2531,26.0895l-0.2412,0.0277l0.1748,0.1386C47.4683,26.2369,47.206,26.1872,47.2531,26.0895z"/>
						<path class="st0" d="M46.9679,25.9896l-0.0247-0.0238l-0.3702,0.1354C46.7911,26.0499,46.8031,26.0615,46.9679,25.9896z"/>
						<path class="st0" d="M45.1515,28.3414c0.0518,0.0355,0.0924-0.1783,0.0471-0.0843
							C45.1551,28.2209,45.1185,28.5046,45.1515,28.3414z"/>
						<path class="st0" d="M45.972,27.4082c-0.027,0.1045,0.072,0.4303,0.1185,0.5724
							C46.0513,27.8097,46.0349,27.3779,45.972,27.4082z"/>
						<path class="st0" d="M46.1091,28.0386c-0.0039-0.0122-0.0107-0.0336-0.0185-0.058
							C46.0964,28.0069,46.1021,28.0256,46.1091,28.0386z"/>
						<path class="st0" d="M49.8597,29.8159c0.0301,0.001,0.0598,0.0001,0.0866-0.0054
							C49.9148,29.8124,49.8921,29.8138,49.8597,29.8159z"/>
						<path class="st0" d="M49.6962,29.8301c-0.0973-0.0246-0.2957-0.0121-0.334,0.037c0.1642-0.0107,0.2809-0.0156,0.4975-0.0513
							C49.7606,29.8132,49.7019,29.7714,49.6962,29.8301z"/>
						<path class="st0" d="M51.2003,31.0173c-0.0379-0.1267-0.0326-0.3125-0.076-0.2475
							C51.1077,30.8485,51.1729,31.1107,51.2003,31.0173z"/>
						<path class="st0" d="M56.523,36.8606c0.0126-0.2275-0.0163-0.3953-0.0865-0.3868
							C56.453,36.7454,56.4888,36.6357,56.523,36.8606z"/>
						<polygon class="st0" points="56.4037,36.1546 56.4382,36.1443 56.4845,36.0116 						"/>
						<path class="st0" d="M56.4287,34.772c0.0116,0.0063,0.0252,0.0297,0.0338,0.0545
							C56.4499,34.7742,56.4376,34.7298,56.4287,34.772z"/>
						<path class="st0" d="M56.4685,34.8529l-0.0059-0.0264L56.4685,34.8529z"/>
						<path class="st0" d="M56.4496,34.9155l0.0381,0.0084c-0.0063-0.0148-0.0127-0.0436-0.0192-0.0711
							C56.4724,34.8779,56.4689,34.9049,56.4496,34.9155z"/>
						<path class="st0" d="M56.4256,34.4911l-0.0971,0.1841c0.0631,0.182,0.043-0.2137,0.1674-0.0379L56.4256,34.4911z"/>
						<path class="st0" d="M56.3608,33.8727c0.0252-0.1719-0.157-0.4074-0.036-0.5108c-0.0934-0.4775-0.2048,0.123-0.2838-0.4249
							c-0.0359,0.5241,0.2587,0.2509,0.2145,0.7167C56.3214,33.4261,56.3262,33.7999,56.3608,33.8727z"/>
						<path class="st0" d="M56.1525,33.9667c0.065,0.024,0.0585-0.1921,0.0124-0.2569
							C56.1615,33.7729,56.0789,33.8862,56.1525,33.9667z"/>
						<polygon class="st0" points="56.2509,32.9353 56.2914,32.7854 56.2485,32.7491 						"/>
						<path class="st0" d="M56.2447,32.3758l0.0816,0.1391C56.2949,32.4693,56.2885,32.2542,56.2447,32.3758z"/>
						<path class="st0" d="M56.3158,32.0067c0.0258,0.0149-0.1525-0.1255-0.1108-0.0461l0.0061-0.009
							C56.2382,31.9636,56.2995,31.9863,56.3158,32.0067z"/>
						<path class="st0" d="M56.8068,31.729c-0.0928-0.0071-0.2033,0.0106-0.1853,0.0465l0.2559-0.0253L56.8068,31.729z"/>
						<path class="st0" d="M56.7842,31.3143c-0.0811-0.1064-0.2405-0.0004-0.4054-0.0406
							C56.5672,31.3007,56.5459,31.3141,56.7842,31.3143z"/>
						<path class="st0" d="M57.0922,31.8865c-0.0702,0.0401-0.1756,0.0087-0.2392-0.0005
							C56.8821,31.946,57.0577,31.9372,57.0922,31.8865z"/>
						<path class="st0" d="M57.4994,31.8658c0.0816,0.0449-0.0203,0.0572,0.0414,0.0879c0.1769,0.0532,0.3645,0.0538,0.4679,0.0004
							c-0.0454-0.0458-0.1052-0.1676-0.0297-0.2169c-0.2863,0.0261-0.439,0.2124-0.5724,0.06l-0.2445,0.1715
							C57.3888,32.0062,57.3417,31.8492,57.4994,31.8658z"/>
						<path class="st0" d="M56.9359,31.5025l0.1504,0.0658c-0.0284-0.0597,0.0877-0.0657,0.1695-0.0819
							C57.2206,31.3532,57.0233,31.4979,56.9359,31.5025z"/>
						<polygon class="st0" points="59.0823,31.844 59.4072,31.8253 59.3021,31.8141 						"/>
						<polygon class="st0" points="59.2884,31.8937 59.2954,31.9321 59.5456,31.8712 						"/>
						<polygon class="st0" points="59.6259,31.951 59.5878,31.9436 59.3961,31.9699 						"/>
						<path class="st0" d="M60.3,32.0011l-0.0574-0.0575c-0.0825,0.0116-0.2444-0.0567-0.2314,0.019
							C60.0833,31.9398,60.2532,31.9552,60.3,32.0011z"/>
						<path class="st0" d="M61.6515,30.6376c0.0383,0.0382,0.0767,0.072,0.1251,0.107l-0.0855-0.0808l-0.0226-0.0193l0.0038,0.0043
							C61.6755,30.6533,61.6748,30.6566,61.6515,30.6376z"/>
						<path class="st0" d="M61.839,30.7202c-0.0491-0.0458-0.0955-0.0815-0.1393-0.107c-0.0107,0.0235,0.0883,0.0834,0.1282,0.1605
							l-0.0016,0.0012l0.0081,0.004c0.0238-0.0044-0.0713-0.0936-0.0429-0.0967L61.839,30.7202z"/>
						<path class="st0" d="M60.6549,27.7839c0.0276-0.0673-0.0274-0.0622,0.1544-0.0919c-0.2477,0.022-0.4559-0.0111-0.7364-0.0247
							c0.0437,0.0477-0.1713,0.1052-0.0623,0.0957l0.3151-0.0149l-0.0508,0.0432C60.4892,27.8632,60.4244,27.7264,60.6549,27.7839z"
							/>
						<path class="st0" d="M51.7456,22.2522c0.0285-0.0343-0.0098-0.064-0.0481-0.0938
							C51.5114,22.1996,51.783,22.2442,51.7456,22.2522z"/>
					</g>
				</g>
			</g>
		</g>
	</g>
</g>
</svg>
