<?xml version="1.0" encoding="utf-8"?>
<!-- Generator: Adobe Illustrator 22.1.0, SVG Export Plug-In . SVG Version: 6.00 Build 0)  -->
<svg version="1.1" id="Calque_1" xmlns="http://www.w3.org/2000/svg" xmlns:xlink="http://www.w3.org/1999/xlink" x="0px" y="0px"
	 viewBox="0 0 90 90" style="enable-background:new 0 0 90 90;" xml:space="preserve">
<style type="text/css">
	.st0{fill:#95C500;}
</style>
<g>
	<path class="st0" d="M58.816,66.3068c0.0004,3.9211-0.0477,7.8431,0.0303,11.7626c0.0228,1.1437-0.3544,1.6851-1.4255,1.9588
		c-7.0211,1.7943-14.0195,1.9991-21.0378-0.0636c-1.4623-0.4298-1.8976-1.1463-1.8794-2.6658
		c0.0885-7.3759,0.0358-14.7534,0.0419-22.1303c0.0027-3.3078,0.9207-4.2499,4.0978-4.25c5.5161-0.0001,11.0322-0.0003,16.5482,0
		c2.7008,0.0002,3.5796,0.8305,3.6125,3.6252C58.8502,58.4642,58.8157,62.3857,58.816,66.3068z"/>
	<path class="st0" d="M59.1887,30.5249c-8.6527,0-16.5289,0-24.9442,0c0.4208-1.6305,0.4787-3.2287,1.2099-4.4102
		c1.6682-2.6959,3.6075-5.234,5.5757-7.7265c0.4366-0.5529,1.435-0.8736,2.1969-0.9176c2.1174-0.1222,4.2524,0.0543,6.369-0.0747
		c1.5437-0.0941,2.6296,0.3541,3.5208,1.6315c1.4791,2.12,3.2629,4.0509,4.5438,6.277
		C58.4866,26.74,58.6439,28.5605,59.1887,30.5249z"/>
	<path class="st0" d="M41.0392,16.1254c0.151-2.4354,0.2927-4.7221,0.4417-7.1254c3.4635,0,6.9332,0,10.7562,0
		c0,2.3448,0,4.6621,0,7.1254C48.6107,16.1254,44.6321,16.1254,41.0392,16.1254z"/>
	<path class="st0" d="M46.6828,36.927c3.4499,0.0001,6.8999,0.0206,10.3495-0.0118c1.0962-0.0103,1.811,0.2635,1.7817,1.5253
		c-0.0265,1.1434-0.6902,1.4289-1.6973,1.4269c-6.966-0.0139-13.9321-0.0128-20.8981-0.0015
		c-1.0008,0.0016-1.6653-0.2634-1.6794-1.432c-0.0155-1.2808,0.7116-1.5261,1.7942-1.5173
		C39.7829,36.9444,43.2329,36.9269,46.6828,36.927z"/>
	<path class="st0" d="M46.6679,41.6919c3.3158,0,6.6316,0.0022,9.9474-0.0013c1.0832-0.0011,2.2247-0.1189,2.1976,1.5093
		c-0.0246,1.481-1.0527,1.4226-2.0877,1.4215c-6.6979-0.0072-13.3958-0.0042-20.0937-0.0032
		c-1.0138,0.0001-2.06,0.1063-2.0912-1.4081c-0.0341-1.6503,1.1022-1.5183,2.1803-1.5182
		C40.0363,41.6922,43.3521,41.6919,46.6679,41.6919z"/>
	<path class="st0" d="M46.7504,35.0934c-3.4466,0.0004-6.8933-0.0056-10.3398,0.0041c-1.0095,0.0028-1.8691-0.0953-1.8718-1.4377
		c-0.0026-1.2949,0.7646-1.5014,1.8229-1.4992c6.8932,0.0142,13.7865,0.019,20.6796-0.0044
		c1.1222-0.0038,1.7835,0.3445,1.7685,1.5665c-0.0144,1.1759-0.7368,1.384-1.7196,1.3782
		C53.6437,35.0805,50.197,35.093,46.7504,35.0934z"/>
	<path class="st0" d="M46.8327,46.4334c3.3148-0.0002,6.6297,0.0055,9.9445-0.0035c1.0539-0.0029,2.0534,0.0174,2.0342,1.4828
		c-0.0187,1.4312-0.9739,1.4854-2.0524,1.483c-6.7622-0.0152-13.5245-0.0178-20.2867,0.002
		c-1.1354,0.0033-1.9746-0.1842-1.9298-1.5928c0.0434-1.3659,0.9852-1.369,1.948-1.37
		C39.9379,46.4315,43.3853,46.4336,46.8327,46.4334z"/>
</g>
</svg>
