<?xml version="1.0" encoding="utf-8"?>
<!-- Generator: Adobe Illustrator 22.1.0, SVG Export Plug-In . SVG Version: 6.00 Build 0)  -->
<svg version="1.1" id="Calque_1" xmlns="http://www.w3.org/2000/svg" xmlns:xlink="http://www.w3.org/1999/xlink" x="0px" y="0px"
	 viewBox="0 0 90 90" style="enable-background:new 0 0 90 90;" xml:space="preserve">
<style type="text/css">
	.st0{fill:#97C500;}
</style>
<g>
	<path class="st0" d="M40.232,11c2.6646,0,5.2142,0,8.1177,0c0.7195,5.746,1.4211,11.4708,2.1772,17.1884
		c0.0714,0.5402,0.3705,1.1518,0.7581,1.5324c2.8571,2.8046,4.1243,6.065,4.0517,10.1715
		c-0.1932,10.9284-0.1025,21.8628-0.0287,32.7941c0.0132,1.9625-0.7907,3.2463-2.478,3.8263
		c-5.7798,1.9865-11.6176,1.9945-17.3936-0.0172c-1.6946-0.5902-2.4594-1.9034-2.4472-3.8507
		c0.0705-11.2367,0.1005-22.4748-0.0057-33.7109c-0.0297-3.1388,0.8778-5.7912,2.9913-7.9838
		c1.2971-1.3456,1.9418-2.6759,1.8638-4.6292c-0.0791-1.9797,0.399-3.9922,0.7255-5.9751C39.07,17.2728,39.6544,14.2128,40.232,11z
		 M37.1863,58.0624c0-4.2783,0.0331-8.5571-0.0402-12.8341c-0.0096-0.561-0.5644-1.1127-0.8667-1.6687
		c-0.2694,0.5372-0.7703,1.073-0.7735,1.6117c-0.0493,8.434-0.0523,16.8685,0.0061,25.3024
		c0.0039,0.5619,0.5868,1.1199,0.9004,1.6796c0.2579-0.541,0.7312-1.0787,0.7394-1.6234
		C37.2144,66.3749,37.1861,62.2184,37.1863,58.0624z M39.0284,25.5698c0.1437,0.1779,0.4377,0.5417,0.7317,0.9055
		c0.3412-0.3468,0.8991-0.6458,0.9881-1.0483c0.536-2.4245,1.0014-4.8669,1.3893-7.3193c0.0587-0.3711-0.4117-0.8258-0.6373-1.2418
		c-0.324,0.2881-0.863,0.5293-0.9377,0.8718C40.0203,20.2231,39.5718,22.729,39.0284,25.5698z M35.0544,39.5453
		c0.5775,0.6036,0.9731,1.017,1.3687,1.4304c0.2508-0.4229,0.7313-0.866,0.6964-1.2637c-0.0474-0.5388-0.49-1.0429-0.763-1.5618
		C35.9986,38.5335,35.6408,38.9169,35.0544,39.5453z"/>
</g>
</svg>
