<?xml version="1.0" encoding="utf-8"?>
<!-- Generator: Adobe Illustrator 22.1.0, SVG Export Plug-In . SVG Version: 6.00 Build 0)  -->
<svg version="1.1" id="Calque_1" xmlns="http://www.w3.org/2000/svg" xmlns:xlink="http://www.w3.org/1999/xlink" x="0px" y="0px"
	 viewBox="0 0 250 250" style="enable-background:new 0 0 250 250;" xml:space="preserve">
<path d="M124.7027,38.8454c-47.1085,0-85.2973,38.1888-85.2973,85.2973s38.1888,85.2973,85.2973,85.2973
	c47.1082,0,85.2973-38.1888,85.2973-85.2973S171.811,38.8454,124.7027,38.8454z M150.5651,90.5207c-0.1689,0-0.3195,0-0.4701,0
	c-4.436,0-8.8721-0.0131-13.308,0.0089c-1.1843,0.0058-2.3669,0.1097-3.5184,0.4443c-2.1579,0.6271-2.9528,1.9845-3.2032,3.9053
	c-0.1313,1.0077-0.1639,2.0331-0.168,3.0511c-0.0176,4.2936-0.0077,8.5872-0.0077,12.881c0,0.1151,0,0.23,0,0.3922
	c6.0365,0,12.0431,0,18.0993,0c-0.867,5.2021-1.725,10.3497-2.5901,15.5403c-5.1582,0-10.3103,0-15.4983,0
	c0,15.5324,0,31.0199,0,46.5409c-6.9089,0-13.7817,0-20.6997,0c0-15.4792,0-30.9765,0-46.5213c-3.4753,0-6.9057,0-10.3609,0
	c0-5.2011,0-10.3541,0-15.5331c3.4572,0,6.8918,0,10.3945,0c0-0.1522,0-0.2998,0-0.4476c0-3.6212-0.0105-7.2424,0.0047-10.8636
	c0.0072-1.7314,0.0069-3.4659,0.1091-5.1934c0.2131-3.5967,0.8736-7.096,2.5567-10.3331c1.7132-3.295,4.3038-5.6473,7.6928-7.1469
	c2.2178-0.9815,4.5417-1.5393,6.936-1.8629c2.1434-0.2897,4.2968-0.3612,6.4542-0.3652c5.7422-0.0105,11.4844-0.0119,17.2266-0.017
	c0.1026,0,0.2052,0,0.3503,0C150.5651,80.1908,150.5651,85.3333,150.5651,90.5207z"/>
</svg>
