<?xml version="1.0" encoding="utf-8"?>
<!-- Generator: Adobe Illustrator 22.1.0, SVG Export Plug-In . SVG Version: 6.00 Build 0)  -->
<svg version="1.1" id="Calque_1" xmlns="http://www.w3.org/2000/svg" xmlns:xlink="http://www.w3.org/1999/xlink" x="0px" y="0px"
	 viewBox="0 0 250 250" style="enable-background:new 0 0 250 250;" xml:space="preserve">
<path d="M125.2228,38c-48.1702,0-87.22,39.0496-87.22,87.22c0,48.1701,39.0497,87.22,87.22,87.22s87.2199-39.0499,87.2199-87.22
	C212.4428,77.0496,173.3931,38,125.2228,38z M107.6022,159.6894c-6.0885,0-12.0108,0-18.1466,0c0-18.5244,0-36.9614,0-55.6283
	c6.1561,0,12.0802,0,18.1466,0C107.6022,122.6507,107.6022,141.0922,107.6022,159.6894z M98.4532,96.1799
	c-5.9709-0.0267-10.2466-3.9487-10.3404-9.4858c-0.0935-5.5199,4.3643-9.6863,10.4425-9.7596
	c6.0434-0.0731,10.428,4.001,10.4393,9.6997C109.0059,92.2699,104.6576,96.2076,98.4532,96.1799z M174.4253,159.6078
	c-5.6841,0-11.6872,0-17.9761,0c0-8.1262,0.0506-16.132-0.0239-24.1364c-0.0315-3.3815-0.0691-6.7983-0.5595-10.1318
	c-0.8312-5.6485-4.4442-8.4566-9.7585-8.0357c-5.0648,0.4011-9.2745,4.6826-9.3133,9.7477
	c-0.0779,10.1845-0.0231,20.3701-0.032,30.5553c-0.0005,0.609-0.0803,1.2178-0.1376,2.03c-6.0694,0-12.0812,0-18.2485,0
	c0-18.5036,0-36.8843,0-55.4941c5.9929,0,11.9963,0,18.2601,0c0,2.1854,0,4.4004,0,6.8668c0.5446-0.2397,0.8783-0.276,0.9996-0.4557
	c5.0773-7.5219,14.0895-9.4316,22.5228-7.005c8.8672,2.5512,13.5848,9.279,14.0814,17.9321
	C174.9624,134.0719,174.4253,146.7355,174.4253,159.6078z"/>
</svg>
