<?xml version="1.0" encoding="utf-8"?>
<!-- Generator: Adobe Illustrator 22.1.0, SVG Export Plug-In . SVG Version: 6.00 Build 0)  -->
<svg version="1.1" id="Calque_1" xmlns="http://www.w3.org/2000/svg" xmlns:xlink="http://www.w3.org/1999/xlink" x="0px" y="0px"
	 viewBox="0 0 250 250" style="enable-background:new 0 0 250 250;" xml:space="preserve">
<g>
	<path d="M160.429,107.3751c0-8.9383-7.2723-16.2107-16.2111-16.2107h-38.7927c-8.9383,0-16.2101,7.2724-16.2101,16.2107v38.7925
		c0,8.9387,7.2718,16.2111,16.2101,16.2106h38.7931c8.9388,0,16.2111-7.2719,16.2111-16.2106h-0.0005V107.3751z M124.8221,149.0801
		c-12.3012,0-22.3087-10.007-22.3087-22.3078c0-12.301,10.0075-22.3085,22.3087-22.3085s22.3086,10.0075,22.3086,22.3085
		C147.1307,139.073,137.1233,149.0801,124.8221,149.0801z M152.0505,107.5674c-1.0498,1.0447-2.499,1.649-3.9841,1.649
		c-1.48,0-2.9343-0.6043-3.979-1.649c-1.0498-1.0495-1.6541-2.5034-1.6541-3.9839c0-1.4851,0.6038-2.9397,1.6541-3.9842
		c1.0452-1.0498,2.4991-1.649,3.979-1.649c1.4851,0,2.9394,0.5993,3.9841,1.649c1.0498,1.0445,1.6489,2.499,1.6489,3.9842
		C153.6994,105.0633,153.1003,106.5179,152.0505,107.5674z"/>
	<path d="M124.8221,112.1448c-8.0656,0-14.6272,6.5616-14.6272,14.627c0,8.0652,6.562,14.626,14.6272,14.626
		c8.0651,0,14.6271-6.5609,14.6271-14.626C139.4492,118.7064,132.8877,112.1448,124.8221,112.1448z"/>
	<path d="M124.8221,37C76.3192,37,37,76.3192,37,124.822s39.3192,87.822,87.8221,87.822c48.5026,0,87.822-39.3192,87.822-87.822
		S173.3247,37,124.8221,37z M168.1105,146.1676c0,13.1739-10.7178,23.8922-23.8926,23.8922h-38.7927
		c-13.1739,0-23.8916-10.7178-23.8916-23.8922v-38.7925c0-13.1739,10.7177-23.8922,23.8916-23.8922h38.7927
		c13.1748,0,23.8931,10.7183,23.8926,23.8922V146.1676z"/>
</g>
</svg>
