<?xml version="1.0" encoding="utf-8"?>
<!-- Generator: Adobe Illustrator 22.1.0, SVG Export Plug-In . SVG Version: 6.00 Build 0)  -->
<svg version="1.1" id="Calque_1" xmlns="http://www.w3.org/2000/svg" xmlns:xlink="http://www.w3.org/1999/xlink" x="0px" y="0px"
	 viewBox="0 0 90 90" style="enable-background:new 0 0 90 90;" xml:space="preserve">
<style type="text/css">
	.st0{fill:#A1CC1D;}
</style>
<g>
	<g>
		<g>
			<g>
				<g>
					<g>
						<path class="st0" d="M57.2437,24.9555c0.2635,0.0875,0.0102-0.0916-0.1465-0.3032L57.2437,24.9555z"/>
						<path class="st0" d="M57.0972,24.6523l-0.1033-0.2147C57.0024,24.5063,57.0438,24.5796,57.0972,24.6523z"/>
						<path class="st0" d="M56.0282,22.7175c0.3879,0.3561,0.5462,0.9707,0.8967,1.1252
							C56.7614,23.3412,56.2956,22.6994,56.0282,22.7175z"/>
						<polygon class="st0" points="56.3156,23.4371 56.4487,23.429 56.0577,23.1488 						"/>
						<polygon class="st0" points="56.3938,23.7636 56.3962,23.6867 55.9253,23.1605 						"/>
						<path class="st0" d="M55.1878,21.2183l0.2978,0.4138c0.1178,0.4886-0.3493-0.1526-0.2712,0.1743
							c0.3385,0.5375,0.3984,0.0085,0.7756,0.7091c0.0937-0.1337-0.6764-1.0762-0.4083-1.0933
							C55.2904,20.8172,55.4464,21.4687,55.1878,21.2183z"/>
						<path class="st0" d="M46.7241,34.09c-0.0198,0.0054-0.0332,0.009-0.0497,0.0136
							C46.7133,34.1034,46.7431,34.1018,46.7241,34.09z"/>
						<path class="st0" d="M45.063,35.8389c-0.0691,0.0505-0.0904,0.0734-0.0919,0.0843c0.0716-0.0472,0.1437-0.0947,0.2259-0.1488
							L45.063,35.8389z"/>
						<path class="st0" d="M49.9821,30.6863c0.1085-0.0588,0.2038-0.1171,0.289-0.1725
							C50.2018,30.5298,50.1114,30.576,49.9821,30.6863z"/>
						<path class="st0" d="M60.8982,45.1176c0.011,0.0237,0.0279,0.0457,0.0556,0.0597c0,0,0.0054-0.0079,0.0091-0.0134
							l-0.0383-0.1056L60.8982,45.1176z"/>
						<path class="st0" d="M48.6666,34.1627c0.1239-0.0472,0.2444-0.0962,0.3482-0.1503
							C48.8064,34.0827,48.7094,34.1278,48.6666,34.1627z"/>
						<path class="st0" d="M50.9836,27.6995c0.0003,0.0462,0.0006,0.0862,0.0009,0.1263c0.0079-0.0402,0.0158-0.095,0.0211-0.1565
							l-0.0222,0.0239L50.9836,27.6995z"/>
						<path class="st0" d="M46.6249,34.8175c-0.0743,0.0423-0.136,0.0788-0.1438,0.0867
							C46.5327,34.8731,46.5789,34.8452,46.6249,34.8175z"/>
						<path class="st0" d="M50.2709,12.8817c-0.1221-0.2354-0.1995-0.331-0.2514-0.3614
							C50.1182,12.7444,50.2026,12.891,50.2709,12.8817z"/>
						<path class="st0" d="M49.687,14.7578l-0.0017-0.0267C49.6561,14.6892,49.6626,14.7153,49.687,14.7578z"/>
						<path class="st0" d="M49.7141,17.3423l-0.007-0.0536C49.6869,17.2952,49.6831,17.3072,49.7141,17.3423z"/>
						<path class="st0" d="M50.0195,12.5204c-0.2267-0.5163-0.5461-1.4818-0.5573-1.1837c0.0265,0.125,0.0597,0.2815,0.1015,0.4783
							l0.0455,0.0678c-0.0751,0.0065,0.0697,0.8439,0.0863,1.1638c0.0328,0.0684,0.0591,0.1141,0.0829,0.1471
							c0.0014-0.1317,0.0074-0.2943,0.0248-0.5091c0.0152-0.0234,0.0182-0.0795,0.0127-0.1608
							C49.923,12.6693,49.9199,12.4645,50.0195,12.5204z"/>
						<path class="st0" d="M46.6682,34.0583C46.7442,34.0726,46.7818,33.999,46.6682,34.0583L46.6682,34.0583z"/>
						<path class="st0" d="M48.0784,32.5133l-0.1994,0.1588C47.9486,32.6278,48.0171,32.5838,48.0784,32.5133z"/>
						<path class="st0" d="M51.1479,23.6108l-0.0125,0.0465C51.1698,23.6707,51.1639,23.6333,51.1479,23.6108z"/>
						<path class="st0" d="M47.6999,32.8232l0.1791-0.1511C47.8168,32.7105,47.7545,32.7527,47.6999,32.8232z"/>
						<path class="st0" d="M51.0247,26.5401c-0.0028,0.0142-0.0058,0.0291-0.008,0.0402
							C51.0213,26.5719,51.0241,26.5567,51.0247,26.5401z"/>
						<path class="st0" d="M66.3672,24.2951c-0.0323,0.1963-0.1492,0.2797-0.2299,0.4489c0.0825,0.4619,0.2629-0.8163,0.266-0.183
							c0.0541-0.176,0.0706-0.3234,0.0818-0.4615l-0.2745,0.189C66.1775,24.6589,66.3499,24.0773,66.3672,24.2951z"/>
						<path class="st0" d="M61.931,42.871l-0.0391,0.0763c0.1053-0.0317,0.1201,0.0261,0.2502-0.2721
							c-0.0685-0.3011-0.3846,0.0572-0.4151-0.4463c-0.008,0.0935-0.0501,0.2254-0.1022,0.3466
							C61.7985,42.4179,61.8776,42.6392,61.931,42.871z"/>
						<path class="st0" d="M61.6248,42.5755l-0.014,0.0104c-0.0241,0.0149-0.046,0.0335-0.0669,0.0549
							c-0.0187,0.0664-0.0428,0.1294-0.0706,0.1786C61.5219,42.7783,61.5779,42.6852,61.6248,42.5755z"/>
						<path class="st0" d="M65.0695,28.6511l0.0246,0.0353C65.1003,28.6446,65.0923,28.6414,65.0695,28.6511z"/>
						<path class="st0" d="M48.9773,36.8278c-0.0797,0.0527-0.1592,0.1052-0.2256,0.149
							C48.8842,36.918,48.9439,36.8707,48.9773,36.8278z"/>
						<path class="st0" d="M60.4523,47.7001c-0.0381,0.082-0.0714,0.172-0.1047,0.2717c-0.0142,0.0664-0.0262,0.1228-0.0431,0.2019
							L60.4523,47.7001z"/>
						<path class="st0" d="M68.0898,35.6757c-0.1221,0.2585,0.1215-0.0406,0.4694,0.0348l0.2798-0.1757
							C68.5564,35.5474,68.3077,35.6303,68.0898,35.6757z"/>
						<path class="st0" d="M66.506,24.0848c-0.007-0.0022-0.0129-0.0041-0.0191-0.0095c-0.0006,0.0082-0.001,0.0139-0.0017,0.0241
							L66.506,24.0848z"/>
						<path class="st0" d="M71.0267,34.9544l0.0468-0.0113C71.0502,34.946,71.0324,34.9497,71.0267,34.9544z"/>
						<path class="st0" d="M61.066,44.3069l-0.3099,1.1253l0.1421-0.3147C60.828,44.9314,61.1608,44.4991,61.066,44.3069z"/>
						<path class="st0" d="M63.1645,36.4095c-0.0274-0.0431-0.1248-0.0738-0.1979-0.1087
							c-0.6102,0.1924-1.2172,0.3278-1.8484,0.4446c-0.2034,0.7454-0.4076,1.4939-0.5996,2.1976
							c-0.1011,0.402-0.1601,0.7881-0.0967,1.1509c-0.841,1.2415,0.1954,1.0105-0.5652,2.1514l0.0796-0.0242
							c-0.2208,0.7616-0.4442,1.5322-0.6687,2.3068l-0.3422,1.161l-0.0773,0.1555c-0.0947,0.1828-0.1371,0.207-0.1738,0.388
							c-0.0293-0.076-0.059-0.0756-0.1328-0.1096l0.0484-0.1917l-0.019-0.2147l-0.0034-0.0374l-0.0017-0.017
							c-0.0061-0.0248,0.0126,0.0368-0.019-0.0764l-0.2601-0.9357c-0.3569-1.2436-0.7125-2.4826-1.0675-3.7196
							c-0.874-2.9869-1.7451-5.9639-2.6195-8.9522c-1.6227,0.5732-3.2513,1.1484-4.886,1.7258
							c-0.5284,0.2865-0.1172,0.3727-0.5621,0.6496c-0.2125,0.0665-0.6818,0.247-0.7254,0.1325
							c0.3831-0.2082,0.1181-0.2287,0.2404-0.3233c-0.3171,0.1201-0.7722,0.2484-1.0744,0.3403
							c-0.043-0.0007-0.0577,0.0067-0.1206,0.1086c0.0054,0.054,0.0269,0.1022,0.0644,0.1447
							c-0.0596,0.0918-0.153,0.0776-0.1934,0.0834c0.0496-0.1035,0.1059-0.307,0.147-0.3625
							c-0.171,0.2698-0.2453,0.2516-0.1661,0.1469c0.0531-0.0954,0.2158-0.2615,0.0652-0.1252
							c-0.2992,0.2852-0.6474,0.5718-1.141,0.8976c-0.4856,0.3229-1.1094,0.6824-1.7517,1.039
							c0.007-0.0334,0.0222-0.0697,0.0456-0.109c0.2981-0.1042,0.8489-0.5634,1.0907-0.6327
							c0.0946-0.1366-0.627,0.2744-0.661,0.2293c-0.3082,0.1995-0.7628,0.4791-1.0518,0.6226
							c0.005-0.0452,0.5971-0.403,0.6784-0.4766c0.0265-0.0186,0.0559-0.0393,0.0886-0.0623l0.1115-0.0544l0.4359-0.2339
							c0.1747-0.1107,0.1855-0.1225,0.1116-0.0854c-0.0476,0.0177-0.3395,0.174-0.3494,0.1653
							c0.658-0.3833,0.8845-0.5451,1.5107-0.8798c-0.6971,0.3493-0.2295,0.0877-0.5498,0.2041
							c-0.6874,0.3987-0.6127,0.2854-1.0201,0.4831c-0.0238,0.0451-0.0411,0.0846-0.052,0.1186
							c0.6802-0.4643-0.0285,0.0577,0.9506-0.4723c-0.2693,0.1597-0.6334,0.3442-0.902,0.4704
							c-0.2715,0.1287-0.4708,0.2195-0.5539,0.3161c-0.0559-0.0323,0.0615-0.1388,0.1353-0.2201
							c0.0812-0.0877,0.1143-0.1465,0.0535-0.225c-0.1582,0.1963-0.4079,0.1464-0.7992,0.3882
							c0.4178-0.3731,0.3585-0.1991,0.9282-0.488c0.1911-0.1743,0.588-0.3375,0.3356-0.353c0.486-0.3246,0.381-0.0917,0.7533-0.2848
							c0.1455-0.0166-0.1277,0.1524-0.295,0.2895c-0.1677,0.1375-0.17,0.1918,0.6782-0.1935
							c-0.0733,0.071,0.5353-0.189,0.4557-0.1344c0.333-0.1966,0.8924-0.4516,0.5485-0.3129l-0.8648,0.3554
							c0.0534-0.0557-0.4635,0.1246-0.3031,0.0208c0.1807-0.0429,0.5662-0.2109,0.5653-0.2423
							c-0.117,0.0455-0.1245,0.0649-0.241,0.0972c0.0892-0.1065-0.3229-0.0178-0.1408-0.2489
							c-0.3684,0.2167-0.5938,0.294-1.1749,0.6262c-0.4001,0.0708,0.1501-0.17,0.265-0.3025
							c0.0292,0.0121,0.0062,0.0394,0.1394-0.0211c-0.0073-0.0377-0.009-0.0803-0.0051-0.1278
							c0.29-0.1914,0.3926-0.1806,0.5055-0.1769c0.1088,0.0073,0.2299,0.0056,0.4229-0.095c0.402-0.1171,0.0759-0.1945,0.3326-0.286
							c-0.0302,0.0014-0.062,0.003-0.0853,0.0041c0.0323-0.0234,0.0579-0.039,0.0791-0.0493l-0.018-0.0035
							c0.1251-0.1484,0.3014-0.2787,0.2524-0.4419c0.0781,0.0257,0.2622-0.2536,0.3332-0.3786
							c0.1351-0.1992,0.4355-0.7016,0.8612-0.7391l-0.0186,0.018c0.4123-0.3169,0.7695-0.5223,0.7397-0.3855l0.6745-0.5008
							l0.0642,0.2117c0.5414-0.5405,0.4068-0.5802,0.6662-1.0803c0.1959-0.0869,0.7248-0.5391,1.0778-0.8725
							c-0.0289-0.4892-0.0789-0.9608-0.1188-1.1621c0.0069-0.0603,0.0059-0.1525-0.0077-0.3039L51.1008,28.74
							c-0.0026-0.5955-0.108-0.5214-0.1163-0.9141c-0.0173,0.082-0.0286,0.0937-0.0009-0.1263
							c0.0032-0.0664,0.0066-0.1383,0.0107-0.226c0.0219,0.0194,0.0202,0.1076,0.0113,0.1958l0.0662-0.073
							c0.2057-0.4804-0.1358-0.7281-0.0702-1.2382c0.0086,0.0485,0.0241,0.1299,0.0231,0.182
							c0.0489-0.287,0.3276-0.7032,0.1506-0.8184c0.0211-0.0665-0.0159-0.1666-0.0614-0.2639l0.0264-0.2112
							c-0.0078,0.0865-0.0171,0.1531-0.0271,0.2082c-0.0605-0.1296-0.1347-0.2523-0.0919-0.2699l0.0224-0.7317
							c0.0265-0.1393-0.0022-0.3269-0.0335-0.4787l0.0816-0.1258c-0.0177-0.2662,0.0322-0.2693,0.056-0.238
							c0.2737-0.9305-0.1762-1.4272,0.0574-2.4316c-0.1436-0.188-0.1994,0.2263-0.274,0.2593
							c-0.1107-0.1538-0.2177-0.7236-0.2995-1.0084c0.1819-0.6193,0.3395-1.3228,0.6251-0.9818
							c0.0143-0.3848-0.1719,0.0054-0.2739-0.2811l0.0101-0.0501c-0.0297,0.1467-0.1237,0.2342-0.2297,0.3121
							c-0.1505,0.0034-0.2072-0.669-0.1669-0.8234l0.2209,0.321c-0.0871-0.6274-0.4145-0.8953-0.6448-1.711
							c0.0752-0.5161,0.2834,0.2019,0.4793,0.4071l-0.0654-0.6291l0.1678,0.3452c-0.0502-0.39-0.2095-0.8571-0.1521-1.1674
							c0.1653,0.7177,0.1463-0.198,0.3698,0.8159c0.0538-0.0105-0.278-1.0808-0.0521-0.4896
							c-0.1856-0.7213-0.0874-0.0895-0.1425-0.1429c-0.2228-0.5533-0.163-0.8421-0.1889-1.2367
							c0.0264,0.0365,0.0481,0.0612,0.0625,0.0672c0.1377,0.4601,0.0582,0.3761,0.3087,0.9359
							c-0.063-0.2826,0.0012-0.3219,0.1908,0.2031c-0.1188-0.4924,0.1845,0.2331,0.2804,0.4044
							c-0.1196-0.25-0.3797-0.8865-0.3909-1.1666c0.0639-0.0196,0.1504,0.0574,0.417,0.5232l-0.2129-0.481
							c0.0634-0.1214,0.1945,0.1679,0.3188,0.4845c0.1288,0.3237,0.2486,0.671,0.3945,0.8329
							c-0.1183-0.0063-0.1935-0.1262-0.2631-0.0154c0.0993,0.0166,0.3425,0.1827,0.589,0.4344
							c0.0756,0.268,0.1384,0.5156,0.1884,0.7427c0.07-0.1103,0.2497,0.4179,0.3283,0.2402c0.2359,0.5795-0.337-0.173-0.3796-0.0185
							c0.1338,0.3135,0.2188,0.3228,0.312,0.3779c0.0872,0.0457,0.1877,0.1453,0.25,0.4765
							c-0.0719-0.0204-0.1398-0.0344-0.2036-0.0418c0.0401,0.074,0.1202,0.1663,0.1877,0.2537
							c0.0883,0.1205,0.1677,0.242,0.1426,0.2729c0.0458-0.0287-0.0402-0.1253-0.1245-0.2596
							c0.356-0.0391,0.8138,0.8736,1.0457,0.6166l-0.1678-0.3082c0.3399,0.4206,0.7341,0.6247,0.8542,1.0367
							c0.0779,0.3258-0.3092-0.0687-0.4822-0.1823c0.2505,0.4396,0.5276,0.1538,0.8212,0.6823
							c-0.1232-0.2974,0.0093-0.3089,0.1829-0.1931c-0.1672-0.3073-0.5007-0.9587-0.551-0.776l0.0399,0.1243
							c-0.0898,0.0188-0.2182-0.1257-0.3051-0.183c-0.2536-0.4044,0.0093-0.2682,0.0131-0.3836
							c-0.3771-0.7008-0.3162,0.122-0.6934-0.4995l0.0042-0.1147c-0.2528-0.2412-0.5935-0.7624-0.7569-0.6385
							c-0.0145-0.2258-0.1433-0.3909-0.2644-0.5232c-0.124-0.137-0.239-0.2391-0.3121-0.4763
							c0.0325-0.3925,0.2188-0.0805,0.4173,0.3013c0.2019,0.3873,0.386,0.7966,0.6039,0.9012
							c-0.0751-0.2109-0.0068-0.2081,0.1159-0.1212c0.1221,0.086,0.3022,0.2619,0.3811,0.2866l-0.917-1.0776
							c-0.016-0.1469-0.1753-0.8443-0.3824-0.8507l0.0598,0.1158c-0.3352-0.4336-0.2781,0.0219-0.5205-0.4859
							c-0.0368-0.1399,0.0475-0.1471,0.0729-0.1668c-0.2489-0.4782-0.2119-0.136-0.3625-0.2949
							c-0.244-0.4688,0.107-0.1937-0.1074-0.6345c-0.2626-0.0752-0.4801-0.8467-0.7568-1.267
							c0.1146,0.4351-0.0927,0.2765-0.2084,0.2566c-0.1235-0.0325-0.1538,0.0759,0.141,0.7678
							c-0.1117-0.0634-0.2055-0.098-0.2812-0.104c-0.1337-0.3444-0.1613-0.5651-0.1713-0.7779
							c-0.014-0.2194-0.0056-0.4232-0.1821-0.917l0.4724,0.7716c-0.2018-0.7528-0.5494-0.9525-0.8827-1.4466
							c0.0157,0.3529-0.0066,0.5461-0.1266,0.3708c-0.0055,0.4742,0.0406,0.4367-0.115,0.9891l0.3096,0.6122
							c-0.0633,0.271-0.2295,0.0649-0.2859-0.0372c0.0258,0.3498,0.023,0.603,0.0151,0.8629
							c-0.047-0.1595-0.0906-0.3485-0.1105-0.5752c-0.1637,0.0761-0.0968,0.348-0.0032,0.6452
							c0.0818,0.3576,0.0775,0.6619,0.0811,0.9945l-0.1197-0.4737c0.0297,0.2537,0.0675,0.556,0.123,0.6499
							c0.0037,0.1403,0.0132,0.2811,0.0343,0.4273c0.0512-0.0295,0.225-0.0318,0.2968-0.3196
							c-0.0502,0.4454-0.0543,0.9282-0.0751,1.3795c-0.0206,0.4581-0.058,0.8859-0.1714,1.394
							c-0.0868-0.0394-0.2033-0.5326-0.2115-0.3966c-0.0166,0.263,0.0171,0.6286,0.0679,0.7586
							c0.0511,0.1457,0.1228,0.2391,0.187,0.2206c0.0068,0.0871,0.0119,0.1525,0.0164,0.2102
							c-0.0726,0.074-0.1501,0.165-0.1597,0.3461c-0.0262,0.0421-0.0485,0.1111-0.0557,0.2416
							c0.2388,0.123,0.1342,0.8553,0.2447,1.0117c0.0211-0.1726,0.0152-0.3834,0.0031-0.5974
							c0.1634,0.3036,0.3489,0.5742,0.2264,0.8135c-0.161-0.5662-0.2344,0.6115-0.3161-0.2448
							c-0.2883,0.6086,0.2206,0.3105,0.1264,0.9505l-0.1102,0.4148c-0.1732-0.0596-0.0986-0.6659-0.1614-0.5687l0.027,0.2859
							c-0.1344-0.2839-0.07-1.3656-0.2757-2.0267l-0.0705,1.3363c0.2366,1.6774,0.0409,3.7791,0.4447,5.1989l-0.0059-0.0605
							c0.0172,0.0245,0.0495,0.0359,0.1152,0.0548l-0.0418,0.0651l0.135,0.2799c-0.0774,0.162-0.1213,0.3934-0.1606,0.6484
							c-0.0395,0.243-0.0783,0.3044-0.1402,0.4177c0.1042-0.1109,0.104-0.1257,0.2329-0.1166
							c0.1547,0.0595,0.2304,0.1164,0.2043,0.3555c-0.0258,0.0162-0.0559,0.0352-0.0897,0.0565
							c-0.1123-0.0641,0.0174-0.1724-0.2311-0.0857c0.1362-0.0385,0.1492,0.064,0.053,0.1677
							c-0.1103,0.0431-0.182,0.0734-0.3115,0.1464c-0.1298,0.0733-0.2384,0.121-0.2807,0.0764
							c0.0723-0.1064,0.1756-0.1402,0.2512-0.1814c0.0726-0.106-0.4542,0.2469-0.2407-0.0703l-0.344,0.3437
							c-0.2811,0.1077,0.037-0.2448-0.0912-0.2208c-0.5558,0.5905-0.6844,1.0735-1.1823,1.6138
							c-0.0165-0.0716-0.1892-0.2833-0.1433-0.2182c-0.4786,0.3051-0.7173,1.0124-1.1863,1.447
							c0.0182-0.1225,0.2202-0.2544,0.3409-0.4106c-0.1929,0.151-0.3811,0.2984-0.5659,0.443
							c-0.2539,0.2061-0.5029,0.4082-0.7484,0.6075c-0.5383,0.4379-1.0611,0.8631-1.5806,1.2857
							c-1.0768,0.869-2.1968,1.7496-3.6999,2.8771c0.0559,0.0751,0.1323,0.1326,0.229,0.1725l-1.1325,0.7326
							c-1.8563,1.4551-3.1338,2.6001-4.1482,3.5551c1.0659-0.418,2.1532-0.8443,3.3176-1.3009
							c0.8948-0.3382-0.1686,0.2678,0.001,0.291c1.9755-0.6718,3.2801-1.4737,5.0449-2.1708
							c-0.3637,0.2212-1.2724,0.8021-0.4593,0.524c0.2912-0.1899,0.5783-0.4275,0.9968-0.524l-0.3775,0.2262
							c0.2992,0.0267,0.9132-0.3189,1.8366-0.5916c0.8758-0.3158,1.761-0.6862,2.522-1.0526l0.5478-0.2739l0.3186-0.2062
							c0.2049-0.1392,0.4-0.2837,0.5843-0.4317c0.9141-0.2962,0.0076,0.3176,0.1998,0.3135
							c-0.6725,0.131-0.4267,0.205-0.5326,0.3456c0.311-0.1953,0.7027-0.3868,0.944-0.2602
							c0.4661-0.1794,0.6817-0.2469,1.1012-0.5398c-0.2111,0.1473-0.4481,0.1174-0.2592-0.0464
							c0.408-0.0717,1.3617-0.4933,1.3915-0.2385c0.2051-0.0802,0.4165-0.1629,0.6431-0.2515
							c0.3804,1.3373,0.7882,2.7714,1.1832,4.1599c0.242,0.375-0.0416-0.3254,0.1105-0.1249
							c0.3331,0.5504,0.0519,0.4957,0.3179,0.9366l-0.1879-0.1594c0.1849,0.7164,0.6447,1.4016,0.964,2.0553
							c-0.1821-0.0712,0.0391,0.6013-0.2144,0.0549c0.1218,0.3294-0.4287,0.9304-0.2172,1.151l0.5133-0.5584
							c0.0665,0.0012,0.1646,0.4841,0.1922,0.425c-0.0381,0.3295-0.0788,0.732-0.0198,0.9353
							c-0.1289,0.1445-0.2421-0.3768-0.3192-0.6576c-0.2746,0.0336,0.1034,0.9923-0.2542,0.6556
							c0.2158,0.5879,0.11-0.1241,0.3104,0.2067l0.0945,0.54l-0.0282-0.4297c0.2045,0.4146,0.4474,0.5071,0.4687,1.1326
							l0.4306,0.5315c-0.1772,0.1643,0.17,0.7348,0.2694,1.2621l-0.2111-0.2362c0.2114,0.7101,0.259,1.0095,0.3353,1.5612
							c-0.2627-0.2277-0.1587-0.7169-0.3522-0.7401l0.1991,0.9223c0.0905-0.1279,0.3032,0.2648,0.1918-0.3896
							c0.3768,0.4869,0.5853,0.5259,1.0258,2.1256c0.1282,1.202-0.3139-0.4211-0.3262,0.2827
							c0.2561,1.0508,0.4809,1.3415,0.6462,1.3962c0.1694,0.069,0.2879-0.0676,0.4154,0.4215
							c0.2321,1.0262,0.3014,0.9785,0.4302,1.2234c0.047-0.269,0.1049-0.5639,0.1898-0.9023
							c-0.0803,0.8657,0.2339-0.2906,0.3318-0.1295l-0.1029,0.9726c0.097-0.5432,0.2126-0.7637,0.2088-0.3409
							c-0.0671-0.5021,0.4067-2.2561,0.589-3.3105l-0.1237-0.1754c0.1436-0.7623,0.292-1.7345,0.4888-2.3169
							c0.2068-0.9949,0.035-0.9133,0.0361-1.622c0.2277-0.2824,0.3975-0.2408,0.5305-0.0406
							c-0.1494,0.2388-0.2218,0.7072-0.3784,1.1034c-0.1019,0.6663-0.1646,1.3852-0.2679,2.1493
							c-0.1012,0.756-0.2438,1.5609-0.4522,2.1972c-0.0007,0.7857,0.0609,0.5055,0.156-0.0287
							c0.0953-0.5349,0.2051-1.2521,0.3408-1.4933c0.0085,0.0612-0.0009,0.1275-0.0134,0.1905
							c0.0178-0.0642,0.034-0.1189,0.0555-0.1655c-0.1132,0.6229-0.3192,1.656-0.2734,2.2816
							c0.2527-1.1227-0.0182-1.4938,0.3845-2.3548c0.1474-0.9987,0.5569-1.3245,0.7376-1.9037
							c0.0215-0.3748-0.0362-0.6158-0.0491-0.9233c-0.0065-0.1536-0.0022-0.3225,0.0285-0.5324
							c0.0236-0.1828,0.1073-0.5344,0.1624-0.6834c0.0195,0.0721,0.0428,0.1294,0.0591,0.2136l0.0245,0.3454
							c0.1241-0.4678,0.1097-0.4908,0.1142-0.6271c-0.0039-0.1043-0.0296-0.1663-0.0557-0.2261
							c-0.0523-0.1197-0.1061-0.2307,0.0103-0.6539c-0.1041,0.2918-0.1359-0.3442-0.2908,0.2218
							c-0.0418-0.3092,0.0988-0.9332,0.2822-1.3778c-0.0014-0.1288-0.0667-0.0444-0.1341-0.0857
							c-0.284,0.4712-0.0663,0.8451-0.3918,1.2075l0.1391,0.416c-0.2089,0.4525-0.4085,0.4516-0.4237,0.1369
							c-0.0255,0.1364-0.0242,0.2622-0.0905,0.3492c-0.3712-0.0108,0.2743-0.5372,0.0207-0.7797l-0.063,0.3419
							c-0.2651,0.0857,0.0063-0.8355,0.1357-1.2636c0.2351-0.4609,0.3915-0.8982,0.5647-0.8882l-0.1018,0.6752
							c0.221-0.3059,0.143-0.8587,0.25-1.2391c0.0292-0.0193,0.0557-0.0516,0.0792-0.0931
							c-0.0197,0.0158-0.0375,0.023-0.0535,0.0188c0.0295-0.079,0.0685-0.1459,0.1242-0.1974
							c0.0966-0.3331,0.1253-0.8516,0.26-1.1499l-0.1571,0.0002l0.0716,0.0639c-0.0865,0.3055-0.2861,0.698-0.3348,0.437
							c0.0798-0.7191,0.3996-0.7844,0.5708-0.9156c0.1836,0.2184-0.1797,0.6752-0.1952,1.0475
							c0.2782-0.1535,0.2082-0.698,0.5435-1.3745c0.1696,0.3492-0.2216,0.8285-0.0375,1.0449
							c0.1932-0.5652,0.0592-0.7615,0.2806-1.3514c0.0929,0.1073-0.0517,0.7007,0.1039,0.7002l0.172-0.3708
							c-0.2369,0.9593,0.3479-0.0875,0.2117,0.6734c0.1926-0.3253-0.0703-0.5433,0.2159-1.0028
							c-0.143,0.1114-0.4418,0.46-0.4116-0.0436l0.2141-0.5224c0.1775-0.1953,0.1117,0.6326,0.3041,0.3065l0.0656-0.5884
							c-0.0778,0.0001-0.1858,0.2618-0.2413,0.0651c0.0411-0.0767,0.0529-0.1532,0.0474-0.2313
							c-0.0126-0.0512-0.0523-0.0668-0.0896-0.1154c-0.0779-0.0845-0.169-0.2133-0.1902-0.3522
							c0.0198-0.0655,0.0395-0.1237,0.0612-0.1642c0.0858-0.0003,0.1588,0.0138,0.2186,0.0549
							c0.0551-0.0664,0.1444-0.1241,0.251-0.1775c0.1166-0.0551,0.4007-0.1324,0.5947-0.1934
							c0.4297-0.1293,0.8519-0.2559,1.1965-0.4245c-0.4689,0.2367,0.0645,0.2503,0.3805,0.3098
							c-0.5645,0.1323-0.5275,0.3658-0.4616,0.5081c0.3426-0.0864,0.5274-0.3664,0.3382-0.4133
							c0.5965-0.0074,0.3715-0.2323,0.9084-0.1657c0.3443,0.0221-0.1243,0.259,0.005,0.3264
							c0.6281-0.1004,0.1203-0.313,0.8101-0.3787c-0.0318,0.0376-0.092,0.0581-0.0306,0.0917
							c0.376-0.016,0.7516-0.1955,0.8101-0.3247c0.4442,0.2341,1.0954-0.2278,1.0708,0.0804
							c0.8738-0.2364-0.1608-0.1378-0.0038-0.2717c0.3402-0.1951,1.0316-0.2069,1.2496-0.1973
							c-0.2177,0.0453-0.4047,0.1616-0.624,0.1532l0.2236,0.1716c0.5653-0.0249,0.7199-0.1718,0.8705-0.3139
							c0.1156-0.1359,0.3557-0.2899,1.2092-0.3495c-0.8072,0.2532-0.2071,0.1967-0.6094,0.417
							c0.2714-0.1009,1.7111-0.2966,0.7625-0.2902c0.6649-0.1,1.158-0.1495,1.67-0.2017c0.5052-0.1707,1.0461-0.325,1.1231-0.4768
							c0.8792-0.1339,1.8599-0.1577,2.5485-0.1876c0.3938-0.1073,0.8234-0.196,1.2899-0.2787
							c-1.2482-0.6644-2.3223-1.3683-3.9387-2.0924l0.115,0.0755c-0.6835-0.3858-0.6202-0.2738-0.5853-0.1725
							c0.0353,0.1015,0.0375,0.1898-0.6172-0.163c0.5265-0.0085-0.6092-0.5193-0.9719-0.8653
							c-0.2158-0.1334-0.4333-0.2599-0.6485-0.3792c-0.1727-0.0915-0.3397-0.18-0.504-0.2671
							c-0.2502-0.1234-0.4959-0.2293-0.7384-0.3349c-0.4849-0.2112-0.9565-0.421-1.4236-0.7668
							c0.0333-0.0427,0.1289-0.0639,0.3282,0.035c-0.7371-0.4834-1.3858-0.771-2.0782-1.155l0.045-0.0115
							c-0.5113-0.3892-1.0504-0.6644-1.6103-0.9127c-0.2808-0.1194-0.5652-0.2403-0.8544-0.3632L65.1104,28.8
							c-0.0367-0.0118-0.0474-0.0101-0.0735-0.0171c-0.0452-0.0102-0.0932-0.0238-0.1415-0.0409
							c0.0547-0.0072,0.1356-0.073,0.1742-0.0909c-0.027-0.0393-0.0533-0.0749-0.0956-0.0997
							c0.0288-0.0804,0.0037-0.1363-0.1103-0.2514c0.4457-0.5786,0.0755-0.4928,0.6049-1.3622
							c0.0602-0.042,0.0098,0.1084-0.0012,0.1754c0.2297-0.4485,0.3109-0.7924,0.4908-1.2627
							c0.1792-1.1064-0.051-1.4667,0.4309-2.6665c0.3503,0.0415-0.1565,0.7813,0.0978,0.8915
							c0.0187-0.2633,0.0183-0.497,0.2036-0.8108c0.065,0.2439,0.0675,0.0697,0.1438,0.248
							c0.1683-0.2312-0.015-1.1525,0.0146-1.1374c-0.0594-0.0343-0.1221,0.0437-0.1895,0.2893
							c-0.0281-0.0878-0.0194-0.2074,0.0111-0.3473c0.058-0.2269,0.1452-0.4972,0.2409-0.7814
							c0.1909-0.5665,0.4279-1.2264,0.5331-1.7025c-0.1137,0.3404-0.504,1.3524-0.5705,1.019
							c0.482-1.2839,0.1913-1.4687,0.2125-1.9942c0.2637-0.575,0.3229-0.521,0.347-0.3197
							c0.0272,0.1915,0.0162,0.5395,0.2142,0.3154c0.1779-0.2695,0.6216-1.0311,0.5766-0.5736
							c0.4658-1.3034,0.4265-1.8696,0.6466-2.7424l0.1079-0.1148c0.2307-0.7834,0.3079-1.3627,0.4186-1.9184
							c-0.575,0.5382-1.0437,0.9571-1.3565,1.1366l0.3561-0.1924c-0.2376,0.2495-0.7508,0.6477-1.2101,1.2087
							c0.1909-0.3059-0.3931,0.0436-0.0005-0.4027c-0.4596,0.6167-1.0931,1.2121-1.7024,1.7843
							c-0.6073,0.5706-1.1934,1.1205-1.4175,1.5301c-0.2421,0.0814-0.0578-0.2631,0.0345-0.4472
							c0.6504-0.4966,0.8129-0.5367,1.2245-1.066c-0.5398,0.4525-0.9289,0.6525-0.8324,0.4647
							c-0.6279,0.8133-1.8425,1.9331-1.9,2.2757c-0.3281,0.1232-0.611,0.2772-0.6423,0.0573
							c-0.9976,0.9771,0.9024,0.0126-0.3107,1.0112c-0.6689,0.3145,0.3806-0.637-0.421-0.056l0.1215-0.1392
							c-0.8608,0.0784-0.1641,0.5872-0.7975,1.0894c-0.2526-0.1362,0.3131-0.5049-0.2379-0.2965
							c-0.5273,0.5228-0.5263,1.0326-1.1506,1.4381l0.0175-0.1609c-0.3515,0.3179-1.0949,0.8616-1.4445,1.1778
							c-0.0506-0.0261,0.0071-0.0641,0.0672-0.1325c-0.7363,0.4779-0.1945,0.3368-0.8615,0.6497l-0.0758,0.2297
							c0.3349-0.1576,0.9521-0.4992,1.2049-0.9047c-0.2528,0.4055,0.7617-0.1931,0.7326,0.1247l0.0114-0.1274
							c1.1609-0.4533,2.368-1.3876,3.6193-2.2311c0.2754-0.4038,0.614-0.6481,0.941-0.8693
							c0.2331-0.1435,0.415-0.2311,0.6577-0.5534c0.0929-0.4794,0.1053-0.1679,0.5873-0.6471
							c-0.2684,0.2721-0.1192,0.4051-0.0378,0.3921c0.1213-0.2042,0.2434-0.3432,0.3688-0.4835
							c-0.001,0.0697,0.0579,0.1367,0.1314,0.1401c0.0785-0.0007,0.184-0.0752,0.4443-0.427
							c0.043,0.0937-0.2221,0.3127-0.3551,0.5062c-0.191,0.3643,0.3587-0.4581,0.2414-0.2225c0,0-0.0521,0.0729-0.1113,0.1558
							c0.0443-0.0361,0.0854-0.0697,0.1154-0.0941c-0.1065,0.2957-0.2753,0.6262-0.4037,0.9255
							c0.4909-0.5426,0.0776,0.1355,0.1883,0.1468c-0.1249,0.0684-0.2275,0.3417-0.3295,0.4735
							c0.0801-0.0029,0.1539,0.014,0.2215,0.0506c0.148,0.1706-0.2529,0.351-0.223,0.6018l0.0773-0.0632
							c0.0024,0.0681-0.0062,0.1144-0.0572,0.2531c-0.0579,0.1607-0.1343,0.3381-0.2182,0.5129
							c-0.1678,0.3495-0.3657,0.6884-0.5065,0.8622c-0.1855,1.1893-0.4561,2.1798-0.7736,3.0947
							c-0.1587,0.4574-0.3292,0.8959-0.5066,1.3309c-0.2659,0.7015-0.5326,1.405-0.8056,2.1252
							c0.7665,0.4605,1.5543,0.9339,2.3954,1.4392c0.5885,0.3502,1.23,0.7034,1.9585,1.0555c0.28,0.045-0.1009-0.2285,0.1488-0.2496
							c0.3863,0.1658,0.4647,0.2221,0.803,0.3974c-0.2589-0.2306-0.2589-0.1155-0.1811-0.17l-0.556-0.1989
							c-0.0144-0.0331,0.0467-0.0108,0.018-0.0754c-0.1866-0.0676-0.4188-0.1222-0.6338-0.2548
							c0.3561,0.1001,0.551-0.0508,0.9476,0.2571c-0.0481,0.0095-0.1091-0.012-0.2329-0.056
							c0.3518,0.2076,0.4203,0.122,0.6629,0.3187c0.3073,0.2203,0.2586,0.1157,0.2553,0.2247l0.971,0.6544
							c0.6392,0.0357,1.1506,0.5982,1.3049,0.7086c-0.2066,0.1183-0.71-0.3078-1.0559-0.2675l0.3013,0.3275l0.0979-0.1306
							l0.507,0.3201l-0.0442,0.0116c0.092-0.0224,0.1862-0.0432,0.2949,0.0778c0.0124,0.0318,0.0431,0.0982-0.0201,0.0752
							l0.4188,0.1223c-0.2977,0.0307,0.3071,0.22,0.1619,0.3606c0.1017,0.061,0.0759,0.0521,0.0918,0.0637l0.0277,0.0193
							c0.0191,0.0102,0.0402,0.0158,0.0646,0.0199c0.0641,0.0072,0.1205,0.0135,0.1752,0.0197
							c0.1189,0.0133,0.2868,0.0763,0.1185,0.1355c0.1308-0.0332,0.7094,0.0333,0.7597,0.1
							c-0.0528,0.0253-0.1612,0.0169-0.3734-0.0127l0.3692,0.0847c-0.1288-0.0028-0.2305-0.0049-0.3294-0.007
							c-0.2819-0.0225-0.1513,0.0416-0.4328,0.0145l-0.1694-0.0563c0.1804,0.07,0.2277,0.1429,0.0827,0.1368l-0.2227-0.1327
							c-0.1807-0.0891,0.365,0.2973,0.0795,0.2377c0.1215,0.1638,0.3563,0.2173,0.579,0.3535
							c-0.2794-0.1388-0.5499-0.1189-0.4117-0.0094c-0.2809,0.1254-0.2195,0.0341-0.2544-0.0045
							c-0.0275,0.0237-0.0383,0.0444-0.0859,0.0717l-0.1866,0.0895c-0.4712,0.0745-0.192-0.2089-0.0368-0.3423
							c-0.4038,0.271-0.9055,0.2194-1.4083,0.277l0.1873-0.1164l-0.6603,0.0834c-0.4019,0.2159-0.9977,0.3322-1.5619,0.3559
							l0.3388-0.3039c-0.4087-0.0548-0.1846,0.1171-0.2799,0.1754c-0.5908,0.2238-0.7505,0.0863-1.0973,0.0102
							C65.0236,36.3685,63.9403,35.9059,63.1645,36.4095z M51.0382,23.8498l-0.0342,0.0927
							C50.9587,23.7354,50.9176,23.6176,51.0382,23.8498z M51.0762,29.48c-0.1104-0.8708,0.0086-0.5845,0.0737-0.654
							c-0.0218,0.3911-0.0171,0.6967-0.0107,0.9879c-0.2701,0.235-0.5556,0.4875-0.8681,0.6999
							c0.0959-0.0196,0.1701,0.0014,0.2264,0.0057c-0.2228,0.1773-0.3994,0.2602-0.5478,0.2272
							c0.0249-0.1242,0.1577-0.2544,0.38-0.4263c0.2376-0.1851,0.5295-0.3816,0.7505-0.5329
							C51.1084,29.5206,51.1237,29.3594,51.0762,29.48z M49.6308,15.8287c0.0186,0.0654,0.0383,0.1346,0.0574,0.2015l0.0001,0.0051
							L49.6308,15.8287z M49.9288,20.2905c-0.0511,0.0473-0.0778,0.1282-0.0953,0.2268
							C49.8967,20.4559,49.9487,20.3966,49.9288,20.2905z M49.7541,26.7749c-0.0976,0.1517-0.0608,0.4924-0.0329,0.7403
							C49.7299,27.3988,49.757,27.1898,49.7541,26.7749z M55.4997,42.9291c-0.0916-0.178-0.2905-0.5048-0.2677-0.1605
							c0.1277,0.1316,0.0705,0.4734,0.2347,0.5683c-0.001,0.019-0.0012,0.0234-0.0019,0.0355
							C55.4893,43.161,55.511,42.9864,55.4997,42.9291z M61.0514,42.3796c0.0865,0.0593,0.1537,0.2263,0.2498,0.1555l-0.0216,0.0512
							c0.0449-0.0387,0.0823-0.0714,0.0936-0.0292c0.0587-0.1462,0.1235-0.2991,0.1238-0.413
							C61.1985,42.0113,61.2327,41.6783,61.0514,42.3796z"/>
						<path class="st0" d="M60.2264,50.7348c0.0304-0.1284,0.0535-0.226,0.0727-0.307
							C60.2793,50.5112,60.2568,50.6064,60.2264,50.7348z"/>
						<path class="st0" d="M61.4878,42.1746c-0.0162-0.0188-0.0941,0.1516-0.1866,0.3605
							C61.3515,42.501,61.4108,42.4027,61.4878,42.1746z"/>
						<path class="st0" d="M53.9618,20.7186l-0.1285-0.1441l0.1204,0.3742c0.4288,0.4813,0.564,0.434,0.7837,0.4808
							c-0.4302-0.4024-0.5516-0.7379-0.9772-1.3342L53.9618,20.7186z"/>
						<path class="st0" d="M54.6996,19.875c0.0023-0.077,0.0091-0.2692-0.0327-0.3556l-0.1329-0.0282L54.6996,19.875z"/>
						<path class="st0" d="M49.0735,10.4057l0.0285-0.2784l0.3724,0.6917c0.0594-0.0135-0.2657-0.6955-0.4767-1.0418
							C48.9985,9.9577,49.0198,10.1836,49.0735,10.4057z"/>
						<path class="st0" d="M51.7278,17.4458c0.0266-0.0253,0.0568-0.0448,0.0907-0.0584c-0.1259-0.3626-0.2915-0.6063-0.2614-0.3362
							C51.674,17.1163,51.6172,17.2694,51.7278,17.4458z"/>
						<path class="st0" d="M49.1032,13.0809c0.2081,0.7662-0.0703,0.8307,0.1238,1.429
							C49.1661,14.1252,49.3067,13.6014,49.1032,13.0809z"/>
						<path class="st0" d="M51.0222,17.3566c0.1903,0.4006,0.0171-0.2199,0.0585-0.3092
							C51.0836,17.1971,50.8852,16.9181,51.0222,17.3566z"/>
						<path class="st0" d="M49.7606,18.8385c-0.1403-0.1077-0.1376-0.4811-0.1124-0.8601c0.0461,0.1725,0.1129,0.308,0.1381,0.4934
							c-0.1213-0.7281-0.1004-0.7656-0.1764-1.3774c-0.0888,0.4223-0.1363,1.2582-0.3122,1.0553
							C49.4374,18.7181,49.6408,19.2661,49.7606,18.8385z"/>
						<path class="st0" d="M51.0556,17.94c0.0524-0.0704,0.1846,0.1541,0.1701-0.0449c-0.1009-0.2344-0.2464-0.5259-0.2176-0.1977
							l-0.1703-0.4828C50.7194,17.2138,51.0594,17.6273,51.0556,17.94z"/>
						<path class="st0" d="M49.4257,20.9071l0.0708-0.1931c-0.0687-0.2247-0.0894-0.4671-0.1196-0.712
							c-0.0325-0.3697-0.0739-0.7074-0.1808-0.9551C49.2279,20.156,49.3235,20.6179,49.4257,20.9071z"/>
						<path class="st0" d="M50.7659,18.4624l0.2311,0.3113c0.027-0.2353-0.0769-0.0733-0.1336-0.2401
							c0.0315-0.048,0.0503-0.1408,0.0052-0.2687C50.9093,18.6596,50.6822,18.0322,50.7659,18.4624z"/>
						<path class="st0" d="M51.0362,19.6399l0.1028,0.3407c0.0806-0.0811,0.1616-0.14,0.2431-0.1769
							C51.2905,19.4977,51.2407,19.7341,51.0362,19.6399z"/>
						<path class="st0" d="M50.8946,20.1083l-0.042,0.0644l0.3492,0.8479C51.0527,20.5145,51.0732,20.4831,50.8946,20.1083z"/>
						<path class="st0" d="M49.246,29.433c-0.0047,0.0679,0.1072,0.0428,0.1913,0.008c0.0529-0.0078,0.0823-0.029,0.0047-0.0331
							C49.4943,29.2569,48.8904,29.6138,49.246,29.433z"/>
						<path class="st0" d="M51.3922,28.4137c-0.0136,0.0487-0.0185,0.1192-0.017,0.2037c0.0066,0.1046,0.0144,0.2264,0.0227,0.3582
							c0.0347,0.3229,0.0743,0.691,0.1077,1.0017c-0.1039,0.1138-0.1957,0.2142-0.2688,0.2943
							c0.0824-0.0774,0.1832-0.1723,0.2988-0.2809c-0.0144-0.3761-0.032-0.8393-0.0459-1.2025
							C51.4725,28.5426,51.446,28.3925,51.3922,28.4137z"/>
						<path class="st0" d="M51.0868,30.436c0.0302-0.0331,0.0857-0.0939,0.15-0.1644
							C51.1658,30.3421,51.1169,30.3947,51.0868,30.436z"/>
						<path class="st0" d="M46.919,34.7312c0.0374-0.0221,0.072-0.0426,0.1158-0.0686
							C46.9942,34.6866,46.9608,34.7064,46.919,34.7312z"/>
						<path class="st0" d="M46.6398,34.8908c0.061-0.0399,0.0065-0.0116-0.141,0.0697c-0.1902,0.1056-0.3522,0.1955-0.4808,0.2669
							l0.1393-0.0678c0.1965-0.1051,0.4075-0.22,0.7616-0.4284C46.8525,34.7672,47.1612,34.5792,46.6398,34.8908z"/>
						<path class="st0" d="M46.9062,34.8488c-0.1817,0.1302-0.1442,0.0833-0.387,0.2698
							C46.4342,35.1935,46.7692,34.9671,46.9062,34.8488z"/>
						<path class="st0" d="M55.5116,45.7637c0.0408,0.3256,0.1307,0.4978,0.2421,0.3748
							C55.6512,45.79,55.6253,46.0042,55.5116,45.7637z"/>
						<polygon class="st0" points="55.9202,46.6102 55.876,46.7099 55.8856,47.1319 						"/>
						<path class="st0" d="M56.8921,50.734c-0.0214,0.007-0.0659-0.0589-0.1065-0.1484
							C56.8644,50.7896,56.9314,50.9516,56.8921,50.734z"/>
						<path class="st0" d="M56.7463,50.481c0.0119,0.0317,0.0265,0.0704,0.0393,0.1046
							C56.7731,50.5521,56.7586,50.5136,56.7463,50.481z"/>
						<path class="st0" d="M56.696,50.1439l-0.0607,0.0607c0.0264,0.0519,0.0697,0.1684,0.111,0.2764
							C56.7111,50.3766,56.6829,50.2426,56.696,50.1439z"/>
						<path class="st0" d="M57.2306,52.0026l-0.111-1.1623c-0.2816-0.5975,0.2009,1.0966-0.1417,0.7321L57.2306,52.0026z"/>
						<path class="st0" d="M58.0241,54.5452c0.0987,0.4693,0.2402,0.7192,0.3572,0.9669c0.1186,0.2532,0.2159,0.5156,0.2746,1.1779
							c0.065,0.1732,0.1131,0.281,0.143,0.3201c0.1333-0.7929,0.0765-0.955,0.0596-1.2398
							c-0.0186-0.2781-0.0013-0.6636,0.222-1.6817c-0.1739,0.485-0.2477,0.9379-0.2991,1.4129
							c-0.106,0.1215-0.1092,0.9598-0.4582-0.5879C58.572,56.3478,58.1307,54.6958,58.0241,54.5452z"/>
						<path class="st0" d="M58.0256,53.0079c-0.0634,0.2391,0.1795,1.1247,0.2645,1.1139
							C58.22,53.8273,58.1449,52.9236,58.0256,53.0079z"/>
						<polygon class="st0" points="59.1373,55.5224 59.319,55.2154 59.3442,54.7992 						"/>
						<path class="st0" d="M59.7663,53.328l-0.1136,1.0115C59.6908,53.9683,59.9379,53.0731,59.7663,53.328z"/>
						<path class="st0" d="M60.7505,50.3046c0.1983-0.5585,0.0896-1.4839-0.1711-0.1994l0.0801-0.2531
							C60.6731,50.0078,60.9339,49.4871,60.7505,50.3046z"/>
						<path class="st0" d="M61.8204,44.1292c-0.0637,0.2133-0.0884,0.4782-0.0085,0.4513l0.0879-0.6068L61.8204,44.1292z"/>
						<path class="st0" d="M60.9974,44.006c-0.252,0.1454-0.1289,0.5567-0.2979,0.9309
							C60.8551,44.5025,60.8685,44.5627,60.9974,44.006z"/>
						<path class="st0" d="M62.2815,43.5309c0.0406,0.1806-0.0772,0.4128-0.1294,0.5571
							C62.2851,44.0456,62.3622,43.6328,62.2815,43.5309z"/>
						<path class="st0" d="M62.4597,42.5734c0.1315-0.1711,0.1009,0.0716,0.1941-0.0591c0.199-0.3895,0.3009-0.8264,0.2521-1.0901
							c-0.1139,0.0865-0.3843,0.1742-0.4401-0.0228c-0.1027,0.678,0.1795,1.1128-0.19,1.3591l0.204,0.6424
							C62.6748,42.8905,62.3424,42.9338,62.4597,42.5734z"/>
						<path class="st0" d="M61.4468,43.7324l0.2094-0.3226c-0.1319,0.0409-0.0813-0.2323-0.0692-0.4296
							C61.3078,43.0059,61.4846,43.5269,61.4468,43.7324z"/>
						<polygon class="st0" points="63.1793,39.2097 63.1922,38.9958 63.2684,38.9628 63.1653,38.9666 63.164,38.9694 						"/>
						<path class="st0" d="M63.2912,39.1158l0.063,0.0601l-0.0018-0.0063c0.0109-0.0482,0.0374-0.0991,0.0796-0.1528l-0.1411,0.0861
							L63.2912,39.1158z"/>
						<path class="st0" d="M63.5496,39.1519l-0.0264-0.0075c-0.0282,0.0275-0.0504,0.0539-0.0666,0.0792
							C63.4817,39.2008,63.5126,39.1769,63.5496,39.1519z"/>
						<path class="st0" d="M64.9392,38.9577l-0.1594-0.0842c-0.188,0.0629-0.5966,0.0086-0.5334,0.1502
							C64.4053,38.9438,64.8096,38.8909,64.9392,38.9577z"/>
						<path class="st0" d="M69.7157,35.2439c-0.1251,0.0969-0.0313,0.1461,0.0631,0.1968l0.186-0.2251
							C69.9014,35.2366,69.7763,35.2775,69.7157,35.2439z"/>
						<path class="st0" d="M70.6431,35.3919c0.0354-0.0794,0.0461-0.1544,0.0321-0.225c-0.0729-0.0039-0.0137,0.0203-0.1334,0.0846
							c-0.1679,0.0729-0.3239,0.1521-0.6052,0.219c0.1265,0.0123,0.2672-0.0345,0.4156-0.0838l0.2276-0.0689
							c0.0653-0.0168,0.0461-0.0119,0.0784-0.0027C70.6552,35.3404,70.6502,35.366,70.6431,35.3919z"/>
						<path class="st0" d="M69.0676,33.479c0.1111-0.0982-0.0128-0.1421,0.4066-0.021c-0.5574-0.1991-0.9871-0.4624-1.5892-0.7593
							c0.0594,0.1308-0.4536,0.0292-0.2084,0.1172l0.6993,0.2778l-0.1437,0.031C68.6459,33.4655,68.6079,33.1489,69.0676,33.479z"/>
						<path class="st0" d="M59.4546,22.5552c0.0108-0.0963-0.0977-0.0859-0.206-0.0754
							C58.9522,22.8223,59.5148,22.4868,59.4546,22.5552z"/>
					</g>
				</g>
			</g>
		</g>
	</g>
	<g>
		<g>
			<g>
				<g>
					<g>
						<path class="st0" d="M25.3725,66.2183c-0.1812-0.1864-0.0558,0.0656-0.03,0.2987L25.3725,66.2183z"/>
						<path class="st0" d="M25.3426,66.517l-0.0216,0.2113C25.3489,66.6718,25.3511,66.5968,25.3426,66.517z"/>
						<path class="st0" d="M25.2667,68.4834c-0.15-0.4484,0.0296-0.9911-0.1918-1.2681
							C24.9577,67.6736,25.0279,68.3762,25.2667,68.4834z"/>
						<polygon class="st0" points="25.3894,67.8019 25.2711,67.7478 25.4627,68.1396 						"/>
						<polygon class="st0" points="25.49,67.5163 25.4484,67.5742 25.5824,68.1905 						"/>
						<path class="st0" d="M25.2182,70.0126l-0.0431-0.4519c0.1497-0.4277,0.2214,0.2751,0.3222-0.0108
							c-0.0145-0.5651-0.3375-0.1869-0.3016-0.8945c-0.149,0.06,0.0279,1.1308-0.2109,1.0226
							C24.9242,70.2735,25.1248,69.7037,25.2182,70.0126z"/>
						<path class="st0" d="M38.4715,71.4608c0.0147,0.0119,0.0242,0.0196,0.0363,0.0294
							C38.4869,71.4606,38.4698,71.4388,38.4715,71.4608z"/>
						<path class="st0" d="M40.5984,71.6072c0.0701,0.0185,0.0949,0.0181,0.1006,0.0101c-0.0731-0.0248-0.1454-0.0493-0.2255-0.0765
							L40.5984,71.6072z"/>
						<path class="st0" d="M34.2757,71.1299c-0.1006-0.0457-0.1936-0.0816-0.2792-0.1116
							C34.0454,71.0612,34.1273,71.1011,34.2757,71.1299z"/>
						<path class="st0" d="M36.9058,58.4594c0.0067-0.0235,0.0083-0.0501-0.0024-0.0791c0,0-0.0084,0.0014-0.0144,0.0024
							l-0.0374,0.0972L36.9058,58.4594z"/>
						<path class="st0" d="M37.1914,69.7207c-0.1851-0.1233-0.369-0.2423-0.5453-0.3435
							C36.9487,69.589,37.1056,69.6844,37.1914,69.7207z"/>
						<path class="st0" d="M31.3586,70.7242l0.073-0.1044l0.015,0.003c0,0-0.0086-0.0028-0.016-0.0053
							c-0.0268,0.0251-0.0631,0.0641-0.1024,0.1111l0.0264,0.0014L31.3586,70.7242z"/>
						<path class="st0" d="M39.0481,71.0746c0.0701,0.03,0.1293,0.0539,0.1392,0.0549
							C39.1367,71.1095,39.0925,71.0921,39.0481,71.0746z"/>
						<path class="st0" d="M25.1393,77.8402c-0.0167,0.2083,0.0011,0.3353,0.0309,0.4173
							C25.2015,78.086,25.2046,77.9437,25.1393,77.8402z"/>
						<path class="st0" d="M25.2487,81.437l-0.0016-0.0176C25.2213,81.5282,25.2271,81.5204,25.2487,81.437z"/>
						<path class="st0" d="M26.5089,79.7157l-0.0256,0.0481C26.491,79.7886,26.4979,79.7856,26.5089,79.7157z"/>
						<path class="st0" d="M25.1702,78.2575c-0.083,0.4404-0.3664,1.1457-0.0429,0.91l0.0403-0.1674
							c-0.0659,0.3933,0.065,0.4736,0.0809,0.7042c0.0277-0.1062,0.0507-0.1947,0.0735-0.2819
							c0.0044-0.1435,0.0103-0.3331,0.0195-0.6303C25.4001,78.353,25.2457,78.4646,25.1702,78.2575z"/>
						<path class="st0" d="M38.4785,71.5237C38.4482,71.4565,38.3751,71.4745,38.4785,71.5237L38.4785,71.5237z"/>
						<path class="st0" d="M36.606,71.4252l0.2209,0.0516C36.7577,71.4518,36.6893,71.4272,36.606,71.4252z"/>
						<path class="st0" d="M28.9547,73.8108l0.0343-0.0265C28.9678,73.7547,28.9533,73.7853,28.9547,73.8108z"/>
						<path class="st0" d="M37.0314,71.5178l-0.2044-0.041C36.8879,71.5,36.9517,71.5209,37.0314,71.5178z"/>
						<path class="st0" d="M30.5723,71.762c0.0097-0.0086,0.02-0.0179,0.0274-0.0245C30.5916,71.741,30.5815,71.7504,30.5723,71.762
							z"/>
						<path class="st0" d="M21.895,59.9584c0.1649-0.0655,0.2833-0.0032,0.4502-0.0135c0.3141-0.2924-0.7462,0.1599-0.2641-0.145
							c-0.1597,0.0367-0.28,0.0927-0.3906,0.1488l0.2726,0.1495C22.2615,59.9504,21.7368,60.0774,21.895,59.9584z"/>
						<path class="st0" d="M35.285,58.9376l0.0325,0.0019c-0.0189-0.0971-0.0051-0.1398-0.1008-0.1396l-0.0014-0.0032
							c-0.1165,0.0853,0.0101,0.5194-0.2318,0.4984c0.0433,0.0228,0.0973,0.0848,0.1506,0.1622l0.0156-0.0046
							c-0.0083-0.0085-0.0145-0.0184-0.0108-0.0342c-0.0235-0.1073-0.0034-0.171,0.0277-0.2206
							C35.1988,59.1121,35.2454,59.0201,35.285,58.9376z"/>
						<path class="st0" d="M35.1498,59.4527l0.0061,0.009c0.0089,0.0174,0.0205,0.0297,0.0343,0.0386
							c0.0405-0.0231,0.0796-0.038,0.1121-0.0408C35.2715,59.4353,35.2133,59.4348,35.1498,59.4527z"/>
						<path class="st0" d="M25.5342,59.1268l0.0115-0.0301C25.5062,59.1035,25.5094,59.111,25.5342,59.1268z"/>
						<path class="st0" d="M39.4775,68.117c0.1286,0.0605,0.2573,0.1211,0.3657,0.172
							C39.6559,68.1741,39.5512,68.1321,39.4775,68.117z"/>
						<path class="st0" d="M38.4622,57.2576c0.0642-0.02,0.1271-0.047,0.1933-0.0789c0.0351-0.0249,0.065-0.0461,0.1068-0.0757
							L38.4622,57.2576z"/>
						<path class="st0" d="M27.4862,54.2798c0.1416-0.0224,0.0961-0.062,0.0566-0.0779c-0.0266-0.0028-0.0606,0.0044-0.0468-0.0778
							c-0.0377,0.0207-0.0707,0.0462-0.0988,0.0766C27.4099,54.2664,27.4448,54.2474,27.4862,54.2798z"/>
						<path class="st0" d="M21.6695,59.9375c0.0016,0.0072,0.0029,0.0132,0.0017,0.0212c0.0065-0.0034,0.0111-0.0058,0.0192-0.01
							L21.6695,59.9375z"/>
						<path class="st0" d="M26.8646,53.8583c-0.019-0.0237-0.0354-0.0443-0.0528-0.066
							C26.8255,53.8093,26.841,53.8287,26.8646,53.8583z"/>
						<path class="st0" d="M36.2985,58.8769l0.8964-0.5248l-0.2891,0.1073C36.8418,58.6327,36.3493,58.6822,36.2985,58.8769z"/>
						<path class="st0" d="M30.4983,57.5308l-0.0359,0.1653c0.94,0.5241,1.4644,1.6722,2.3433,1.9605
							c0.0632,0.1488,0.1241,0.266,0.1831,0.359c0.0295,0.0465,0.0586,0.0869,0.0873,0.1221
							c0.0603,0.0631,0.1134,0.1186,0.1635,0.1709c0.2097,0.2028,0.374,0.2973,0.5233,0.3694
							c0.3083,0.154,0.5209,0.1819,1.0942,0.9866c0.0619-0.0198,0.1336-0.0428,0.2125-0.068l-0.0531-0.0506
							c0.678-0.3943,1.3615-0.7918,2.0484-1.1913l1.2622-0.7068c0.8238-0.4628,1.6504-0.9271,2.4696-1.3872
							c0.2276-0.0841,0.2048-0.0644,0.7187-0.5146l-0.2413,0.2618l0.004,0.015c-0.1538,0.2038-0.2125,0.2793-0.2548,0.3488
							c-0.3379,0.6203-0.6746,1.2384-1.011,1.856l-1.9488,3.575c-0.8874,1.5911-1.7758,3.1842-2.6685,4.7849l0.1205,0.0837
							c0.9408,0.5321,0.7045,0.1045,1.4583,0.4854c0.2661,0.1927,0.8885,0.6038,0.8194,0.7049
							c-0.6004-0.3292-0.3689-0.0395-0.6017-0.1406c0.1233,0.0849,0.2507,0.1727,0.3818,0.263
							c0.1226,0.0867,0.308,0.2183,0.2655,0.1947l0.0539,0.0714c0.036,0.0429,0.0696,0.0635,0.2128,0.0707
							c0.0434-0.0341,0.0753-0.0761,0.0955-0.126c0.128,0.0071,0.1679,0.0886,0.2003,0.1206
							c-0.1281,0.0102-0.3379,0.076-0.4195,0.0668c0.3716,0.016,0.3938,0.0823,0.2714,0.0857
							c-0.1036,0.0163-0.3199-0.0085-0.097,0.0499c0.4038,0.0727,0.8425,0.1877,1.3781,0.3835
							c0.5299,0.1919,1.1514,0.4611,1.7703,0.7393c-0.0278,0.0162-0.0615,0.0284-0.1011,0.0366
							c-0.2481-0.1723-0.8782-0.3038-1.0787-0.4604c-0.1371,0.0235,0.5741,0.3351,0.5744,0.4006
							c0.3074,0.1082,0.7571,0.2821,1.0208,0.4165c-0.0293,0.0296-0.6058-0.197-0.6903-0.2045
							c-0.0269-0.0082-0.0568-0.0174-0.0899-0.0275l-0.0967-0.0497l-0.4149-0.1939c-0.1713-0.0616-0.1804-0.0591-0.1088-0.0228
							c0.0403,0.026,0.306,0.1489,0.3051,0.1619c-0.6274-0.2599-0.8648-0.3303-1.4402-0.5967
							c0.6238,0.3113,0.1857,0.1199,0.4406,0.2909c0.6542,0.2726,0.5326,0.2874,0.8926,0.4734
							c0.0452-0.0105,0.0829-0.0223,0.1131-0.0356c-0.6975-0.2254,0.0568-0.0148-0.8477-0.4271
							c0.2588,0.1045,0.5861,0.2659,0.8204,0.3912c0.2376,0.1259,0.4094,0.2207,0.5234,0.2229
							c0.0066,0.0633-0.1327,0.0411-0.2307,0.0363c-0.1065-0.0064-0.1665,0.0056-0.1906,0.102
							c0.2258-0.0037,0.3232,0.219,0.7063,0.3647c-0.4917-0.0825-0.3348-0.1478-0.847-0.3999
							c-0.2275-0.0355-0.557-0.2354-0.4334-0.0324c-0.4933-0.1655-0.2695-0.2332-0.6074-0.3953
							c-0.0897-0.1007,0.1779,0.0009,0.3659,0.0417c0.1886,0.0409,0.2288,0.0082-0.5016-0.3958
							c0.0902,0.011-0.422-0.2895-0.3401-0.2632c-0.3194-0.1299-0.8018-0.3957-0.5182-0.2207l0.7177,0.4358
							c-0.0686-0.0055,0.3373,0.2754,0.1768,0.2186c-0.1274-0.111-0.4542-0.2991-0.4764-0.2785
							c0.0952,0.0606,0.1132,0.054,0.1987,0.1226c-0.1243-0.0006,0.1597,0.2583-0.104,0.2658
							c0.3528,0.1441,0.5288,0.2674,1.0783,0.5009c0.2647,0.2611-0.2025-0.0069-0.3593-0.0105
							c-0.0069-0.0301,0.025-0.0298-0.0896-0.0932c-0.0233,0.0296-0.053,0.0579-0.0893,0.0851
							c-0.2927-0.1002-0.3397-0.1856-0.3973-0.2743c-0.0529-0.0878-0.1188-0.1794-0.2943-0.2632
							c-0.299-0.2331-0.1805,0.0655-0.3835-0.0728c0.0172,0.0222,0.0354,0.0457,0.0485,0.0627
							c-0.0341-0.0098-0.059-0.0195-0.0777-0.0292l0.0071,0.016c-0.1768-0.0021-0.3544-0.0522-0.4601,0.0863
							c-0.0256-0.0765-0.3228-0.0395-0.4504-0.0144c-0.2148,0.0233-0.7348,0.1131-0.9921-0.1892l0.0229,0.0028
							c-0.4487-0.1141-0.7882-0.2571-0.6749-0.3214l-0.7215-0.1979l0.1157-0.184c-0.6776-0.0707-0.6329,0.0578-1.1289,0.1776
							c-0.2281-0.1036-0.5556-0.1706-0.8674-0.2098c-0.1559-0.0196-0.3078-0.0323-0.4413-0.0391
							c-0.171-0.009-0.32-0.0168-0.4305-0.0226c-0.0725-0.0217-0.1856-0.0436-0.3678-0.0666l0.3826,0.1522
							c-0.7005-0.1395-0.5901-0.0103-1.0254-0.0906c0.0771,0.0292,0.1045,0.0448-0.0087,0.0124
							c-0.0183,0.0205-0.0446,0.05-0.0794,0.089c-0.045,0.0579-0.0936,0.1206-0.1531,0.1973
							c0.0007-0.039,0.0604-0.1205,0.1227-0.1929l-0.0818-0.0001c-0.4408,0.2641-0.4483,0.8715-0.7495,1.1786
							c0.0181-0.0401,0.0476-0.1079,0.0754-0.145c-0.1885,0.1794-0.6315,0.3195-0.5467,0.5052
							c-0.0517,0.0359-0.0733,0.1298-0.0866,0.2265l-0.1309,0.1375c0.0512-0.0581,0.0933-0.1009,0.1299-0.135
							c-0.0178,0.1288-0.0208,0.2605-0.0648,0.2485l-0.3972,0.5166c-0.0938,0.0854-0.1675,0.2378-0.2206,0.3658l-0.1318,0.0438
							c-0.1234,0.2029-0.1657,0.1763-0.1689,0.1399c-0.3526,0.2575-0.5015,0.5412-0.651,0.8345
							c-0.0648,0.1321-0.172,0.3283-0.2281,0.4124c-0.056,0.084-0.1362,0.1663-0.2388,0.2044
							c0.0257,0.2104,0.1856,0.0892,0.2519,0.1256c0.0234,0.1567-0.1479,0.5776-0.2478,0.8589
							c-0.1318,0.0212-0.3316,0.1519-0.4602,0.1597c-0.1331,0.0143-0.1887-0.1037-0.1423-0.4187
							c-0.1981,0.2514,0.0403,0.2457-0.0825,0.5963l-0.0276,0.0208c0.0808-0.0606,0.1457,0.0138,0.2083,0.1125
							c0.0346,0.2159-0.2937,0.7739-0.3807,0.8246l0.1143-0.5476c-0.2988,0.5701-0.3629,1.2346-0.7259,2.1458
							c-0.2779,0.2558,0.0403-0.554,0.1014-0.9835l-0.3044,0.5398l0.1382-0.4876c-0.046,0.0939-0.0859,0.1751-0.1226,0.25
							c-0.0579,0.0161-0.1366,0.1246-0.0981-0.3423c0.1484-0.1431,0.1276-0.9492,0.3285-1.1001
							c0.0472-0.2874-0.249,0.3655-0.0479-0.2148c-0.1663,0.2446-0.0772,0.362-0.1258,0.593
							c-0.2306,0.6955-0.1234-0.2066-0.191-0.3491c0.1219-0.253,0.1476-0.1238,0.2226-0.5583
							c-0.0939,0.1225-0.1714,0.0282-0.061-0.31c-0.1557,0.2271-0.0396-0.3032-0.0337-0.4656
							c-0.0266,0.2058-0.1337,0.662-0.272,0.7052c-0.0668-0.0957-0.1025-0.2348-0.0915-0.685l-0.0665,0.3697
							c-0.1203-0.0855-0.0829-0.3124-0.0252-0.5316c0.0575-0.2268,0.1355-0.4419,0.0922-0.6796
							c0.1012,0.1811,0.1042,0.307,0.2243,0.4029c-0.079-0.1551-0.2058-0.535-0.2906-0.9439l0.2242-0.4582
							c-0.1192-0.0535-0.0015-0.5092-0.1625-0.5054c0.0947-0.5656,0.2042,0.4481,0.3237,0.5016
							c0.0897-0.7093-0.2817-0.5595-0.0516-1.2431l0.1555,0.2216c0.0054-0.2254-0.0913-0.676-0.0167-0.7061
							c-0.054,0.0013-0.0298,0.1142-0.0264,0.2553c-0.3256-0.1312-0.2499-1.0378-0.5808-0.9458l-0.0142,0.3121
							c-0.0757-0.4761-0.3093-0.811-0.2008-1.181c0.1005-0.2849,0.2301,0.1926,0.3202,0.3579
							c0.0107-0.4503-0.3738-0.3567-0.3545-0.8946c-0.0469,0.2837-0.1666,0.2325-0.2561,0.0652
							c-0.0143,0.3112-0.0625,0.9613,0.0745,0.844l0.0296-0.1133c0.0867,0.0263,0.1227,0.1951,0.1679,0.2783
							c0.01,0.4246-0.1457,0.2013-0.2081,0.288c-0.0361,0.7077,0.3339,0.0496,0.3386,0.6966l-0.0624,0.086
							c0.0934,0.3093,0.1164,0.7893,0.3226,0.8696c-0.2085,0.2881,0.1028,0.7308-0.018,1.0441
							c-0.4707,0.0702,0.0059-1.1004-0.2608-1.4619c-0.0888,0.3413-0.2301-0.189-0.341-0.3285l0.2296,1.0663
							c-0.0624,0.0869-0.2905,0.4061-0.114,0.5966l0.0089-0.0843c0.0637,0.4266,0.2543,0.2972,0.1989,0.6808
							c-0.0414,0.0727-0.12-0.0664-0.1525-0.0879c-0.0336,0.4089,0.1152,0.3318,0.164,0.5728
							c-0.0325,0.416-0.1971-0.1453-0.2409,0.2231c0.1922,0.4077-0.0239,0.8115-0.0019,1.2729
							c0.129-0.2155,0.2283,0.1157,0.3199,0.294c0.0919,0.1915,0.1761,0.2277,0.2818-0.2867
							c0.0652,0.1764,0.1297,0.3227,0.1934,0.4388c-0.0642,0.2361-0.1566,0.2988-0.2604,0.3338
							c-0.1037,0.0419-0.219,0.048-0.3245,0.3633l-0.009-0.7927c-0.1605,0.2662-0.0969,0.6512-0.0382,1.0326
							c0.0589,0.3929,0.1124,0.7605-0.0571,1.4674c-0.0027,0.4962,0.0376,0.2219-0.0966,1.5689L25.5,80.0006
							c-0.0544,0.5934-0.2013,1.2466-0.2513,1.4364l0.0066,0.0642c0.1479-0.2384,0.2643-0.3957,0.384-0.5504
							c-0.0705,0.1809-0.1568,0.3779-0.2672,0.5671c0.0744,0.1838,0.1975-0.1057,0.3276-0.4517
							c0.1633-0.3716,0.3184-0.5806,0.4861-0.8211l-0.2138,0.5087c0.122-0.2225,0.2669-0.4912,0.3024-0.6381
							c0.0703-0.1047,0.1396-0.2179,0.209-0.352c-0.0261-0.0534-0.0654-0.304-0.2268-0.2046
							c0.4965-0.5182,0.9174-1.2477,1.4591-1.604c-0.001,0.1538-0.2254,0.6717-0.1547,0.5875
							c0.3005-0.3628,0.5705-1.0239,0.4957-1.1433c0.0576-0.0933,0.1006-0.163,0.1385-0.2245
							c0.0774,0.018,0.1751,0.0154,0.3139-0.1644c0.0434-0.0157,0.1062-0.0657,0.209-0.1989
							c-0.0182-0.1828,0.1128-0.4265,0.2552-0.6584c0.1477-0.2396,0.2969-0.4529,0.2786-0.5215
							c-0.0909,0.0896-0.2559,0.3344-0.3872,0.5405c0.0491-0.2113,0.0756-0.3997,0.118-0.5483
							c0.0295-0.1297,0.0817-0.2298,0.1939-0.2814c-0.162,0.5029,0.5079-0.307,0.1311,0.36
							c0.5503-0.2737-0.0191-0.3523,0.3892-0.7609l0.3048-0.2365c0.1104,0.1433-0.2644,0.539-0.1629,0.5049l0.126-0.2225
							c-0.0187,0.1416-0.1812,0.3988-0.3609,0.6953c-0.1104,0.1856-0.2273,0.3819-0.3429,0.5762
							c-0.1411,0.2439-0.2731,0.4917-0.3813,0.7354l0.583-0.7675l0.2396-0.3079l0.1874-0.2316
							c0.3379-0.6754,0.8188-1.3651,1.2661-2.0435c0.2236-0.3392,0.4388-0.6756,0.6235-1.0061
							c0.1221-0.2389,0.1231-0.3395,0.1839-0.5954l-0.0135,0.0282c-0.0021-0.0265-0.0154-0.0639-0.0422-0.1404l0.0398,0.018
							l0.0057-0.0721c0.0206-0.0279,0.0445-0.0552,0.0719-0.0819c0.1184,0.1039,0.2439,0.1764,0.3641,0.2437
							c0.0663,0.0348,0.1044,0.0633,0.186,0.1024c0.1123,0.0448,0.2242,0.0922,0.3302,0.1445
							c-0.2613-0.1569-0.2613-0.1569-0.2655-0.2887c0.0875-0.1589,0.1441-0.2226,0.5497-0.0822
							c-0.0178,0.1207-0.2748,0.0698,0.0151,0.2225c-0.1479-0.0886,0.0094-0.1468,0.1942-0.1281
							c0.2205,0.1216,0.6088,0.2112,0.5913,0.3328c-0.1148,0.0124-0.1948-0.0453-0.2651-0.0769
							c-0.1147,0.0119,0.4216,0.1908,0.0804,0.2292l0.4307,0.0447c0.2289,0.1468-0.1941,0.1276-0.1076,0.2105
							c0.721,0.0498,1.1339-0.1592,1.7879-0.1218c-0.0419,0.0583-0.0989,0.3254-0.0775,0.2488
							c0.4762,0.1724,1.1083-0.0951,1.6715-0.0125c-0.097,0.0641-0.3001-0.0067-0.4766,0.0002
							c0.2119,0.0517,0.4187,0.1021,0.6215,0.1515c0.2809,0.0627,0.5565,0.1242,0.8281,0.1849
							c0.6026,0.1336,1.1878,0.2633,1.7697,0.3923c1.2006,0.2716,2.4327,0.569,4.0472,1.0024
							c0.0242-0.0905,0.0248-0.1854,0.0018-0.2847l1.1322,0.4009c2.0372,0.4951,3.543,0.745,4.7715,0.9142
							c-0.8431-0.5341-1.7036-1.0793-2.6242-1.6625c-0.6968-0.4554,0.3148-0.0215,0.2629-0.1526
							c-1.4618-1.0384-2.7635-1.5456-4.172-2.4327c0.3648,0.1453,1.2977,0.491,0.6945,0.0644
							c-0.3031-0.1093-0.6515-0.1935-0.9177-0.4361l0.3748,0.1521c-0.0965-0.2184-0.6844-0.4765-1.3273-0.9813
							c-0.6656-0.4519-1.3895-0.8851-2.0632-1.2381c-0.3373-0.1768-0.6627-0.334-0.9669-0.4667
							c-0.1364-0.0556-0.3343-0.1508-0.4044-0.1563l-0.2169-0.0143c-0.2054-0.1578-0.1135-0.1863,0.0022-0.2034
							c0.1186-0.0151,0.2465-0.0288,0.2428-0.0682c0.1135,0.2022,0.2032,0.079,0.3875,0.0877l-0.1824-0.091l-0.0486-0.0061
							c-0.0305-0.0056-0.0592-0.0165-0.0801-0.0325c-0.0419-0.0323-0.0503-0.084,0.0269-0.1526
							c-0.0766-0.0418-0.111-0.0679-0.2305-0.0917c-0.016-0.0196-0.0342-0.0419-0.0569-0.0697
							c0.052,0.0458-0.1217,0.1367-0.2007,0.0923c0.1555-0.1369,0.2562-0.4759,0.4729-0.3511
							c0.2327-0.4335,0.4721-0.8794,0.716-1.3337c0.2683-0.4825,0.5415-0.9738,0.817-1.4693
							c0.5526-0.99,1.1143-1.9963,1.6637-2.9807c0.0716-0.3951-0.1836,0.2281-0.1617,0.0014
							c0.121-0.5648,0.2879-0.3397,0.3854-0.7916l0.0309,0.2258c0.1684-0.2829,0.2821-0.6078,0.3786-0.9394
							c0.0534-0.175,0.0807-0.3125,0.1479-0.5186c0.0862-0.235,0.1706-0.4651,0.2505-0.6832
							c0.0763,0.1827,0.5341-0.6983,0.2234,0.0532c0.1064-0.2188,0.4208-0.4409,0.745-0.7107
							c0.3202-0.2627,0.6475-0.568,0.6688-0.7533c-0.3907,0.2596-0.7591,0.479-1.1053,0.6584
							c-0.0635-0.0167,0.3058-0.602,0.2179-0.5319c0.3623-0.3902,0.8542-0.9675,1.0085-1.2472
							c0.3333-0.2635-0.1248,0.4902-0.3473,0.8845c0.3293-0.0306,1.0336-1.5041,1.0636-1.0413
							c0.4626-0.9273-0.2871,0.2293-0.1369-0.2506l0.5369-0.8481l-0.4912,0.6972c0.2355-0.5938-0.0416-0.5228,0.6979-1.5424
							c-0.0136-0.1589-0.0419-0.2915-0.0848-0.3977c0.5005-0.458,0.4084-0.655,0.7446-1.1578
							c0.0577-0.0095,0.113-0.0147,0.1659-0.0154c0.3052-0.5648,0.5127-0.8629,0.9167-1.4285
							c0.2723-0.1003-0.412,0.6491-0.0677,0.3983l0.5397-0.8425c-0.2991,0.2873-0.3122,0.1132-0.7519,0.7542
							c-0.1488-0.0315-0.3459,0.0561-0.2722-0.221c-0.3635,0.2655-0.735,0.5134-1.1712,0.7687
							c-0.1266-0.1679,1.0663-0.8598,1.3237-1.256c-0.6577,0.345-1.4248,0.9665-2.0363,1.5032
							c-0.6227,0.5436-1.1138,1.017-1.4515,1.206c-0.8174,0.3936-1.0068,0.733-1.8867,1.2797
							c0.3965-0.4055-0.5345,0.1446-0.6796,0.0737l0.4702-0.4561c-0.3393,0.2563-0.6249,0.3635-0.4999,0.1669
							c-0.0095,0.2306-1.4166,1.0648-2.0634,1.5622l0.1911,0.0765c-0.0587,0.0438-0.1205,0.0898-0.1846,0.1376l-0.136,0.1109
							c-0.0945,0.0749-0.1929,0.153-0.2908,0.2306c-0.1999,0.1527-0.4088,0.2965-0.6076,0.3918
							c-0.5318,0.3826-0.3296,0.4304-0.6679,0.8436c-0.3147,0.0165-0.3789-0.1489-0.3924-0.3505
							c0.193-0.0185,0.4211-0.2134,0.6936-0.3186c0.3168-0.2739,0.568-0.5678,0.8332-0.838c0.14-0.1395,0.2521-0.2542,0.4349-0.3918
							c0.2483-0.1772,0.5212-0.3496,0.8101-0.5007c0.22-0.3651,0.0225-0.2324-0.3105,0.0197
							c-0.1619,0.1213-0.3585,0.2687-0.54,0.4048c-0.1467,0.1069-0.2314,0.1598-0.3437,0.1866
							c-0.0022-0.0265,0.0187-0.048,0.0428-0.0672c-0.031,0.0177-0.0589,0.0324-0.0919,0.0419
							c0.0568-0.0487,0.122-0.1045,0.1903-0.163l0.11-0.0972l0.1787-0.1453c0.2304-0.1943,0.4284-0.3915,0.4677-0.534
							c-0.7795,0.5181-0.4988,0.7649-1.0914,0.923c-0.3321,0.3303-0.8112,0.2535-1.061,0.372
							c-0.1825,0.284-0.0287,0.5639-0.6988,0.8963l0.1645-0.3596c-0.7247,0.4318-0.1703,0.4841-0.8444,0.8791
							c0.2489-0.1192-0.1142,0.3246,0.336,0.06c-0.1583,0.2345-0.6337,0.5477-1.0301,0.7116
							c-0.0501,0.07,0.0232,0.0745,0.0487,0.1475c0.4671-0.1009,0.5536-0.5099,0.9954-0.5163l0.1555-0.3744
							c0.4189-0.1511,0.5567-0.0085,0.3766,0.2107c0.1003-0.0722,0.1756-0.1564,0.2743-0.1669
							c0.2508,0.2712-0.5155,0.1606-0.4866,0.5016l0.2508-0.1816c0.2357,0.1318-0.5104,0.5488-0.8594,0.7403
							c-0.4518,0.1438-0.8027,0.3087-0.8654,0.1479l0.4155-0.3361c-0.187,0.0334-0.286,0.1165-0.4036,0.2296
							c-0.1166,0.1125-0.2514,0.2549-0.3765,0.3265c-0.017-0.0169-0.0404-0.0232-0.0679-0.0209
							c0.0119,0.0103,0.019,0.0241,0.0189,0.0435c-0.0522,0.0216-0.0976,0.0248-0.131-0.0026
							c-0.0203,0.0124-0.0414,0.0253-0.0666,0.0407c-0.1563-0.1446-0.4153-0.294-0.5385-0.4889l-0.0629,0.1525l0.0696-0.0512
							c0.1549,0.1657,0.3679,0.5148,0.1944,0.5004c-0.4979-0.3548-0.4102-0.6828-0.3967-0.8575
							c0.245-0.0834,0.3275,0.3354,0.5454,0.4431c-0.0122-0.1763-0.0788-0.2525-0.1829-0.3528
							c-0.0515-0.0497-0.1121-0.105-0.1721-0.174c-0.0648-0.0738-0.1804-0.2135-0.2625-0.351c0.1676-0.01,0.3477,0.174,0.404,0.2361
							c0.0645,0.0703,0.1284,0.1435,0.2106,0.0609c-0.0916-0.1237-0.1203-0.1043-0.2686-0.21
							c-0.1422-0.0995-0.2849-0.2032-0.4578-0.4244c0.1335-0.0314,0.5228,0.348,0.6049,0.217l-0.1999-0.3056
							c0.6167,0.6048,0.1402-0.3054,0.6164,0.09c-0.1043-0.2535-0.4503-0.1633-0.6483-0.5923
							c0.0116,0.1685,0.1269,0.5711-0.2524,0.3268l-0.2967-0.4069c-0.0592-0.234,0.5559,0.1811,0.4019-0.1222l-0.4272-0.3108
							c-0.0412,0.0653,0.1071,0.2698-0.0768,0.2309c-0.1536-0.2715-0.5538-0.1477-0.8823-0.322
							c-0.194-0.2054-0.3403-0.3761-0.3478-0.509c-0.6584-0.3505-1.2863-0.9987-1.8978-1.3173
							c0.422,0.2127,0.1712-0.1935,0.0642-0.464c0.3842,0.3446,0.5553,0.1814,0.6383,0.0495
							c-0.2382-0.2056-0.5558-0.1809-0.5009-0.0125c-0.2988-0.4411-0.3706-0.1424-0.5801-0.582
							c-0.1511-0.2698,0.2708-0.0576,0.262-0.1932c-0.3896-0.4106-0.3126,0.0919-0.7045-0.3849
							c0.0461,0.0019,0.0922,0.035,0.0893-0.0304c-0.1976-0.2714-0.5273-0.4476-0.6608-0.4162
							c0.0618-0.376-0.9636-0.9304-0.7118-1.1012c-0.9842-0.8841,0.0702,0.3044-0.1762,0.2033
							c-0.4107-0.2276-1.0034-0.9841-1.2259-1.2775c0.2139,0.2077,0.4323,0.3125,0.6376,0.587l-0.1527-0.4512
							c-1.2337-1.463-0.7025-0.042-1.7792-1.3915c0.4974,0.3501,0.1101-0.1128,0.3454-0.0831
							c-0.1651-0.0934-1.0864-1.1115-0.463-0.2523c-0.4242-0.4554-0.742-0.831-1.072-1.2198
							c-0.3097-0.2003-0.645-0.4585-0.6754-0.2956c-0.5607-0.5995-1.2028-1.4614-1.652-2.0464
							c-0.2657-0.2125-0.5624-0.4976-0.888-0.831c0.3335,1.154,0.5054,2.1164,1.0965,3.7095l-0.0172-0.103
							c0.1707,0.6485,0.238,0.6322,0.3181,0.6458c0.08,0.0132,0.1743,0.061,0.356,0.6918c-0.4644-0.6747-0.0387,0.4776-0.102,0.7408
							c0.1676,0.8009,0.4679,1.6563,0.7345,2.4149c0.271,0.7738,0.509,1.4533,0.6629,2.2799
							c-0.0551,0.0017-0.1484-0.0901-0.2521-0.4195c0.0648,0.2684,0.1255,0.5195,0.1841,0.7624
							c0.0484,0.1737,0.0949,0.341,0.1409,0.5063c0.098,0.3289,0.1933,0.6483,0.294,0.9861l-0.0386-0.0205
							c0.0604,0.5706,0.2225,1.0843,0.4181,1.5934l0.0748,0.1908c0.026,0.0658,0.0547,0.1392,0.0595,0.131l0.0705,0.0872
							c0.0491,0.0652,0.1014,0.1475,0.1435,0.2363c-0.046-0.0426-0.16-0.0898-0.2032-0.1162
							c-0.0106,0.0263-0.0193,0.0523-0.0173,0.0825c-0.1008,0.0069-0.1277,0.0451-0.1305,0.2109
							c-0.0756-0.0475-0.1046-0.0683-0.1264-0.0721c0.0022-0.0091-0.1249,0.029-0.1709,0.0495
							c-0.1331,0.05-0.2905,0.1063-0.7559,0.0847c-0.0602-0.0326,0.0782-0.0603,0.1345-0.0826
							c-0.4499,0.0134-0.7505,0.1066-1.1937,0.1739c-0.9286,0.3714-1.0962,0.7444-2.2376,0.896
							c-0.132-0.3257,0.6698-0.2362,0.635-0.5108c-0.2098,0.1093-0.3881,0.2211-0.7143,0.2091
							c0.1558-0.1731,0.0217-0.0922,0.1221-0.2439c-0.0638-0.0092-0.1503,0.0214-0.2441,0.072
							c-0.0557,0.0272-0.0761,0.0512-0.164,0.0926c-0.093,0.0437-0.1906,0.0896-0.2872,0.135
							c-0.3664,0.181-0.6213,0.3447-0.6264,0.329c0.0158,0.0651,0.1761,0.0669,0.5545-0.0267
							c-0.187,0.1504-0.6319,0.2534-1.1622,0.3589c-0.5258,0.1045-1.1499,0.2145-1.5479,0.3465
							c0.3151-0.0636,1.2936-0.2108,1.1263-0.006c-1.2309,0.1973-1.1218,0.5141-1.4856,0.7358
							c-0.5893,0.0501-0.6007-0.0219-0.487-0.1327c0.1048-0.1087,0.3433-0.2581,0.0379-0.3149
							c-0.3194-0.02-1.1749-0.0294-0.8371-0.2012c-1.2309,0.2191-1.5734,0.5078-2.3247,0.728l-0.1616-0.0343
							c-1.1231,0.2737-1.485,0.5903-2.5175,0.7856c0.1185,0.0417,0.2112,0.0814,0.2747,0.1196l-0.1732-0.1154l0.2077-0.026
							c-0.0059,0.0078-0.0271,0.0175-0.0714,0.0317c0.3258,0.0766,0.8094,0.222,1.4864,0.3078
							c-0.4527-0.0205-0.0261,0.2189-0.6584,0.1216c0.8941,0.0855,1.7103,0.2801,2.4946,0.4674
							c0.7821,0.1866,1.5357,0.3669,2.1496,0.3758c0.0731,0.1183-0.4443,0.1133-0.7223,0.1143
							c-0.6505-0.2343-0.6759-0.3181-1.4391-0.4016c0.6058,0.1823,0.8364,0.3517,0.5533,0.3513
							c1.1779,0.1269,2.694,0.5024,3.258,0.4388c0.2144,0.1857,0.5515,0.3544,0.1922,0.4415
							c0.9862,0.2436,0.8509,0.0488,0.8097-0.1012c-0.0502-0.1527-0.043-0.2719,0.7513-0.0246
							c0.3119,0.1926,0.1073,0.1944-0.0875,0.1833c-0.1878-0.0089-0.347-0.0247,0.22,0.1836l-0.2345-0.0413
							c0.2946,0.3466,0.5403,0.3315,0.7392,0.2402c0.1658-0.1015,0.3484-0.2595,0.6909-0.145
							c0.0132,0.2825-0.5347,0.0332-0.117,0.3617c0.6485,0.1305,1.0403-0.1604,1.6438,0.1155l-0.132,0.0773
							c0.4087,0.1044,1.1743,0.3982,1.5809,0.502c0.0035,0.0559-0.0526,0.0307-0.1333,0.0208
							c0.7116,0.3256,0.35-0.0338,0.9022,0.3294l0.2121-0.0692c-0.2776-0.182-0.8287-0.4885-1.2588-0.463
							c0.4301-0.0256-0.5044-0.5081-0.2462-0.6653l-0.1033,0.0632c-0.4455-0.342-0.9889-0.625-1.5751-0.8894
							c-0.2973-0.1275-0.5992-0.2569-0.9045-0.3877c-0.1778-0.0714-0.2578-0.1123-0.3501-0.1578l-0.2599-0.1341
							c-0.3526,0.0331-0.5908-0.0692-0.7515-0.1586c-0.1768-0.0943-0.2749-0.1753-0.7416-0.2215
							c-0.7605,0.0895-0.2483-0.0116-0.9122-0.1518c0.3783,0.0765,0.6325-0.0516,0.6315-0.0958
							c-0.3038-0.0101-0.5006-0.0403-0.6989-0.0721c0.1065-0.0188,0.2192-0.0681,0.256-0.1099
							c0.032-0.0433-0.0182-0.0809-0.3878-0.1228c-0.0359-0.006-0.0668-0.0112-0.0997-0.0167
							c0.486-0.028,0.4022,0.0081,0.4555,0.0314c0.0771,0.0089,0.1406,0.0163,0.1891,0.0219
							c0.1134-0.0007,0.1508-0.0035,0.1408-0.0083c0.076-0.0108-0.445-0.0565-0.0767-0.052c0,0,0.0773,0.0078,0.1561,0.0158
							c0.263-0.0711,0.7104-0.087,1.0676-0.1262c-0.7485-0.1466,0.0278-0.1237-0.0528-0.2175
							c0.1445,0.0689,0.4065,0.027,0.5746,0.0488c-0.0655-0.0628-0.1131-0.1296-0.1427-0.2004
							c-0.0051-0.196,0.4328,0.043,0.5746-0.0948l-0.1032-0.0332c0.0653-0.0612,0.2835-0.086,0.4703-0.0711
							c0.313-0.0131,0.6877-0.0071,0.8791,0.0345c1.0275-0.4188,1.9356-0.6572,2.8079-0.8165
							c1.2377-0.1962,2.4276-0.3849,3.6869-0.5845c-0.1736-0.7799-0.377-1.6468-0.6308-2.6104
							c-0.0825-0.3092-0.1674-0.6273-0.2559-0.9588c-0.0868-0.3013-0.1843-0.6126-0.2951-0.9359
							c-0.1556-0.2031-0.0986,0.2112-0.282,0.07c-0.139-0.3477-0.1507-0.433-0.2505-0.757c0.0062,0.3107,0.09,0.2358-0.0021,0.223
							l0.2291,0.4745c-0.0144,0.0305-0.0393-0.0219-0.0671,0.0379c0.0763,0.1598,0.1927,0.3396,0.2407,0.5592
							c-0.1666-0.2862-0.4077-0.3091-0.45-0.7556c0.0393,0.0237,0.0646,0.0755,0.1159,0.181
							c-0.0853-0.3534-0.1938-0.3403-0.2137-0.6189c-0.0462-0.3341-0.0897-0.2358-0.008-0.3047
							c-0.0523-0.3209-0.132-0.7347-0.1619-0.9794c-0.1653-0.0855-0.2201-0.2604-0.2179-0.3714
							c0.0005-0.117,0.057-0.1739,0.0618-0.2016c0.252,0.1422,0.157,0.3137,0.3902,0.4044c0.0408-0.0353,0.0848-0.0599,0.132-0.0739
							l-0.1799-0.0403l0.0078-0.1301l0.0393,0.0238c-0.0793-0.0463-0.1626-0.1074-0.1057-0.1114
							c0.0255,0.0078,0.0769,0.026,0.0928,0.0468l-0.1432-0.1716c0.2345,0.2052,0.0393-0.0432,0.304,0.1749
							c0.0409-0.0323-0.0655-0.164-0.1588-0.3249c-0.0883-0.1436-0.1648-0.3212,0.0451-0.0732
							c-0.1492-0.1855-0.577-0.8834-0.5478-0.9092c0.0732,0.0816,0.1577,0.2147,0.3089,0.4678l-0.2269-0.4212
							c0.0998,0.1501,0.1795,0.2699,0.2542,0.3821c0.2387,0.3753,0.1167,0.11,0.318,0.4279l0.119,0.2418
							c-0.1281-0.273-0.1689-0.4283-0.0727-0.2862l0.1643,0.4082c0.1308,0.3026-0.2798-0.7917-0.084-0.4385
							c-0.1018-0.3632-0.2635-0.6606-0.4281-1.0742c0.2024,0.4695,0.3777,0.6867,0.2722,0.3917
							c0.1681,0.0645,0.1399,0.1487,0.168,0.24c0.0243-0.0282,0.0541-0.0507,0.0895-0.0676
							c0.1509,0.1656,0.0553,0.3968,0.0519,0.542c0.0633-0.2155,0.2031,0.1233,0.2717,0.2371
							c-0.0232,0.0153-0.0444,0.0328-0.0634,0.0524l0.0894,0.1379c0.0355-0.0147,0.0726-0.016,0.1089-0.0075
							c0.0119-0.0162,0.1632,0.1197,0.2352,0.1848c0.1802,0.1671,0.351,0.3633,0.499,0.567l-0.4125-0.0765
							c0.1562,0.3369,0.1855,0.0698,0.2795,0.1071c0.4713,0.3111,0.4383,0.5101,0.5469,0.8133
							C29.5525,56.1667,29.7095,57.2439,30.4983,57.5308z M29.168,73.7012l0.0759-0.0473
							C29.1735,73.83,29.1461,73.939,29.168,73.7012z M33.047,70.8599c-0.2792-0.0043-0.4359-0.0385-0.4703-0.0703
							c-0.0397-0.0328,0.0098-0.0694-0.017-0.1081c0.1669,0.0415,0.3114,0.0774,0.446,0.1109
							c0.1171,0.0225,0.225,0.0432,0.331,0.0635c0.2124,0.0385,0.4164,0.077,0.6597,0.1624
							c-0.0717-0.0621-0.0754-0.1283-0.0939-0.1725c0.1975,0.0487,0.3878,0.1378,0.4337,0.2705
							C34.0446,71.3074,32.8234,70.6761,33.047,70.8599z M25.7603,80.9072l0.0896-0.2258l0.0026-0.0037L25.7603,80.9072z
							 M27.9944,77.2624c0.0459,0.025,0.1089-0.0172,0.1824-0.0902C28.1115,77.1537,28.0567,77.1398,27.9944,77.2624z
							 M31.6959,72.3773c0.1185,0.0046,0.1743-0.1308,0.2277-0.2499C31.8881,72.1602,31.8139,72.2137,31.6959,72.3773z
							 M43.6387,58.2085c-0.0666,0.2002-0.195,0.6398,0.105,0.2498c0.0022-0.1821,0.3903-0.5741,0.312-0.7042
							c0.0193-0.0222,0.0241-0.0277,0.0366-0.042C43.8591,57.9637,43.6796,58.1451,43.6387,58.2085z M35.0274,60.2159
							c0.0036-0.0089,0.0078-0.0172,0.0144-0.0232c0.0536-0.1387,0.1452-0.3051,0.0917-0.3526l0.0383-0.0139
							c-0.0317-0.0201-0.0553-0.0385-0.0269-0.0808l-0.0493,0.0187c-0.0705-0.0949-0.1367-0.1805-0.1944-0.2048
							C34.7828,59.8983,34.5234,59.7085,35.0274,60.2159z"/>
						<path class="st0" d="M39.3477,56.0779c-0.0554,0.0372-0.0972,0.0653-0.1323,0.0888
							C39.2514,56.1426,39.2923,56.1151,39.3477,56.0779z"/>
						<path class="st0" d="M34.9184,59.5782c-0.012,0.0136,0.0591,0.1246,0.1657,0.2774l0.0494-0.0155
							c-0.0079-0.0087-0.0196-0.0144-0.0461-0.0101C35.0639,59.7706,35.0089,59.6867,34.9184,59.5782z"/>
						<path class="st0" d="M26.0137,70.9504l0.0363,0.1686l0.0888-0.3413c-0.1209-0.5629-0.2612-0.5879-0.4256-0.7232
							c0.1626,0.5031,0.0945,0.8151,0.1536,1.4646L26.0137,70.9504z"/>
						<path class="st0" d="M24.9476,71.2629c-0.0415,0.058-0.146,0.2021-0.1545,0.2872l0.0996,0.0818L24.9476,71.2629z"/>
						<path class="st0" d="M24.6905,80.3021l0.0608-1.0542C24.662,79.0973,24.5435,80.4635,24.6905,80.3021z"/>
						<path class="st0" d="M26.2678,75.1919c-0.0369-0.0382-0.0739-0.0825-0.1111-0.133c-0.0806,0.226-0.0634,0.5013,0.053,0.4303
							C26.1409,75.3047,26.2721,75.3771,26.2678,75.1919z"/>
						<path class="st0" d="M24.7285,82.7894c0.0744-0.1157,0.08,0.0365,0.0711,0.2489c0.1224-0.1418,0.231-0.1988,0.3808-0.6125
							c-0.0899,0.1804-0.2202,0.3236-0.3472,0.4992C24.8328,82.6872,24.816,82.535,24.7285,82.7894z"/>
						<path class="st0" d="M26.4331,77.1222c0.169-0.5853,0.014-0.3052,0.05-0.6067
							C26.4863,76.6486,26.3108,77.3955,26.4331,77.1222z"/>
						<path class="st0" d="M27.2568,78.5902c-0.0239,0.2797-0.2136,0.54-0.4112,0.7715c0.0773-0.1889,0.1314-0.3816,0.2198-0.5493
							c-0.3424,0.6909-0.366,0.6871-0.6593,1.2301c0.2334-0.1697,0.6673-0.692,0.603-0.2933
							C27.2665,79.1442,27.4996,78.4616,27.2568,78.5902z"/>
						<path class="st0" d="M26.5183,77.3464c-0.0098-0.0067-0.0139-0.0282-0.0146-0.057c0.0524-0.2922,0.1212-0.587,0.1105-0.6839
							c-0.0897,0.2884-0.2188,0.7506-0.192,0.9261l-0.1517,0.4008c-0.087,0.5159,0.1098-0.3585,0.1749-0.4462
							C26.4688,77.429,26.4932,77.3803,26.5183,77.3464z"/>
						<path class="st0" d="M28.64,77.2302l-0.1857,0.1396c-0.2998,0.6665-0.7719,1.2426-0.9684,1.8919
							C27.9513,78.5621,28.4913,77.6189,28.64,77.2302z"/>
						<path class="st0" d="M26.8463,77.3974l0.1072-0.5555c-0.1251,0.1273-0.0203,0.1635-0.0924,0.3636
							c-0.0312-0.0118-0.0823,0.0266-0.1373,0.1825C26.9149,77.0499,26.6467,77.823,26.8463,77.3974z"/>
						<path class="st0" d="M27.3838,76.1724l0.1501-0.3902c-0.0587-0.0596-0.1063-0.1355-0.1428-0.2276
							C27.2561,75.9039,27.3868,75.8089,27.3838,76.1724z"/>
						<path class="st0" d="M27.6344,76.0724l0.0343,0.0264c0.0713-0.3009,0.1137-0.5596,0.1274-0.7761
							C27.727,75.6706,27.7084,75.6605,27.6344,76.0724z"/>
						<path class="st0" d="M33.7836,72.4923c0.1017-0.0792-0.314-0.2791-0.1465-0.1385
							C33.5385,72.4168,34.0996,72.6487,33.7836,72.4923z"/>
						<path class="st0" d="M32.0573,70.3334c0.1554,0.0661,0.5235,0.1184,0.8464,0.1446c0.2452,0.0117,0.5053,0.0084,0.6639,0.0042
							c-0.2051-0.0145-0.4601-0.0621-0.8118-0.117C32.3367,70.2977,32.0077,70.2576,32.0573,70.3334z"/>
						<path class="st0" d="M33.6969,70.4796c-0.0262,0.0005-0.0739,0.0015-0.1293,0.0026
							C33.6248,70.4859,33.6663,70.4857,33.6969,70.4796z"/>
						<path class="st0" d="M38.7893,70.8772c-0.037-0.0155-0.0712-0.0298-0.1171-0.049
							C38.7133,70.8454,38.7469,70.8595,38.7893,70.8772z"/>
						<path class="st0" d="M39.0707,71.0014c-0.0563-0.0177,0.0033,0.0127,0.1495,0.0796c0.1715,0.0757,0.3203,0.1414,0.4471,0.1974
							l-0.1221-0.063c-0.192-0.0913-0.3986-0.1876-0.7559-0.3382C38.8586,70.9106,38.5668,70.7997,39.0707,71.0014z"/>
						<path class="st0" d="M38.7533,70.7236c0.2072,0.0672,0.1586,0.0723,0.4325,0.1458
							C39.2875,70.888,38.9168,70.7563,38.7533,70.7236z"/>
						<path class="st0" d="M46.7493,54.189c0.3601-0.5449,0.4378-0.7653,0.0819-0.414
							C46.556,54.2762,46.8761,53.8718,46.7493,54.189z"/>
						<polygon class="st0" points="47.0879,53.2507 47.2711,53.0647 47.6729,52.5615 						"/>
						<path class="st0" d="M49.1619,49.7924c0.057-0.0523,0.1445-0.1242,0.2385-0.1965c0.0042,0.0052,0.0035,0.0179-0.0002,0.034
							c0.0073-0.0195,0.0144-0.0386,0.0205-0.055C49.2285,49.7101,49.0908,49.813,49.1619,49.7924z"/>
						<path class="st0" d="M49.3708,49.7012c0.0089-0.0215,0.0197-0.0478,0.0294-0.0714L49.3708,49.7012z"/>
						<path class="st0" d="M49.131,50.0415l0.1756-0.1619c0.0016-0.0255,0.0353-0.1057,0.0642-0.1784
							C49.3339,49.7782,49.2539,49.9018,49.131,50.0415z"/>
						<path class="st0" d="M48.2565,50.309c0.0385,0.0603,0.0629,0.1291,0.0733,0.2064c0.8905-0.6605-0.4347,0.1338,0.7575-0.8524
							L48.2565,50.309z"/>
						<path class="st0" d="M46.0043,51.7378c-0.2343,0.1007-0.6969,0.4579-1.067,0.7326c-0.3745,0.2773-0.6655,0.4774-0.69,0.3443
							c-0.8858,0.612-0.8625,0.7215-0.8974,0.8606c-0.0268,0.1343-0.1035,0.2933-0.9086,0.8352
							c1.3316-0.6508,1.2099-1.3005,2.5375-1.9371C44.4631,52.7009,45.6446,52.0259,46.0043,51.7378z"/>
						<path class="st0" d="M45.5378,52.5173c0.3126-0.337-0.3447,0.0463-0.6709,0.3421
							C45.0448,52.7684,45.0593,52.9671,45.5378,52.5173z"/>
						<polygon class="st0" points="42.7298,53.8466 42.2918,53.9967 42.1272,54.1911 						"/>
						<path class="st0" d="M40.8991,54.8919l0.5016-0.4746C41.2237,54.5913,40.4954,55.0173,40.8991,54.8919z"/>
						<path class="st0" d="M38.6734,56.0204c-0.2717,0.1057-0.3188,0.5315,0.1624,0.1545l-0.1251,0.0601
							C38.7139,56.1714,38.3723,56.2374,38.6734,56.0204z"/>
						<path class="st0" d="M35.6679,58.458c0.1733-0.0959,0.3509-0.2538,0.2793-0.2928l-0.2142,0.1697l-0.1067,0.0846l-0.033,0.0401
							C35.6181,58.4591,35.6285,58.4673,35.6679,58.458z"/>
						<path class="st0" d="M36.1638,59.125c0.2628,0.083,0.4266-0.277,0.7703-0.4046C36.5632,58.8974,36.5904,58.848,36.1638,59.125
							z"/>
						<path class="st0" d="M35.3963,58.2786c0.0054-0.1028,0.049-0.0649,0.0821-0.0688
							C35.4106,58.1132,35.3924,58.1596,35.3963,58.2786z"/>
						<path class="st0" d="M35.2327,58.4136c-0.007-0.1264,0.032-0.1325,0.0299-0.2158c-0.0116-0.1449-0.0165-0.1322-0.124-0.0785
							c-0.0561,0.0687-0.1632,0.3009-0.2745,0.3361c0.2474,0.1514,0.3775-0.2215,0.3821,0.109l0.0052,0.0366
							c0.0641-0.179,0.0967-0.3391,0.0978-0.48c-0.0326-0.0336-0.0401,0.1811-0.0836,0.2892
							C35.2561,58.4284,35.2445,58.4324,35.2327,58.4136z"/>
						<path class="st0" d="M35.7562,58.9445c-0.0773-0.0003-0.1478-0.0047-0.2116-0.0132c0.0631,0.0988-0.0693,0.2027-0.1721,0.3095
							C35.4483,59.503,35.683,59.007,35.7562,58.9445z"/>
						<polygon class="st0" points="33.3579,56.7377 32.8304,56.2894 32.9773,56.4595 						"/>
						<polygon class="st0" points="33.1077,56.3636 33.1493,56.2972 32.6795,56.0199 						"/>
						<polygon class="st0" points="32.6646,55.786 32.7134,55.8525 33.0455,56.0949 						"/>
						<path class="st0" d="M31.692,54.7263l0.01,0.1679c0.1433,0.1038,0.2998,0.4404,0.3835,0.311
							C31.9428,55.133,31.7015,54.8619,31.692,54.7263z"/>
						<path class="st0" d="M27.2927,54.2852c0.0147-0.0899,0.0207-0.1762,0.0133-0.2782c-0.0141,0.0755-0.0229,0.1564-0.0265,0.2427
							C27.2827,54.2391,27.2933,54.2236,27.2927,54.2852z"/>
						<path class="st0" d="M27.161,53.7134c-0.0127,0.0897-0.0097,0.1952,0.0089,0.3166c0.0635,0.1117,0.0238-0.1705,0.1176-0.1229
							c-0.0461-0.1441-0.075,0.0465-0.1262-0.0894L27.161,53.7134z"/>
						<path class="st0" d="M26.6341,54.4263c-0.1543-0.0324-0.1152,0.0314-0.2662-0.1621c0.0843,0.1338,0.1291,0.2366,0.1675,0.3467
							c0.0675,0.2142,0.1374,0.4357,0.2176,0.6902c0.0553-0.1219,0.3264,0.2626,0.2256,0.0531l-0.268-0.6148l0.1192,0.0691
							c-0.0252-0.2741-0.047-0.2109-0.1014-0.2445C26.6789,54.547,26.621,54.5152,26.6341,54.4263z"/>
						<path class="st0" d="M22.5152,65.7437c-0.0792,0.0461-0.0205,0.1281,0.0382,0.21
							C22.9553,65.9994,22.4344,65.7338,22.5152,65.7437z"/>
					</g>
				</g>
			</g>
		</g>
	</g>
</g>
</svg>
