<?xml version="1.0" encoding="utf-8"?>
<!-- Generator: Adobe Illustrator 22.1.0, SVG Export Plug-In . SVG Version: 6.00 Build 0)  -->
<svg version="1.1" id="Calque_1" xmlns="http://www.w3.org/2000/svg" xmlns:xlink="http://www.w3.org/1999/xlink" x="0px" y="0px"
	 viewBox="0 0 90 90" style="enable-background:new 0 0 90 90;" xml:space="preserve">
<g>
	<path d="M27.6667,83.13L18,76.2924V30.5369l9.6667,4.379V83.13z M34.1111,35.2639V84L76,77.7038V29.2222L34.1111,35.2639z
		 M53.3275,9.8859c-6.7599,0-12.759,6.4633-12.7719,13.7519l-0.0032,5.4192c0,0.9838,0.8805,1.7417,1.8546,1.5934
		c0.787-0.1193,1.3708-0.7967,1.3708-1.5934v-5.4157c0.0097-5.51,4.5627-10.5302,9.5474-10.5302
		c1.7303,0,3.2738,0.6283,4.4596,1.8173c1.3598,1.363,2.1073,3.335,2.1041,5.5648v5.6275c0,0.9847,0.8814,1.7435,1.8565,1.595
		c0.7846-0.1195,1.3657-0.7943,1.3657-1.5885l0.0065-5.6323C63.124,14.3571,58.8624,9.8859,53.3275,9.8859z M32.7352,29.2061
		c0.7894-0.1192,1.3759-0.7959,1.3759-1.595v-7.192c0.0064-5.51,4.5627-10.5302,9.5474-10.5302l0.522,0.0483
		c1.1793-0.9119,2.465-1.653,3.828-2.2008c-1.305-0.667-2.7647-1.0698-4.35-1.0698c-6.7538,0-12.7536,6.4606-12.7664,13.746v7.2017
		C30.8921,28.6003,31.7686,29.3479,32.7352,29.2061z"/>
</g>
</svg>
